<ttFont>
    <TTGlyph name="A" xMin="-40" yMin="0" xMax="661" yMax="700">
      <contour>
        <pt x="481" y="80" on="1"/>
        <pt x="461" y="190" on="1"/>
        <pt x="206" y="190" on="1"/>
        <pt x="151" y="79" on="1"/>
        <pt x="235" y="60" on="1"/>
        <pt x="225" y="0" on="1"/>
        <pt x="-40" y="0" on="1"/>
        <pt x="-31" y="60" on="1"/>
        <pt x="54" y="80" on="1"/>
        <pt x="374" y="695" on="1"/>
        <pt x="473" y="700" on="1"/>
        <pt x="593" y="77" on="1"/>
        <pt x="661" y="60" on="1"/>
        <pt x="651" y="0" on="1"/>
        <pt x="386" y="0" on="1"/>
        <pt x="395" y="60" on="1"/>
      </contour>
      <contour>
        <pt x="396" y="571" on="1"/>
        <pt x="245" y="270" on="1"/>
        <pt x="447" y="270" on="1"/>
      </contour>
    </TTGlyph>
    <TTGlyph name="AE" xMin="-37" yMin="0" xMax="938" yMax="700">
      <contour>
        <pt x="58" y="80" on="1"/>
        <pt x="415" y="620" on="1"/>
        <pt x="336" y="640" on="1"/>
        <pt x="345" y="695" on="1"/>
        <pt x="536" y="700" on="1"/>
        <pt x="938" y="700" on="1"/>
        <pt x="911" y="530" on="1"/>
        <pt x="855" y="530" on="1"/>
        <pt x="845" y="620" on="1"/>
        <pt x="624" y="620" on="1"/>
        <pt x="589" y="405" on="1"/>
        <pt x="817" y="405" on="1"/>
        <pt x="805" y="325" on="1"/>
        <pt x="577" y="325" on="1"/>
        <pt x="538" y="80" on="1"/>
        <pt x="765" y="80" on="1"/>
        <pt x="802" y="182" on="1"/>
        <pt x="868" y="182" on="1"/>
        <pt x="837" y="0" on="1"/>
        <pt x="340" y="0" on="1"/>
        <pt x="350" y="60" on="1"/>
        <pt x="438" y="80" on="1"/>
        <pt x="458" y="205" on="1"/>
        <pt x="241" y="205" on="1"/>
        <pt x="158" y="77" on="1"/>
        <pt x="233" y="60" on="1"/>
        <pt x="223" y="0" on="1"/>
        <pt x="-37" y="0" on="1"/>
        <pt x="-27" y="60" on="1"/>
      </contour>
      <contour>
        <pt x="524" y="620" on="1"/>
        <pt x="507" y="620" on="1"/>
        <pt x="292" y="285" on="1"/>
        <pt x="470" y="285" on="1"/>
      </contour>
    </TTGlyph>
    <TTGlyph name="AEacute" xMin="-41" yMin="0" xMax="935" yMax="920">
      <contour>
        <pt x="335" y="0" on="1"/>
        <pt x="345" y="60" on="1"/>
        <pt x="436" y="80" on="1"/>
        <pt x="456" y="205" on="1"/>
        <pt x="241" y="205" on="1"/>
        <pt x="158" y="77" on="1"/>
        <pt x="233" y="60" on="1"/>
        <pt x="223" y="0" on="1"/>
        <pt x="-41" y="0" on="1"/>
        <pt x="-31" y="60" on="1"/>
        <pt x="58" y="80" on="1"/>
        <pt x="415" y="620" on="1"/>
        <pt x="334" y="640" on="1"/>
        <pt x="343" y="695" on="1"/>
        <pt x="468" y="700" on="1"/>
        <pt x="935" y="700" on="1"/>
        <pt x="908" y="530" on="1"/>
        <pt x="845" y="530" on="1"/>
        <pt x="834" y="620" on="1"/>
        <pt x="624" y="620" on="1"/>
        <pt x="590" y="405" on="1"/>
        <pt x="815" y="405" on="1"/>
        <pt x="803" y="325" on="1"/>
        <pt x="578" y="325" on="1"/>
        <pt x="539" y="80" on="1"/>
        <pt x="764" y="80" on="1"/>
        <pt x="799" y="180" on="1"/>
        <pt x="863" y="180" on="1"/>
        <pt x="834" y="0" on="1"/>
      </contour>
      <contour>
        <pt x="292" y="285" on="1"/>
        <pt x="468" y="285" on="1"/>
        <pt x="521" y="620" on="1"/>
        <pt x="507" y="620" on="1"/>
      </contour>
      <contour>
        <pt x="846" y="841" on="1"/>
        <pt x="618" y="746" on="1"/>
        <pt x="591" y="801" on="1"/>
        <pt x="809" y="920" on="1"/>
      </contour>
    </TTGlyph>
    <TTGlyph name="Aacute" xMin="-40" yMin="0" xMax="661" yMax="920">
      <contour>
        <pt x="481" y="80" on="1"/>
        <pt x="461" y="190" on="1"/>
        <pt x="206" y="190" on="1"/>
        <pt x="151" y="79" on="1"/>
        <pt x="235" y="60" on="1"/>
        <pt x="225" y="0" on="1"/>
        <pt x="-40" y="0" on="1"/>
        <pt x="-31" y="60" on="1"/>
        <pt x="54" y="80" on="1"/>
        <pt x="374" y="695" on="1"/>
        <pt x="473" y="700" on="1"/>
        <pt x="593" y="77" on="1"/>
        <pt x="661" y="60" on="1"/>
        <pt x="651" y="0" on="1"/>
        <pt x="386" y="0" on="1"/>
        <pt x="395" y="60" on="1"/>
      </contour>
      <contour>
        <pt x="396" y="571" on="1"/>
        <pt x="245" y="270" on="1"/>
        <pt x="447" y="270" on="1"/>
      </contour>
      <contour>
        <pt x="596" y="841" on="1"/>
        <pt x="368" y="746" on="1"/>
        <pt x="341" y="801" on="1"/>
        <pt x="559" y="920" on="1"/>
      </contour>
    </TTGlyph>
    <TTGlyph name="Abreve" xMin="-40" yMin="0" xMax="661" yMax="905">
      <component glyphName="A" x="0" y="0" flags="0x1004"/>
      <component glyphName="breve" x="213" y="130" flags="0x1004"/>
    </TTGlyph>
    <TTGlyph name="Acircumflex" xMin="-40" yMin="0" xMax="661" yMax="910">
      <contour>
        <pt x="481" y="80" on="1"/>
        <pt x="461" y="190" on="1"/>
        <pt x="206" y="190" on="1"/>
        <pt x="151" y="79" on="1"/>
        <pt x="235" y="60" on="1"/>
        <pt x="225" y="0" on="1"/>
        <pt x="-40" y="0" on="1"/>
        <pt x="-31" y="60" on="1"/>
        <pt x="54" y="80" on="1"/>
        <pt x="374" y="695" on="1"/>
        <pt x="473" y="700" on="1"/>
        <pt x="593" y="77" on="1"/>
        <pt x="661" y="60" on="1"/>
        <pt x="651" y="0" on="1"/>
        <pt x="386" y="0" on="1"/>
        <pt x="395" y="60" on="1"/>
      </contour>
      <contour>
        <pt x="396" y="571" on="1"/>
        <pt x="245" y="270" on="1"/>
        <pt x="447" y="270" on="1"/>
      </contour>
      <contour>
        <pt x="573" y="750" on="1"/>
        <pt x="458" y="833" on="1"/>
        <pt x="309" y="750" on="1"/>
        <pt x="277" y="795" on="1"/>
        <pt x="438" y="905" on="1"/>
        <pt x="497" y="910" on="1"/>
        <pt x="620" y="795" on="1"/>
      </contour>
    </TTGlyph>
    <TTGlyph name="Adieresis" xMin="-40" yMin="0" xMax="661" yMax="885">
      <component glyphName="A" x="0" y="0" flags="0x1004"/>
      <component glyphName="dieresis" x="229" y="125" flags="0x1004"/>
    </TTGlyph>
    <TTGlyph name="Agrave" xMin="-40" yMin="0" xMax="661" yMax="921">
      <contour>
        <pt x="481" y="80" on="1"/>
        <pt x="461" y="190" on="1"/>
        <pt x="206" y="190" on="1"/>
        <pt x="151" y="79" on="1"/>
        <pt x="235" y="60" on="1"/>
        <pt x="225" y="0" on="1"/>
        <pt x="-40" y="0" on="1"/>
        <pt x="-31" y="60" on="1"/>
        <pt x="54" y="80" on="1"/>
        <pt x="374" y="695" on="1"/>
        <pt x="473" y="700" on="1"/>
        <pt x="593" y="77" on="1"/>
        <pt x="661" y="60" on="1"/>
        <pt x="651" y="0" on="1"/>
        <pt x="386" y="0" on="1"/>
        <pt x="395" y="60" on="1"/>
      </contour>
      <contour>
        <pt x="396" y="571" on="1"/>
        <pt x="245" y="270" on="1"/>
        <pt x="447" y="270" on="1"/>
      </contour>
      <contour>
        <pt x="540" y="744" on="1"/>
        <pt x="312" y="842" on="1"/>
        <pt x="349" y="921" on="1"/>
        <pt x="567" y="799" on="1"/>
      </contour>
    </TTGlyph>
    <TTGlyph name="Amacron" xMin="-40" yMin="0" xMax="661" yMax="855">
      <contour>
        <pt x="481" y="80" on="1"/>
        <pt x="461" y="190" on="1"/>
        <pt x="206" y="190" on="1"/>
        <pt x="151" y="79" on="1"/>
        <pt x="235" y="60" on="1"/>
        <pt x="225" y="0" on="1"/>
        <pt x="-40" y="0" on="1"/>
        <pt x="-31" y="60" on="1"/>
        <pt x="54" y="80" on="1"/>
        <pt x="374" y="695" on="1"/>
        <pt x="473" y="700" on="1"/>
        <pt x="593" y="77" on="1"/>
        <pt x="661" y="60" on="1"/>
        <pt x="651" y="0" on="1"/>
        <pt x="386" y="0" on="1"/>
        <pt x="395" y="60" on="1"/>
      </contour>
      <contour>
        <pt x="396" y="571" on="1"/>
        <pt x="245" y="270" on="1"/>
        <pt x="447" y="270" on="1"/>
      </contour>
      <contour>
        <pt x="305" y="780" on="1"/>
        <pt x="316" y="855" on="1"/>
        <pt x="580" y="855" on="1"/>
        <pt x="569" y="780" on="1"/>
      </contour>
    </TTGlyph>
    <TTGlyph name="Aogonek" xMin="-40" yMin="-220" xMax="661" yMax="700">
      <component glyphName="A" x="0" y="0" flags="0x1004"/>
      <component glyphName="ogonek" x="199" y="0" flags="0x1004"/>
    </TTGlyph>
    <TTGlyph name="Aring" xMin="-40" yMin="0" xMax="661" yMax="906">
      <contour>
        <pt x="481" y="80" on="1"/>
        <pt x="461" y="190" on="1"/>
        <pt x="206" y="190" on="1"/>
        <pt x="151" y="79" on="1"/>
        <pt x="235" y="60" on="1"/>
        <pt x="225" y="0" on="1"/>
        <pt x="-40" y="0" on="1"/>
        <pt x="-31" y="60" on="1"/>
        <pt x="54" y="80" on="1"/>
        <pt x="374" y="695" on="1"/>
        <pt x="473" y="700" on="1"/>
        <pt x="593" y="77" on="1"/>
        <pt x="661" y="60" on="1"/>
        <pt x="651" y="0" on="1"/>
        <pt x="386" y="0" on="1"/>
        <pt x="395" y="60" on="1"/>
      </contour>
      <contour>
        <pt x="396" y="571" on="1"/>
        <pt x="245" y="270" on="1"/>
        <pt x="447" y="270" on="1"/>
      </contour>
      <contour>
        <pt x="332" y="731" on="0"/>
        <pt x="387" y="681" on="0"/>
        <pt x="481" y="681" on="0"/>
        <pt x="561" y="762" on="0"/>
        <pt x="561" y="857" on="0"/>
        <pt x="504" y="906" on="0"/>
        <pt x="412" y="906" on="0"/>
        <pt x="332" y="825" on="0"/>
      </contour>
      <contour>
        <pt x="457" y="856" on="1"/>
        <pt x="502" y="856" on="0"/>
        <pt x="502" y="809" on="1"/>
        <pt x="502" y="778" on="0"/>
        <pt x="466" y="731" on="0"/>
        <pt x="437" y="731" on="1"/>
        <pt x="391" y="731" on="0"/>
        <pt x="391" y="778" on="1"/>
        <pt x="391" y="809" on="0"/>
        <pt x="428" y="856" on="0"/>
      </contour>
    </TTGlyph>
    <TTGlyph name="Aringacute" xMin="-25" yMin="0" xMax="676" yMax="1090">
      <contour>
        <pt x="496" y="80" on="1"/>
        <pt x="476" y="190" on="1"/>
        <pt x="221" y="190" on="1"/>
        <pt x="166" y="79" on="1"/>
        <pt x="250" y="60" on="1"/>
        <pt x="240" y="0" on="1"/>
        <pt x="-25" y="0" on="1"/>
        <pt x="-16" y="60" on="1"/>
        <pt x="69" y="80" on="1"/>
        <pt x="389" y="695" on="1"/>
        <pt x="488" y="700" on="1"/>
        <pt x="608" y="77" on="1"/>
        <pt x="676" y="60" on="1"/>
        <pt x="666" y="0" on="1"/>
        <pt x="401" y="0" on="1"/>
        <pt x="410" y="60" on="1"/>
      </contour>
      <contour>
        <pt x="411" y="571" on="1"/>
        <pt x="260" y="270" on="1"/>
        <pt x="462" y="270" on="1"/>
      </contour>
      <contour>
        <pt x="346" y="731" on="0"/>
        <pt x="401" y="681" on="0"/>
        <pt x="495" y="681" on="0"/>
        <pt x="575" y="762" on="0"/>
        <pt x="575" y="857" on="0"/>
        <pt x="518" y="906" on="0"/>
        <pt x="426" y="906" on="0"/>
        <pt x="346" y="825" on="0"/>
      </contour>
      <contour>
        <pt x="471" y="856" on="1"/>
        <pt x="516" y="856" on="0"/>
        <pt x="516" y="809" on="1"/>
        <pt x="516" y="778" on="0"/>
        <pt x="480" y="731" on="0"/>
        <pt x="451" y="731" on="1"/>
        <pt x="405" y="731" on="0"/>
        <pt x="405" y="778" on="1"/>
        <pt x="405" y="809" on="0"/>
        <pt x="442" y="856" on="0"/>
      </contour>
      <contour>
        <pt x="616" y="1011" on="1"/>
        <pt x="388" y="916" on="1"/>
        <pt x="361" y="971" on="1"/>
        <pt x="579" y="1090" on="1"/>
      </contour>
    </TTGlyph>
    <TTGlyph name="Atilde" xMin="-40" yMin="0" xMax="661" yMax="890">
      <contour>
        <pt x="481" y="80" on="1"/>
        <pt x="461" y="190" on="1"/>
        <pt x="206" y="190" on="1"/>
        <pt x="151" y="79" on="1"/>
        <pt x="235" y="60" on="1"/>
        <pt x="225" y="0" on="1"/>
        <pt x="-40" y="0" on="1"/>
        <pt x="-31" y="60" on="1"/>
        <pt x="54" y="80" on="1"/>
        <pt x="374" y="695" on="1"/>
        <pt x="473" y="700" on="1"/>
        <pt x="593" y="77" on="1"/>
        <pt x="661" y="60" on="1"/>
        <pt x="651" y="0" on="1"/>
        <pt x="386" y="0" on="1"/>
        <pt x="395" y="60" on="1"/>
      </contour>
      <contour>
        <pt x="396" y="571" on="1"/>
        <pt x="245" y="270" on="1"/>
        <pt x="447" y="270" on="1"/>
      </contour>
      <contour>
        <pt x="299" y="766" on="1"/>
        <pt x="270" y="796" on="1"/>
        <pt x="275" y="805" on="0"/>
        <pt x="306" y="845" on="0"/>
        <pt x="320" y="858" on="1"/>
        <pt x="356" y="890" on="0"/>
        <pt x="428" y="890" on="0"/>
        <pt x="529" y="844" on="0"/>
        <pt x="575" y="844" on="0"/>
        <pt x="610" y="865" on="0"/>
        <pt x="618" y="876" on="1"/>
        <pt x="627" y="886" on="1"/>
        <pt x="657" y="856" on="1"/>
        <pt x="642" y="827" on="0"/>
        <pt x="620" y="806" on="1"/>
        <pt x="576" y="766" on="0"/>
        <pt x="504" y="766" on="0"/>
        <pt x="403" y="810" on="0"/>
        <pt x="380" y="810" on="1"/>
        <pt x="341" y="810" on="0"/>
        <pt x="310" y="777" on="1"/>
      </contour>
    </TTGlyph>
    <TTGlyph name="B" xMin="5" yMin="0" xMax="601" yMax="700">
      <contour>
        <pt x="104" y="80" on="1"/>
        <pt x="189" y="620" on="1"/>
        <pt x="108" y="640" on="1"/>
        <pt x="117" y="695" on="1"/>
        <pt x="302" y="700" on="1"/>
        <pt x="406" y="700" on="1"/>
        <pt x="490" y="700" on="0"/>
        <pt x="601" y="622" on="0"/>
        <pt x="601" y="470" on="0"/>
        <pt x="507" y="377" on="0"/>
        <pt x="445" y="363" on="1"/>
        <pt x="577" y="333" on="0"/>
        <pt x="577" y="120" on="0"/>
        <pt x="426" y="0" on="0"/>
        <pt x="307" y="0" on="1"/>
        <pt x="5" y="0" on="1"/>
        <pt x="15" y="60" on="1"/>
      </contour>
      <contour>
        <pt x="204" y="80" on="1"/>
        <pt x="297" y="80" on="1"/>
        <pt x="379" y="80" on="0"/>
        <pt x="470" y="160" on="0"/>
        <pt x="470" y="277" on="0"/>
        <pt x="395" y="325" on="0"/>
        <pt x="317" y="325" on="1"/>
        <pt x="242" y="325" on="1"/>
      </contour>
      <contour>
        <pt x="396" y="620" on="1"/>
        <pt x="289" y="620" on="1"/>
        <pt x="254" y="400" on="1"/>
        <pt x="327" y="400" on="1"/>
        <pt x="381" y="400" on="0"/>
        <pt x="434" y="427" on="1"/>
        <pt x="462" y="441" on="0"/>
        <pt x="495" y="498" on="0"/>
        <pt x="495" y="576" on="0"/>
        <pt x="440" y="620" on="0"/>
      </contour>
    </TTGlyph>
    <TTGlyph name="C" xMin="60" yMin="-10" xMax="663" yMax="710">
      <contour>
        <pt x="663" y="660" on="1"/>
        <pt x="636" y="490" on="1"/>
        <pt x="578" y="490" on="1"/>
        <pt x="566" y="600" on="1"/>
        <pt x="505" y="625" on="0"/>
        <pt x="355" y="625" on="0"/>
        <pt x="233" y="521" on="0"/>
        <pt x="170" y="357" on="0"/>
        <pt x="170" y="180" on="0"/>
        <pt x="257" y="78" on="0"/>
        <pt x="328" y="78" on="1"/>
        <pt x="444" y="78" on="0"/>
        <pt x="550" y="156" on="1"/>
        <pt x="586" y="97" on="1"/>
        <pt x="453" y="-10" on="0"/>
        <pt x="308" y="-10" on="1"/>
        <pt x="192" y="-10" on="0"/>
        <pt x="60" y="127" on="0"/>
        <pt x="60" y="244" on="1"/>
        <pt x="60" y="448" on="0"/>
        <pt x="282" y="710" on="0"/>
        <pt x="452" y="710" on="1"/>
        <pt x="501" y="710" on="0"/>
        <pt x="606" y="685" on="0"/>
        <pt x="634" y="672" on="1"/>
      </contour>
    </TTGlyph>
    <TTGlyph name="Cacute" xMin="60" yMin="-10" xMax="663" yMax="920">
      <contour>
        <pt x="663" y="660" on="1"/>
        <pt x="663" y="660" on="0"/>
        <pt x="636" y="490" on="1"/>
        <pt x="578" y="490" on="1"/>
        <pt x="566" y="600" on="1"/>
        <pt x="505" y="625" on="0"/>
        <pt x="355" y="625" on="0"/>
        <pt x="233" y="521" on="0"/>
        <pt x="170" y="357" on="0"/>
        <pt x="170" y="180" on="0"/>
        <pt x="257" y="78" on="0"/>
        <pt x="328" y="78" on="1"/>
        <pt x="444" y="78" on="0"/>
        <pt x="550" y="156" on="1"/>
        <pt x="586" y="97" on="1"/>
        <pt x="453" y="-10" on="0"/>
        <pt x="308" y="-10" on="1"/>
        <pt x="192" y="-10" on="0"/>
        <pt x="60" y="127" on="0"/>
        <pt x="60" y="244" on="1"/>
        <pt x="60" y="448" on="0"/>
        <pt x="282" y="710" on="0"/>
        <pt x="452" y="710" on="1"/>
        <pt x="501" y="710" on="0"/>
        <pt x="632" y="677" on="0"/>
      </contour>
      <contour>
        <pt x="596" y="841" on="1"/>
        <pt x="368" y="746" on="1"/>
        <pt x="341" y="801" on="1"/>
        <pt x="559" y="920" on="1"/>
      </contour>
    </TTGlyph>
    <TTGlyph name="Ccaron" xMin="60" yMin="-10" xMax="663" yMax="912">
      <contour>
        <pt x="663" y="660" on="1"/>
        <pt x="663" y="660" on="0"/>
        <pt x="636" y="490" on="1"/>
        <pt x="578" y="490" on="1"/>
        <pt x="566" y="600" on="1"/>
        <pt x="505" y="625" on="0"/>
        <pt x="355" y="625" on="0"/>
        <pt x="233" y="521" on="0"/>
        <pt x="170" y="357" on="0"/>
        <pt x="170" y="180" on="0"/>
        <pt x="257" y="78" on="0"/>
        <pt x="328" y="78" on="1"/>
        <pt x="444" y="78" on="0"/>
        <pt x="550" y="156" on="1"/>
        <pt x="586" y="97" on="1"/>
        <pt x="453" y="-10" on="0"/>
        <pt x="308" y="-10" on="1"/>
        <pt x="192" y="-10" on="0"/>
        <pt x="60" y="127" on="0"/>
        <pt x="60" y="244" on="1"/>
        <pt x="60" y="448" on="0"/>
        <pt x="282" y="710" on="0"/>
        <pt x="452" y="710" on="1"/>
        <pt x="501" y="710" on="0"/>
        <pt x="632" y="677" on="0"/>
      </contour>
      <contour>
        <pt x="463" y="826" on="1"/>
        <pt x="612" y="912" on="1"/>
        <pt x="639" y="867" on="1"/>
        <pt x="480" y="751" on="1"/>
        <pt x="422" y="751" on="1"/>
        <pt x="300" y="867" on="1"/>
        <pt x="348" y="912" on="1"/>
      </contour>
    </TTGlyph>
    <TTGlyph name="Ccedilla" xMin="60" yMin="-219" xMax="663" yMax="710">
      <contour>
        <pt x="663" y="660" on="1"/>
        <pt x="636" y="490" on="1"/>
        <pt x="578" y="490" on="1"/>
        <pt x="566" y="600" on="1"/>
        <pt x="505" y="625" on="0"/>
        <pt x="355" y="625" on="0"/>
        <pt x="233" y="521" on="0"/>
        <pt x="170" y="357" on="0"/>
        <pt x="170" y="180" on="0"/>
        <pt x="257" y="78" on="0"/>
        <pt x="328" y="78" on="1"/>
        <pt x="444" y="78" on="0"/>
        <pt x="550" y="156" on="1"/>
        <pt x="586" y="97" on="1"/>
        <pt x="453" y="-10" on="0"/>
        <pt x="308" y="-10" on="1"/>
        <pt x="192" y="-10" on="0"/>
        <pt x="60" y="127" on="0"/>
        <pt x="60" y="244" on="1"/>
        <pt x="60" y="448" on="0"/>
        <pt x="282" y="710" on="0"/>
        <pt x="452" y="710" on="1"/>
        <pt x="501" y="710" on="0"/>
        <pt x="606" y="685" on="0"/>
        <pt x="634" y="672" on="1"/>
      </contour>
      <contour>
        <pt x="223" y="-155" on="1"/>
        <pt x="254" y="-171" on="0"/>
        <pt x="312" y="-171" on="0"/>
        <pt x="347" y="-144" on="0"/>
        <pt x="347" y="-122" on="1"/>
        <pt x="347" y="-79" on="0"/>
        <pt x="274" y="-79" on="1"/>
        <pt x="287" y="0" on="1"/>
        <pt x="346" y="0" on="1"/>
        <pt x="339" y="-43" on="1"/>
        <pt x="411" y="-56" on="0"/>
        <pt x="411" y="-115" on="1"/>
        <pt x="411" y="-159" on="0"/>
        <pt x="343" y="-219" on="0"/>
        <pt x="305" y="-219" on="1"/>
        <pt x="235" y="-219" on="0"/>
        <pt x="204" y="-202" on="1"/>
        <pt x="193" y="-196" on="1"/>
      </contour>
    </TTGlyph>
    <TTGlyph name="Ccircumflex" xMin="60" yMin="-10" xMax="663" yMax="910">
      <contour>
        <pt x="663" y="660" on="1"/>
        <pt x="663" y="660" on="0"/>
        <pt x="636" y="490" on="1"/>
        <pt x="578" y="490" on="1"/>
        <pt x="566" y="600" on="1"/>
        <pt x="505" y="625" on="0"/>
        <pt x="355" y="625" on="0"/>
        <pt x="233" y="521" on="0"/>
        <pt x="170" y="357" on="0"/>
        <pt x="170" y="180" on="0"/>
        <pt x="257" y="78" on="0"/>
        <pt x="328" y="78" on="1"/>
        <pt x="444" y="78" on="0"/>
        <pt x="550" y="156" on="1"/>
        <pt x="586" y="97" on="1"/>
        <pt x="453" y="-10" on="0"/>
        <pt x="308" y="-10" on="1"/>
        <pt x="192" y="-10" on="0"/>
        <pt x="60" y="127" on="0"/>
        <pt x="60" y="244" on="1"/>
        <pt x="60" y="448" on="0"/>
        <pt x="282" y="710" on="0"/>
        <pt x="452" y="710" on="1"/>
        <pt x="501" y="710" on="0"/>
        <pt x="632" y="677" on="0"/>
      </contour>
      <contour>
        <pt x="586" y="750" on="1"/>
        <pt x="471" y="833" on="1"/>
        <pt x="322" y="750" on="1"/>
        <pt x="290" y="795" on="1"/>
        <pt x="451" y="905" on="1"/>
        <pt x="510" y="910" on="1"/>
        <pt x="633" y="795" on="1"/>
      </contour>
    </TTGlyph>
    <TTGlyph name="Cdotaccent" xMin="60" yMin="-10" xMax="663" yMax="905">
      <contour>
        <pt x="663" y="660" on="1"/>
        <pt x="636" y="490" on="1"/>
        <pt x="578" y="490" on="1"/>
        <pt x="566" y="600" on="1"/>
        <pt x="505" y="625" on="0"/>
        <pt x="355" y="625" on="0"/>
        <pt x="233" y="521" on="0"/>
        <pt x="170" y="357" on="0"/>
        <pt x="170" y="180" on="0"/>
        <pt x="257" y="78" on="0"/>
        <pt x="328" y="78" on="1"/>
        <pt x="444" y="78" on="0"/>
        <pt x="550" y="156" on="1"/>
        <pt x="586" y="97" on="1"/>
        <pt x="453" y="-10" on="0"/>
        <pt x="308" y="-10" on="1"/>
        <pt x="192" y="-10" on="0"/>
        <pt x="60" y="127" on="0"/>
        <pt x="60" y="244" on="1"/>
        <pt x="60" y="448" on="0"/>
        <pt x="282" y="710" on="0"/>
        <pt x="452" y="710" on="1"/>
        <pt x="501" y="710" on="0"/>
        <pt x="606" y="685" on="0"/>
        <pt x="634" y="672" on="1"/>
      </contour>
      <contour>
        <pt x="542" y="817" on="0"/>
        <pt x="505" y="765" on="0"/>
        <pt x="447" y="765" on="0"/>
        <pt x="417" y="792" on="0"/>
        <pt x="417" y="853" on="0"/>
        <pt x="454" y="905" on="0"/>
        <pt x="512" y="905" on="0"/>
        <pt x="542" y="878" on="0"/>
      </contour>
    </TTGlyph>
    <TTGlyph name="D" xMin="5" yMin="0" xMax="678" yMax="700">
      <contour>
        <pt x="101" y="79" on="1"/>
        <pt x="188" y="620" on="1"/>
        <pt x="107" y="640" on="1"/>
        <pt x="116" y="695" on="1"/>
        <pt x="301" y="700" on="1"/>
        <pt x="430" y="700" on="1"/>
        <pt x="542" y="700" on="0"/>
        <pt x="678" y="574" on="0"/>
        <pt x="678" y="465" on="1"/>
        <pt x="678" y="243" on="0"/>
        <pt x="459" y="0" on="0"/>
        <pt x="270" y="0" on="1"/>
        <pt x="5" y="0" on="1"/>
        <pt x="15" y="60" on="1"/>
      </contour>
      <contour>
        <pt x="289" y="620" on="1"/>
        <pt x="203" y="80" on="1"/>
        <pt x="285" y="80" on="1"/>
        <pt x="421" y="80" on="0"/>
        <pt x="573" y="284" on="0"/>
        <pt x="573" y="452" on="1"/>
        <pt x="573" y="532" on="0"/>
        <pt x="493" y="620" on="0"/>
        <pt x="415" y="620" on="1"/>
      </contour>
    </TTGlyph>
    <TTGlyph name="Dcaron" xMin="5" yMin="0" xMax="678" yMax="912">
      <contour>
        <pt x="101" y="79" on="1"/>
        <pt x="188" y="620" on="1"/>
        <pt x="107" y="640" on="1"/>
        <pt x="116" y="695" on="1"/>
        <pt x="301" y="700" on="1"/>
        <pt x="430" y="700" on="1"/>
        <pt x="542" y="700" on="0"/>
        <pt x="678" y="574" on="0"/>
        <pt x="678" y="465" on="1"/>
        <pt x="678" y="243" on="0"/>
        <pt x="459" y="0" on="0"/>
        <pt x="270" y="0" on="1"/>
        <pt x="5" y="0" on="1"/>
        <pt x="15" y="60" on="1"/>
      </contour>
      <contour>
        <pt x="289" y="620" on="1"/>
        <pt x="203" y="80" on="1"/>
        <pt x="285" y="80" on="1"/>
        <pt x="421" y="80" on="0"/>
        <pt x="573" y="284" on="0"/>
        <pt x="573" y="452" on="1"/>
        <pt x="573" y="532" on="0"/>
        <pt x="493" y="620" on="0"/>
        <pt x="415" y="620" on="1"/>
      </contour>
      <contour>
        <pt x="399" y="826" on="1"/>
        <pt x="548" y="912" on="1"/>
        <pt x="575" y="867" on="1"/>
        <pt x="416" y="751" on="1"/>
        <pt x="358" y="751" on="1"/>
        <pt x="236" y="867" on="1"/>
        <pt x="284" y="912" on="1"/>
      </contour>
    </TTGlyph>
    <TTGlyph name="Delta" xMin="-30" yMin="0" xMax="595" yMax="720">
      <contour>
        <pt x="-18" y="71" on="1"/>
        <pt x="343" y="720" on="1"/>
        <pt x="439" y="720" on="1"/>
        <pt x="595" y="70" on="1"/>
        <pt x="583" y="0" on="1"/>
        <pt x="-30" y="0" on="1"/>
      </contour>
      <contour>
        <pt x="369" y="607" on="1"/>
        <pt x="79" y="80" on="1"/>
        <pt x="491" y="80" on="1"/>
      </contour>
    </TTGlyph>
    <TTGlyph name="E" xMin="5" yMin="0" xMax="603" yMax="700">
      <contour>
        <pt x="103" y="80" on="1"/>
        <pt x="189" y="620" on="1"/>
        <pt x="107" y="640" on="1"/>
        <pt x="116" y="695" on="1"/>
        <pt x="302" y="700" on="1"/>
        <pt x="603" y="700" on="1"/>
        <pt x="576" y="530" on="1"/>
        <pt x="520" y="530" on="1"/>
        <pt x="510" y="620" on="1"/>
        <pt x="289" y="620" on="1"/>
        <pt x="254" y="405" on="1"/>
        <pt x="482" y="405" on="1"/>
        <pt x="470" y="325" on="1"/>
        <pt x="242" y="325" on="1"/>
        <pt x="203" y="80" on="1"/>
        <pt x="430" y="80" on="1"/>
        <pt x="467" y="182" on="1"/>
        <pt x="533" y="182" on="1"/>
        <pt x="502" y="0" on="1"/>
        <pt x="5" y="0" on="1"/>
        <pt x="15" y="60" on="1"/>
      </contour>
    </TTGlyph>
    <TTGlyph name="Eacute" xMin="3" yMin="0" xMax="601" yMax="920">
      <contour>
        <pt x="101" y="80" on="1"/>
        <pt x="187" y="620" on="1"/>
        <pt x="105" y="640" on="1"/>
        <pt x="114" y="695" on="1"/>
        <pt x="300" y="700" on="1"/>
        <pt x="601" y="700" on="1"/>
        <pt x="574" y="530" on="1"/>
        <pt x="518" y="530" on="1"/>
        <pt x="508" y="620" on="1"/>
        <pt x="287" y="620" on="1"/>
        <pt x="252" y="405" on="1"/>
        <pt x="480" y="405" on="1"/>
        <pt x="468" y="325" on="1"/>
        <pt x="240" y="325" on="1"/>
        <pt x="201" y="80" on="1"/>
        <pt x="428" y="80" on="1"/>
        <pt x="465" y="182" on="1"/>
        <pt x="531" y="182" on="1"/>
        <pt x="500" y="0" on="1"/>
        <pt x="3" y="0" on="1"/>
        <pt x="13" y="60" on="1"/>
      </contour>
      <contour>
        <pt x="569" y="841" on="1"/>
        <pt x="341" y="746" on="1"/>
        <pt x="314" y="801" on="1"/>
        <pt x="532" y="920" on="1"/>
      </contour>
    </TTGlyph>
    <TTGlyph name="Ebreve" xMin="5" yMin="0" xMax="603" yMax="905">
      <contour>
        <pt x="103" y="80" on="1"/>
        <pt x="189" y="620" on="1"/>
        <pt x="107" y="640" on="1"/>
        <pt x="116" y="695" on="1"/>
        <pt x="302" y="700" on="1"/>
        <pt x="603" y="700" on="1"/>
        <pt x="576" y="530" on="1"/>
        <pt x="520" y="530" on="1"/>
        <pt x="510" y="620" on="1"/>
        <pt x="289" y="620" on="1"/>
        <pt x="254" y="405" on="1"/>
        <pt x="482" y="405" on="1"/>
        <pt x="470" y="325" on="1"/>
        <pt x="242" y="325" on="1"/>
        <pt x="203" y="80" on="1"/>
        <pt x="430" y="80" on="1"/>
        <pt x="467" y="182" on="1"/>
        <pt x="533" y="182" on="1"/>
        <pt x="502" y="0" on="1"/>
        <pt x="5" y="0" on="1"/>
        <pt x="15" y="60" on="1"/>
      </contour>
      <contour>
        <pt x="511" y="900" on="1"/>
        <pt x="570" y="905" on="1"/>
        <pt x="560" y="839" on="0"/>
        <pt x="465" y="755" on="0"/>
        <pt x="357" y="755" on="0"/>
        <pt x="294" y="824" on="0"/>
        <pt x="294" y="874" on="1"/>
        <pt x="296" y="900" on="1"/>
        <pt x="355" y="905" on="1"/>
        <pt x="355" y="873" on="0"/>
        <pt x="391" y="830" on="0"/>
        <pt x="454" y="830" on="0"/>
        <pt x="499" y="865" on="0"/>
        <pt x="505" y="882" on="1"/>
      </contour>
    </TTGlyph>
    <TTGlyph name="Ecaron" xMin="5" yMin="0" xMax="608" yMax="912">
      <contour>
        <pt x="103" y="80" on="1"/>
        <pt x="189" y="620" on="1"/>
        <pt x="107" y="640" on="1"/>
        <pt x="116" y="695" on="1"/>
        <pt x="302" y="700" on="1"/>
        <pt x="603" y="700" on="1"/>
        <pt x="576" y="530" on="1"/>
        <pt x="520" y="530" on="1"/>
        <pt x="510" y="620" on="1"/>
        <pt x="289" y="620" on="1"/>
        <pt x="254" y="405" on="1"/>
        <pt x="482" y="405" on="1"/>
        <pt x="470" y="325" on="1"/>
        <pt x="242" y="325" on="1"/>
        <pt x="203" y="80" on="1"/>
        <pt x="430" y="80" on="1"/>
        <pt x="467" y="182" on="1"/>
        <pt x="533" y="182" on="1"/>
        <pt x="502" y="0" on="1"/>
        <pt x="5" y="0" on="1"/>
        <pt x="15" y="60" on="1"/>
      </contour>
      <contour>
        <pt x="432" y="826" on="1"/>
        <pt x="581" y="912" on="1"/>
        <pt x="608" y="867" on="1"/>
        <pt x="449" y="751" on="1"/>
        <pt x="391" y="751" on="1"/>
        <pt x="269" y="867" on="1"/>
        <pt x="317" y="912" on="1"/>
      </contour>
    </TTGlyph>
    <TTGlyph name="Ecircumflex" xMin="5" yMin="0" xMax="603" yMax="910">
      <contour>
        <pt x="103" y="80" on="1"/>
        <pt x="189" y="620" on="1"/>
        <pt x="107" y="640" on="1"/>
        <pt x="116" y="695" on="1"/>
        <pt x="302" y="700" on="1"/>
        <pt x="603" y="700" on="1"/>
        <pt x="576" y="530" on="1"/>
        <pt x="520" y="530" on="1"/>
        <pt x="510" y="620" on="1"/>
        <pt x="289" y="620" on="1"/>
        <pt x="254" y="405" on="1"/>
        <pt x="482" y="405" on="1"/>
        <pt x="470" y="325" on="1"/>
        <pt x="242" y="325" on="1"/>
        <pt x="203" y="80" on="1"/>
        <pt x="430" y="80" on="1"/>
        <pt x="467" y="182" on="1"/>
        <pt x="533" y="182" on="1"/>
        <pt x="502" y="0" on="1"/>
        <pt x="5" y="0" on="1"/>
        <pt x="15" y="60" on="1"/>
      </contour>
      <contour>
        <pt x="518" y="750" on="1"/>
        <pt x="403" y="833" on="1"/>
        <pt x="254" y="750" on="1"/>
        <pt x="222" y="795" on="1"/>
        <pt x="383" y="905" on="1"/>
        <pt x="442" y="910" on="1"/>
        <pt x="565" y="795" on="1"/>
      </contour>
    </TTGlyph>
    <TTGlyph name="Edieresis" xMin="5" yMin="0" xMax="603" yMax="885">
      <contour>
        <pt x="103" y="80" on="1"/>
        <pt x="189" y="620" on="1"/>
        <pt x="107" y="640" on="1"/>
        <pt x="116" y="695" on="1"/>
        <pt x="302" y="700" on="1"/>
        <pt x="603" y="700" on="1"/>
        <pt x="576" y="530" on="1"/>
        <pt x="520" y="530" on="1"/>
        <pt x="510" y="620" on="1"/>
        <pt x="289" y="620" on="1"/>
        <pt x="254" y="405" on="1"/>
        <pt x="482" y="405" on="1"/>
        <pt x="470" y="325" on="1"/>
        <pt x="242" y="325" on="1"/>
        <pt x="203" y="80" on="1"/>
        <pt x="430" y="80" on="1"/>
        <pt x="467" y="182" on="1"/>
        <pt x="533" y="182" on="1"/>
        <pt x="502" y="0" on="1"/>
        <pt x="5" y="0" on="1"/>
        <pt x="15" y="60" on="1"/>
      </contour>
      <contour>
        <pt x="486" y="765" on="1"/>
        <pt x="441" y="765" on="0"/>
        <pt x="441" y="815" on="1"/>
        <pt x="441" y="841" on="0"/>
        <pt x="477" y="885" on="0"/>
        <pt x="505" y="885" on="1"/>
        <pt x="551" y="885" on="0"/>
        <pt x="551" y="839" on="1"/>
        <pt x="551" y="809" on="0"/>
        <pt x="513" y="765" on="0"/>
      </contour>
      <contour>
        <pt x="285" y="765" on="1"/>
        <pt x="240" y="765" on="0"/>
        <pt x="240" y="815" on="1"/>
        <pt x="240" y="841" on="0"/>
        <pt x="276" y="885" on="0"/>
        <pt x="304" y="885" on="1"/>
        <pt x="350" y="885" on="0"/>
        <pt x="350" y="839" on="1"/>
        <pt x="350" y="809" on="0"/>
        <pt x="312" y="765" on="0"/>
      </contour>
    </TTGlyph>
    <TTGlyph name="Edotaccent" xMin="5" yMin="0" xMax="603" yMax="905">
      <contour>
        <pt x="103" y="80" on="1"/>
        <pt x="189" y="620" on="1"/>
        <pt x="107" y="640" on="1"/>
        <pt x="116" y="695" on="1"/>
        <pt x="302" y="700" on="1"/>
        <pt x="603" y="700" on="1"/>
        <pt x="576" y="530" on="1"/>
        <pt x="520" y="530" on="1"/>
        <pt x="510" y="620" on="1"/>
        <pt x="289" y="620" on="1"/>
        <pt x="254" y="405" on="1"/>
        <pt x="482" y="405" on="1"/>
        <pt x="470" y="325" on="1"/>
        <pt x="242" y="325" on="1"/>
        <pt x="203" y="80" on="1"/>
        <pt x="430" y="80" on="1"/>
        <pt x="467" y="182" on="1"/>
        <pt x="533" y="182" on="1"/>
        <pt x="502" y="0" on="1"/>
        <pt x="5" y="0" on="1"/>
        <pt x="15" y="60" on="1"/>
      </contour>
      <contour>
        <pt x="488" y="817" on="0"/>
        <pt x="451" y="765" on="0"/>
        <pt x="393" y="765" on="0"/>
        <pt x="363" y="792" on="0"/>
        <pt x="363" y="853" on="0"/>
        <pt x="400" y="905" on="0"/>
        <pt x="458" y="905" on="0"/>
        <pt x="488" y="878" on="0"/>
      </contour>
    </TTGlyph>
    <TTGlyph name="Egrave" xMin="5" yMin="0" xMax="603" yMax="921">
      <contour>
        <pt x="103" y="80" on="1"/>
        <pt x="189" y="620" on="1"/>
        <pt x="107" y="640" on="1"/>
        <pt x="116" y="695" on="1"/>
        <pt x="302" y="700" on="1"/>
        <pt x="603" y="700" on="1"/>
        <pt x="576" y="530" on="1"/>
        <pt x="520" y="530" on="1"/>
        <pt x="510" y="620" on="1"/>
        <pt x="289" y="620" on="1"/>
        <pt x="254" y="405" on="1"/>
        <pt x="482" y="405" on="1"/>
        <pt x="470" y="325" on="1"/>
        <pt x="242" y="325" on="1"/>
        <pt x="203" y="80" on="1"/>
        <pt x="430" y="80" on="1"/>
        <pt x="467" y="182" on="1"/>
        <pt x="533" y="182" on="1"/>
        <pt x="502" y="0" on="1"/>
        <pt x="5" y="0" on="1"/>
        <pt x="15" y="60" on="1"/>
      </contour>
      <contour>
        <pt x="472" y="744" on="1"/>
        <pt x="244" y="842" on="1"/>
        <pt x="281" y="921" on="1"/>
        <pt x="499" y="799" on="1"/>
      </contour>
    </TTGlyph>
    <TTGlyph name="Emacron" xMin="5" yMin="0" xMax="603" yMax="855">
      <component glyphName="E" x="0" y="0" flags="0x1004"/>
      <component glyphName="macron" x="265" y="120" flags="0x1004"/>
    </TTGlyph>
    <TTGlyph name="Eogonek" xMin="5" yMin="-220" xMax="603" yMax="700">
      <contour>
        <pt x="103" y="80" on="1"/>
        <pt x="189" y="620" on="1"/>
        <pt x="107" y="640" on="1"/>
        <pt x="116" y="695" on="1"/>
        <pt x="302" y="700" on="1"/>
        <pt x="603" y="700" on="1"/>
        <pt x="576" y="530" on="1"/>
        <pt x="520" y="530" on="1"/>
        <pt x="510" y="620" on="1"/>
        <pt x="289" y="620" on="1"/>
        <pt x="254" y="405" on="1"/>
        <pt x="482" y="405" on="1"/>
        <pt x="470" y="325" on="1"/>
        <pt x="242" y="325" on="1"/>
        <pt x="203" y="80" on="1"/>
        <pt x="430" y="80" on="1"/>
        <pt x="467" y="182" on="1"/>
        <pt x="533" y="182" on="1"/>
        <pt x="502" y="0" on="1"/>
        <pt x="5" y="0" on="1"/>
        <pt x="15" y="60" on="1"/>
      </contour>
      <contour>
        <pt x="365" y="0" on="1"/>
        <pt x="443" y="0" on="1"/>
        <pt x="438" y="-3" on="0"/>
        <pt x="422" y="-12" on="0"/>
        <pt x="382" y="-42" on="0"/>
        <pt x="366" y="-56" on="1"/>
        <pt x="325" y="-93" on="0"/>
        <pt x="325" y="-124" on="1"/>
        <pt x="325" y="-141" on="0"/>
        <pt x="346" y="-160" on="0"/>
        <pt x="363" y="-160" on="1"/>
        <pt x="409" y="-153" on="1"/>
        <pt x="411" y="-200" on="1"/>
        <pt x="369" y="-220" on="0"/>
        <pt x="293" y="-220" on="0"/>
        <pt x="245" y="-180" on="0"/>
        <pt x="245" y="-105" on="0"/>
        <pt x="305" y="-33" on="0"/>
        <pt x="335" y="-16" on="1"/>
      </contour>
    </TTGlyph>
    <TTGlyph name="Eth" xMin="30" yMin="0" xMax="705" yMax="700">
      <contour>
        <pt x="82" y="325" on="1"/>
        <pt x="95" y="405" on="1"/>
        <pt x="178" y="405" on="1"/>
        <pt x="213" y="620" on="1"/>
        <pt x="132" y="640" on="1"/>
        <pt x="141" y="695" on="1"/>
        <pt x="326" y="700" on="1"/>
        <pt x="455" y="700" on="1"/>
        <pt x="567" y="700" on="0"/>
        <pt x="705" y="574" on="0"/>
        <pt x="705" y="465" on="1"/>
        <pt x="705" y="243" on="0"/>
        <pt x="485" y="0" on="0"/>
        <pt x="295" y="0" on="1"/>
        <pt x="30" y="0" on="1"/>
        <pt x="40" y="60" on="1"/>
        <pt x="126" y="79" on="1"/>
        <pt x="166" y="325" on="1"/>
      </contour>
      <contour>
        <pt x="420" y="325" on="1"/>
        <pt x="267" y="325" on="1"/>
        <pt x="228" y="80" on="1"/>
        <pt x="310" y="80" on="1"/>
        <pt x="446" y="80" on="0"/>
        <pt x="600" y="284" on="0"/>
        <pt x="600" y="452" on="1"/>
        <pt x="600" y="532" on="0"/>
        <pt x="518" y="620" on="0"/>
        <pt x="440" y="620" on="1"/>
        <pt x="314" y="620" on="1"/>
        <pt x="279" y="405" on="1"/>
        <pt x="431" y="405" on="1"/>
      </contour>
    </TTGlyph>
    <TTGlyph name="Etilde" xMin="5" yMin="0" xMax="604" yMax="890">
      <contour>
        <pt x="103" y="80" on="1"/>
        <pt x="189" y="620" on="1"/>
        <pt x="107" y="640" on="1"/>
        <pt x="116" y="695" on="1"/>
        <pt x="302" y="700" on="1"/>
        <pt x="603" y="700" on="1"/>
        <pt x="576" y="530" on="1"/>
        <pt x="520" y="530" on="1"/>
        <pt x="510" y="620" on="1"/>
        <pt x="289" y="620" on="1"/>
        <pt x="254" y="405" on="1"/>
        <pt x="482" y="405" on="1"/>
        <pt x="470" y="325" on="1"/>
        <pt x="242" y="325" on="1"/>
        <pt x="203" y="80" on="1"/>
        <pt x="430" y="80" on="1"/>
        <pt x="467" y="182" on="1"/>
        <pt x="533" y="182" on="1"/>
        <pt x="502" y="0" on="1"/>
        <pt x="5" y="0" on="1"/>
        <pt x="15" y="60" on="1"/>
      </contour>
      <contour>
        <pt x="246" y="766" on="1"/>
        <pt x="217" y="796" on="1"/>
        <pt x="222" y="805" on="0"/>
        <pt x="253" y="845" on="0"/>
        <pt x="267" y="858" on="1"/>
        <pt x="303" y="890" on="0"/>
        <pt x="375" y="890" on="0"/>
        <pt x="476" y="844" on="0"/>
        <pt x="522" y="844" on="0"/>
        <pt x="557" y="865" on="0"/>
        <pt x="566" y="876" on="1"/>
        <pt x="574" y="886" on="1"/>
        <pt x="604" y="856" on="1"/>
        <pt x="590" y="827" on="0"/>
        <pt x="567" y="806" on="1"/>
        <pt x="523" y="766" on="0"/>
        <pt x="451" y="766" on="0"/>
        <pt x="350" y="810" on="0"/>
        <pt x="328" y="810" on="1"/>
        <pt x="288" y="810" on="0"/>
        <pt x="256" y="777" on="1"/>
      </contour>
    </TTGlyph>
    <TTGlyph name="Euro" xMin="43" yMin="-10" xMax="648" yMax="710">
      <contour>
        <pt x="65" y="380" on="1"/>
        <pt x="76" y="450" on="1"/>
        <pt x="142" y="450" on="1"/>
        <pt x="183" y="571" on="0"/>
        <pt x="353" y="710" on="0"/>
        <pt x="463" y="710" on="1"/>
        <pt x="507" y="710" on="0"/>
        <pt x="600" y="688" on="0"/>
        <pt x="624" y="678" on="1"/>
        <pt x="648" y="667" on="1"/>
        <pt x="618" y="509" on="1"/>
        <pt x="567" y="509" on="1"/>
        <pt x="555" y="609" on="1"/>
        <pt x="497" y="625" on="0"/>
        <pt x="380" y="625" on="0"/>
        <pt x="281" y="530" on="0"/>
        <pt x="252" y="450" on="1"/>
        <pt x="497" y="450" on="1"/>
        <pt x="486" y="380" on="1"/>
      </contour>
      <contour>
        <pt x="43" y="239" on="1"/>
        <pt x="54" y="310" on="1"/>
        <pt x="475" y="310" on="1"/>
        <pt x="464" y="240" on="1"/>
        <pt x="220" y="240" on="1"/>
        <pt x="227" y="78" on="0"/>
        <pt x="353" y="78" on="1"/>
        <pt x="396" y="78" on="0"/>
        <pt x="492" y="114" on="0"/>
        <pt x="518" y="132" on="1"/>
        <pt x="545" y="151" on="1"/>
        <pt x="576" y="97" on="1"/>
        <pt x="562" y="83" on="0"/>
        <pt x="503" y="41" on="0"/>
        <pt x="476" y="27" on="1"/>
        <pt x="403" y="-10" on="0"/>
        <pt x="330" y="-10" on="1"/>
        <pt x="224" y="-10" on="0"/>
        <pt x="110" y="127" on="0"/>
        <pt x="110" y="239" on="1"/>
      </contour>
    </TTGlyph>
    <TTGlyph name="F" xMin="5" yMin="0" xMax="603" yMax="700">
      <contour>
        <pt x="289" y="620" on="1"/>
        <pt x="252" y="395" on="1"/>
        <pt x="481" y="395" on="1"/>
        <pt x="469" y="315" on="1"/>
        <pt x="241" y="315" on="1"/>
        <pt x="203" y="80" on="1"/>
        <pt x="301" y="60" on="1"/>
        <pt x="291" y="0" on="1"/>
        <pt x="5" y="0" on="1"/>
        <pt x="15" y="60" on="1"/>
        <pt x="103" y="80" on="1"/>
        <pt x="190" y="620" on="1"/>
        <pt x="107" y="640" on="1"/>
        <pt x="116" y="695" on="1"/>
        <pt x="302" y="700" on="1"/>
        <pt x="603" y="700" on="1"/>
        <pt x="576" y="530" on="1"/>
        <pt x="520" y="530" on="1"/>
        <pt x="510" y="620" on="1"/>
      </contour>
    </TTGlyph>
    <TTGlyph name="G" xMin="60" yMin="-10" xMax="714" yMax="710">
      <contour>
        <pt x="592" y="50" on="1"/>
        <pt x="463" y="-10" on="0"/>
        <pt x="201" y="-10" on="0"/>
        <pt x="60" y="129" on="0"/>
        <pt x="60" y="244" on="1"/>
        <pt x="60" y="449" on="0"/>
        <pt x="282" y="710" on="0"/>
        <pt x="452" y="710" on="1"/>
        <pt x="501" y="710" on="0"/>
        <pt x="606" y="685" on="0"/>
        <pt x="634" y="672" on="1"/>
        <pt x="663" y="660" on="1"/>
        <pt x="636" y="499" on="1"/>
        <pt x="578" y="499" on="1"/>
        <pt x="566" y="603" on="1"/>
        <pt x="511" y="625" on="0"/>
        <pt x="358" y="625" on="0"/>
        <pt x="234" y="521" on="0"/>
        <pt x="170" y="356" on="0"/>
        <pt x="170" y="175" on="0"/>
        <pt x="259" y="76" on="0"/>
        <pt x="431" y="76" on="0"/>
        <pt x="503" y="103" on="1"/>
        <pt x="530" y="270" on="1"/>
        <pt x="445" y="285" on="1"/>
        <pt x="454" y="340" on="1"/>
        <pt x="714" y="345" on="1"/>
        <pt x="704" y="285" on="1"/>
        <pt x="627" y="270" on="1"/>
      </contour>
    </TTGlyph>
    <TTGlyph name="Gbreve" xMin="60" yMin="-10" xMax="714" yMax="905">
      <contour>
        <pt x="201" y="-10" on="0"/>
        <pt x="60" y="129" on="0"/>
        <pt x="60" y="244" on="1"/>
        <pt x="60" y="449" on="0"/>
        <pt x="282" y="710" on="0"/>
        <pt x="452" y="710" on="1"/>
        <pt x="501" y="710" on="0"/>
        <pt x="632" y="677" on="0"/>
        <pt x="663" y="660" on="1"/>
        <pt x="636" y="499" on="1"/>
        <pt x="578" y="499" on="1"/>
        <pt x="566" y="603" on="1"/>
        <pt x="511" y="625" on="0"/>
        <pt x="358" y="625" on="0"/>
        <pt x="234" y="521" on="0"/>
        <pt x="170" y="356" on="0"/>
        <pt x="170" y="175" on="0"/>
        <pt x="259" y="76" on="0"/>
        <pt x="431" y="76" on="0"/>
        <pt x="503" y="103" on="1"/>
        <pt x="530" y="270" on="1"/>
        <pt x="445" y="285" on="1"/>
        <pt x="454" y="340" on="1"/>
        <pt x="714" y="345" on="1"/>
        <pt x="704" y="285" on="1"/>
        <pt x="627" y="270" on="1"/>
        <pt x="592" y="50" on="1"/>
        <pt x="463" y="-10" on="0"/>
      </contour>
      <contour>
        <pt x="562" y="900" on="1"/>
        <pt x="621" y="905" on="1"/>
        <pt x="611" y="839" on="0"/>
        <pt x="516" y="755" on="0"/>
        <pt x="408" y="755" on="0"/>
        <pt x="345" y="824" on="0"/>
        <pt x="345" y="874" on="1"/>
        <pt x="347" y="900" on="1"/>
        <pt x="406" y="905" on="1"/>
        <pt x="406" y="873" on="0"/>
        <pt x="442" y="830" on="0"/>
        <pt x="505" y="830" on="0"/>
        <pt x="550" y="865" on="0"/>
        <pt x="556" y="882" on="1"/>
      </contour>
    </TTGlyph>
    <TTGlyph name="Gcircumflex" xMin="60" yMin="-10" xMax="714" yMax="910">
      <contour>
        <pt x="201" y="-10" on="0"/>
        <pt x="60" y="129" on="0"/>
        <pt x="60" y="244" on="1"/>
        <pt x="60" y="449" on="0"/>
        <pt x="282" y="710" on="0"/>
        <pt x="452" y="710" on="1"/>
        <pt x="501" y="710" on="0"/>
        <pt x="632" y="677" on="0"/>
        <pt x="663" y="660" on="1"/>
        <pt x="636" y="499" on="1"/>
        <pt x="578" y="499" on="1"/>
        <pt x="566" y="603" on="1"/>
        <pt x="511" y="625" on="0"/>
        <pt x="358" y="625" on="0"/>
        <pt x="234" y="521" on="0"/>
        <pt x="170" y="356" on="0"/>
        <pt x="170" y="175" on="0"/>
        <pt x="259" y="76" on="0"/>
        <pt x="431" y="76" on="0"/>
        <pt x="503" y="103" on="1"/>
        <pt x="530" y="270" on="1"/>
        <pt x="445" y="285" on="1"/>
        <pt x="454" y="340" on="1"/>
        <pt x="714" y="345" on="1"/>
        <pt x="704" y="285" on="1"/>
        <pt x="627" y="270" on="1"/>
        <pt x="592" y="50" on="1"/>
        <pt x="463" y="-10" on="0"/>
      </contour>
      <contour>
        <pt x="604" y="750" on="1"/>
        <pt x="489" y="833" on="1"/>
        <pt x="340" y="750" on="1"/>
        <pt x="308" y="795" on="1"/>
        <pt x="469" y="905" on="1"/>
        <pt x="528" y="910" on="1"/>
        <pt x="651" y="795" on="1"/>
      </contour>
    </TTGlyph>
    <TTGlyph name="Gcommaaccent" xMin="60" yMin="-270" xMax="714" yMax="710">
      <contour>
        <pt x="592" y="50" on="1"/>
        <pt x="463" y="-10" on="0"/>
        <pt x="201" y="-10" on="0"/>
        <pt x="60" y="129" on="0"/>
        <pt x="60" y="244" on="1"/>
        <pt x="60" y="449" on="0"/>
        <pt x="282" y="710" on="0"/>
        <pt x="452" y="710" on="1"/>
        <pt x="501" y="710" on="0"/>
        <pt x="606" y="685" on="0"/>
        <pt x="634" y="672" on="1"/>
        <pt x="663" y="660" on="1"/>
        <pt x="636" y="499" on="1"/>
        <pt x="578" y="499" on="1"/>
        <pt x="566" y="603" on="1"/>
        <pt x="511" y="625" on="0"/>
        <pt x="358" y="625" on="0"/>
        <pt x="234" y="521" on="0"/>
        <pt x="170" y="356" on="0"/>
        <pt x="170" y="175" on="0"/>
        <pt x="259" y="76" on="0"/>
        <pt x="431" y="76" on="0"/>
        <pt x="503" y="103" on="1"/>
        <pt x="530" y="270" on="1"/>
        <pt x="445" y="285" on="1"/>
        <pt x="454" y="340" on="1"/>
        <pt x="714" y="345" on="1"/>
        <pt x="704" y="285" on="1"/>
        <pt x="627" y="270" on="1"/>
      </contour>
      <contour>
        <pt x="309" y="-150" on="1"/>
        <pt x="307" y="-106" on="1"/>
        <pt x="307" y="-76" on="0"/>
        <pt x="332" y="-37" on="0"/>
        <pt x="358" y="-37" on="1"/>
        <pt x="405" y="-37" on="0"/>
        <pt x="405" y="-85" on="1"/>
        <pt x="405" y="-122" on="0"/>
        <pt x="350" y="-214" on="0"/>
        <pt x="323" y="-242" on="1"/>
        <pt x="296" y="-270" on="1"/>
        <pt x="268" y="-245" on="1"/>
        <pt x="292" y="-215" on="0"/>
        <pt x="309" y="-180" on="0"/>
      </contour>
    </TTGlyph>
    <TTGlyph name="Gdotaccent" xMin="60" yMin="-10" xMax="714" yMax="905">
      <component glyphName="G" x="0" y="0" flags="0x1004"/>
      <component glyphName="dotaccent" x="411" y="140" flags="0x1004"/>
    </TTGlyph>
    <TTGlyph name="Gtilde" xMin="60" yMin="-10" xMax="714" yMax="890">
      <contour>
        <pt x="201" y="-10" on="0"/>
        <pt x="60" y="129" on="0"/>
        <pt x="60" y="244" on="1"/>
        <pt x="60" y="449" on="0"/>
        <pt x="282" y="710" on="0"/>
        <pt x="452" y="710" on="1"/>
        <pt x="501" y="710" on="0"/>
        <pt x="632" y="677" on="0"/>
        <pt x="663" y="660" on="1"/>
        <pt x="636" y="499" on="1"/>
        <pt x="578" y="499" on="1"/>
        <pt x="566" y="603" on="1"/>
        <pt x="511" y="625" on="0"/>
        <pt x="358" y="625" on="0"/>
        <pt x="234" y="521" on="0"/>
        <pt x="170" y="356" on="0"/>
        <pt x="170" y="175" on="0"/>
        <pt x="259" y="76" on="0"/>
        <pt x="431" y="76" on="0"/>
        <pt x="503" y="103" on="1"/>
        <pt x="530" y="270" on="1"/>
        <pt x="445" y="285" on="1"/>
        <pt x="454" y="340" on="1"/>
        <pt x="714" y="345" on="1"/>
        <pt x="704" y="285" on="1"/>
        <pt x="627" y="270" on="1"/>
        <pt x="592" y="50" on="1"/>
        <pt x="463" y="-10" on="0"/>
      </contour>
      <contour>
        <pt x="288" y="766" on="1"/>
        <pt x="259" y="796" on="1"/>
        <pt x="264" y="805" on="0"/>
        <pt x="295" y="845" on="0"/>
        <pt x="309" y="858" on="1"/>
        <pt x="345" y="890" on="0"/>
        <pt x="417" y="890" on="0"/>
        <pt x="518" y="844" on="0"/>
        <pt x="564" y="844" on="0"/>
        <pt x="599" y="865" on="0"/>
        <pt x="608" y="876" on="1"/>
        <pt x="616" y="886" on="1"/>
        <pt x="646" y="856" on="1"/>
        <pt x="632" y="827" on="0"/>
        <pt x="609" y="806" on="1"/>
        <pt x="565" y="766" on="0"/>
        <pt x="493" y="766" on="0"/>
        <pt x="392" y="810" on="0"/>
        <pt x="370" y="810" on="1"/>
        <pt x="330" y="810" on="0"/>
        <pt x="298" y="777" on="1"/>
      </contour>
    </TTGlyph>
    <TTGlyph name="H" xMin="10" yMin="0" xMax="815" yMax="700">
      <contour>
        <pt x="427" y="0" on="1"/>
        <pt x="437" y="60" on="1"/>
        <pt x="531" y="79" on="1"/>
        <pt x="570" y="320" on="1"/>
        <pt x="244" y="320" on="1"/>
        <pt x="206" y="80" on="1"/>
        <pt x="293" y="60" on="1"/>
        <pt x="283" y="0" on="1"/>
        <pt x="10" y="0" on="1"/>
        <pt x="20" y="60" on="1"/>
        <pt x="106" y="79" on="1"/>
        <pt x="193" y="620" on="1"/>
        <pt x="111" y="640" on="1"/>
        <pt x="120" y="695" on="1"/>
        <pt x="395" y="700" on="1"/>
        <pt x="385" y="640" on="1"/>
        <pt x="293" y="620" on="1"/>
        <pt x="257" y="400" on="1"/>
        <pt x="583" y="400" on="1"/>
        <pt x="618" y="620" on="1"/>
        <pt x="527" y="640" on="1"/>
        <pt x="536" y="695" on="1"/>
        <pt x="815" y="700" on="1"/>
        <pt x="805" y="640" on="1"/>
        <pt x="718" y="620" on="1"/>
        <pt x="631" y="80" on="1"/>
        <pt x="715" y="60" on="1"/>
        <pt x="705" y="0" on="1"/>
      </contour>
    </TTGlyph>
    <TTGlyph name="Hcircumflex" xMin="10" yMin="0" xMax="815" yMax="910">
      <contour>
        <pt x="427" y="0" on="1"/>
        <pt x="437" y="60" on="1"/>
        <pt x="531" y="79" on="1"/>
        <pt x="570" y="320" on="1"/>
        <pt x="244" y="320" on="1"/>
        <pt x="206" y="80" on="1"/>
        <pt x="293" y="60" on="1"/>
        <pt x="283" y="0" on="1"/>
        <pt x="10" y="0" on="1"/>
        <pt x="20" y="60" on="1"/>
        <pt x="106" y="79" on="1"/>
        <pt x="193" y="620" on="1"/>
        <pt x="111" y="640" on="1"/>
        <pt x="120" y="695" on="1"/>
        <pt x="395" y="700" on="1"/>
        <pt x="385" y="640" on="1"/>
        <pt x="293" y="620" on="1"/>
        <pt x="257" y="400" on="1"/>
        <pt x="583" y="400" on="1"/>
        <pt x="618" y="620" on="1"/>
        <pt x="527" y="640" on="1"/>
        <pt x="536" y="695" on="1"/>
        <pt x="815" y="700" on="1"/>
        <pt x="805" y="640" on="1"/>
        <pt x="718" y="620" on="1"/>
        <pt x="631" y="80" on="1"/>
        <pt x="715" y="60" on="1"/>
        <pt x="705" y="0" on="1"/>
      </contour>
      <contour>
        <pt x="606" y="750" on="1"/>
        <pt x="491" y="833" on="1"/>
        <pt x="342" y="750" on="1"/>
        <pt x="310" y="795" on="1"/>
        <pt x="471" y="905" on="1"/>
        <pt x="530" y="910" on="1"/>
        <pt x="653" y="795" on="1"/>
      </contour>
    </TTGlyph>
    <TTGlyph name="I" xMin="10" yMin="0" xMax="394" yMax="700">
      <contour>
        <pt x="110" y="80" on="1"/>
        <pt x="196" y="620" on="1"/>
        <pt x="112" y="640" on="1"/>
        <pt x="121" y="695" on="1"/>
        <pt x="394" y="700" on="1"/>
        <pt x="384" y="640" on="1"/>
        <pt x="296" y="620" on="1"/>
        <pt x="209" y="80" on="1"/>
        <pt x="293" y="60" on="1"/>
        <pt x="283" y="0" on="1"/>
        <pt x="10" y="0" on="1"/>
        <pt x="20" y="60" on="1"/>
      </contour>
    </TTGlyph>
    <TTGlyph name="IJ" xMin="10" yMin="-150" xMax="706" yMax="700">
      <contour>
        <pt x="414" y="25" on="1"/>
        <pt x="509" y="620" on="1"/>
        <pt x="404" y="640" on="1"/>
        <pt x="296" y="620" on="1"/>
        <pt x="209" y="80" on="1"/>
        <pt x="293" y="60" on="1"/>
        <pt x="283" y="0" on="1"/>
        <pt x="10" y="0" on="1"/>
        <pt x="20" y="60" on="1"/>
        <pt x="110" y="80" on="1"/>
        <pt x="196" y="620" on="1"/>
        <pt x="112" y="640" on="1"/>
        <pt x="121" y="695" on="1"/>
        <pt x="706" y="700" on="1"/>
        <pt x="696" y="640" on="1"/>
        <pt x="609" y="620" on="1"/>
        <pt x="517" y="45" on="1"/>
        <pt x="503" y="-46" on="0"/>
        <pt x="389" y="-150" on="0"/>
        <pt x="302" y="-150" on="1"/>
        <pt x="240" y="-145" on="1"/>
        <pt x="261" y="-70" on="1"/>
        <pt x="310" y="-70" on="1"/>
        <pt x="400" y="-70" on="0"/>
      </contour>
    </TTGlyph>
    <TTGlyph name="Iacute" xMin="10" yMin="0" xMax="447" yMax="920">
      <contour>
        <pt x="110" y="80" on="1"/>
        <pt x="196" y="620" on="1"/>
        <pt x="112" y="640" on="1"/>
        <pt x="121" y="695" on="1"/>
        <pt x="394" y="700" on="1"/>
        <pt x="384" y="640" on="1"/>
        <pt x="296" y="620" on="1"/>
        <pt x="209" y="80" on="1"/>
        <pt x="293" y="60" on="1"/>
        <pt x="283" y="0" on="1"/>
        <pt x="10" y="0" on="1"/>
        <pt x="20" y="60" on="1"/>
      </contour>
      <contour>
        <pt x="447" y="841" on="1"/>
        <pt x="219" y="746" on="1"/>
        <pt x="192" y="801" on="1"/>
        <pt x="410" y="920" on="1"/>
      </contour>
    </TTGlyph>
    <TTGlyph name="Ibreve" xMin="10" yMin="0" xMax="416" yMax="905">
      <contour>
        <pt x="110" y="80" on="1"/>
        <pt x="196" y="620" on="1"/>
        <pt x="112" y="640" on="1"/>
        <pt x="121" y="695" on="1"/>
        <pt x="394" y="700" on="1"/>
        <pt x="384" y="640" on="1"/>
        <pt x="296" y="620" on="1"/>
        <pt x="209" y="80" on="1"/>
        <pt x="293" y="60" on="1"/>
        <pt x="283" y="0" on="1"/>
        <pt x="10" y="0" on="1"/>
        <pt x="20" y="60" on="1"/>
      </contour>
      <contour>
        <pt x="357" y="900" on="1"/>
        <pt x="416" y="905" on="1"/>
        <pt x="406" y="839" on="0"/>
        <pt x="311" y="755" on="0"/>
        <pt x="203" y="755" on="0"/>
        <pt x="140" y="824" on="0"/>
        <pt x="140" y="874" on="1"/>
        <pt x="142" y="900" on="1"/>
        <pt x="201" y="905" on="1"/>
        <pt x="201" y="873" on="0"/>
        <pt x="237" y="830" on="0"/>
        <pt x="300" y="830" on="0"/>
        <pt x="345" y="865" on="0"/>
        <pt x="351" y="882" on="1"/>
      </contour>
    </TTGlyph>
    <TTGlyph name="Icircumflex" xMin="10" yMin="0" xMax="438" yMax="910">
      <contour>
        <pt x="110" y="80" on="1"/>
        <pt x="196" y="620" on="1"/>
        <pt x="112" y="640" on="1"/>
        <pt x="121" y="695" on="1"/>
        <pt x="394" y="700" on="1"/>
        <pt x="384" y="640" on="1"/>
        <pt x="296" y="620" on="1"/>
        <pt x="209" y="80" on="1"/>
        <pt x="293" y="60" on="1"/>
        <pt x="283" y="0" on="1"/>
        <pt x="10" y="0" on="1"/>
        <pt x="20" y="60" on="1"/>
      </contour>
      <contour>
        <pt x="391" y="750" on="1"/>
        <pt x="281" y="833" on="1"/>
        <pt x="137" y="750" on="1"/>
        <pt x="105" y="795" on="1"/>
        <pt x="261" y="905" on="1"/>
        <pt x="320" y="910" on="1"/>
        <pt x="438" y="795" on="1"/>
      </contour>
    </TTGlyph>
    <TTGlyph name="Idieresis" xMin="10" yMin="0" xMax="432" yMax="885">
      <contour>
        <pt x="110" y="80" on="1"/>
        <pt x="196" y="620" on="1"/>
        <pt x="112" y="640" on="1"/>
        <pt x="121" y="695" on="1"/>
        <pt x="394" y="700" on="1"/>
        <pt x="384" y="640" on="1"/>
        <pt x="296" y="620" on="1"/>
        <pt x="209" y="80" on="1"/>
        <pt x="293" y="60" on="1"/>
        <pt x="283" y="0" on="1"/>
        <pt x="10" y="0" on="1"/>
        <pt x="20" y="60" on="1"/>
      </contour>
      <contour>
        <pt x="367" y="765" on="1"/>
        <pt x="322" y="765" on="0"/>
        <pt x="322" y="815" on="1"/>
        <pt x="322" y="841" on="0"/>
        <pt x="358" y="885" on="0"/>
        <pt x="386" y="885" on="1"/>
        <pt x="432" y="885" on="0"/>
        <pt x="432" y="839" on="1"/>
        <pt x="432" y="809" on="0"/>
        <pt x="394" y="765" on="0"/>
      </contour>
      <contour>
        <pt x="166" y="765" on="1"/>
        <pt x="121" y="765" on="0"/>
        <pt x="121" y="815" on="1"/>
        <pt x="121" y="841" on="0"/>
        <pt x="157" y="885" on="0"/>
        <pt x="185" y="885" on="1"/>
        <pt x="231" y="885" on="0"/>
        <pt x="231" y="839" on="1"/>
        <pt x="231" y="809" on="0"/>
        <pt x="193" y="765" on="0"/>
      </contour>
    </TTGlyph>
    <TTGlyph name="Idotaccent" xMin="10" yMin="0" xMax="394" yMax="905">
      <contour>
        <pt x="110" y="80" on="1"/>
        <pt x="196" y="620" on="1"/>
        <pt x="112" y="640" on="1"/>
        <pt x="121" y="695" on="1"/>
        <pt x="394" y="700" on="1"/>
        <pt x="384" y="640" on="1"/>
        <pt x="296" y="620" on="1"/>
        <pt x="209" y="80" on="1"/>
        <pt x="293" y="60" on="1"/>
        <pt x="283" y="0" on="1"/>
        <pt x="10" y="0" on="1"/>
        <pt x="20" y="60" on="1"/>
      </contour>
      <contour>
        <pt x="337" y="817" on="0"/>
        <pt x="300" y="765" on="0"/>
        <pt x="242" y="765" on="0"/>
        <pt x="212" y="792" on="0"/>
        <pt x="212" y="853" on="0"/>
        <pt x="249" y="905" on="0"/>
        <pt x="307" y="905" on="0"/>
        <pt x="337" y="878" on="0"/>
      </contour>
    </TTGlyph>
    <TTGlyph name="Igrave" xMin="10" yMin="0" xMax="394" yMax="921">
      <contour>
        <pt x="110" y="80" on="1"/>
        <pt x="196" y="620" on="1"/>
        <pt x="112" y="640" on="1"/>
        <pt x="121" y="695" on="1"/>
        <pt x="394" y="700" on="1"/>
        <pt x="384" y="640" on="1"/>
        <pt x="296" y="620" on="1"/>
        <pt x="209" y="80" on="1"/>
        <pt x="293" y="60" on="1"/>
        <pt x="283" y="0" on="1"/>
        <pt x="10" y="0" on="1"/>
        <pt x="20" y="60" on="1"/>
      </contour>
      <contour>
        <pt x="341" y="744" on="1"/>
        <pt x="113" y="842" on="1"/>
        <pt x="150" y="921" on="1"/>
        <pt x="368" y="799" on="1"/>
      </contour>
    </TTGlyph>
    <TTGlyph name="Imacron" xMin="10" yMin="0" xMax="409" yMax="855">
      <contour>
        <pt x="110" y="80" on="1"/>
        <pt x="196" y="620" on="1"/>
        <pt x="112" y="640" on="1"/>
        <pt x="121" y="695" on="1"/>
        <pt x="394" y="700" on="1"/>
        <pt x="384" y="640" on="1"/>
        <pt x="296" y="620" on="1"/>
        <pt x="209" y="80" on="1"/>
        <pt x="293" y="60" on="1"/>
        <pt x="283" y="0" on="1"/>
        <pt x="10" y="0" on="1"/>
        <pt x="20" y="60" on="1"/>
      </contour>
      <contour>
        <pt x="134" y="780" on="1"/>
        <pt x="145" y="855" on="1"/>
        <pt x="409" y="855" on="1"/>
        <pt x="398" y="780" on="1"/>
      </contour>
    </TTGlyph>
    <TTGlyph name="Iogonek" xMin="5" yMin="-220" xMax="403" yMax="700">
      <contour>
        <pt x="119" y="80" on="1"/>
        <pt x="205" y="620" on="1"/>
        <pt x="121" y="640" on="1"/>
        <pt x="130" y="695" on="1"/>
        <pt x="403" y="700" on="1"/>
        <pt x="393" y="640" on="1"/>
        <pt x="305" y="620" on="1"/>
        <pt x="218" y="80" on="1"/>
        <pt x="302" y="60" on="1"/>
        <pt x="292" y="0" on="1"/>
        <pt x="19" y="0" on="1"/>
        <pt x="29" y="60" on="1"/>
      </contour>
      <contour>
        <pt x="125" y="0" on="1"/>
        <pt x="203" y="0" on="1"/>
        <pt x="198" y="-3" on="0"/>
        <pt x="182" y="-12" on="0"/>
        <pt x="142" y="-42" on="0"/>
        <pt x="126" y="-56" on="1"/>
        <pt x="85" y="-93" on="0"/>
        <pt x="85" y="-124" on="1"/>
        <pt x="85" y="-141" on="0"/>
        <pt x="106" y="-160" on="0"/>
        <pt x="123" y="-160" on="1"/>
        <pt x="169" y="-153" on="1"/>
        <pt x="171" y="-200" on="1"/>
        <pt x="129" y="-220" on="0"/>
        <pt x="53" y="-220" on="0"/>
        <pt x="5" y="-180" on="0"/>
        <pt x="5" y="-105" on="0"/>
        <pt x="65" y="-33" on="0"/>
        <pt x="95" y="-16" on="1"/>
      </contour>
    </TTGlyph>
    <TTGlyph name="Itilde" xMin="10" yMin="0" xMax="457" yMax="890">
      <contour>
        <pt x="110" y="80" on="1"/>
        <pt x="196" y="620" on="1"/>
        <pt x="112" y="640" on="1"/>
        <pt x="121" y="695" on="1"/>
        <pt x="394" y="700" on="1"/>
        <pt x="384" y="640" on="1"/>
        <pt x="296" y="620" on="1"/>
        <pt x="209" y="80" on="1"/>
        <pt x="293" y="60" on="1"/>
        <pt x="283" y="0" on="1"/>
        <pt x="10" y="0" on="1"/>
        <pt x="20" y="60" on="1"/>
      </contour>
      <contour>
        <pt x="99" y="766" on="1"/>
        <pt x="70" y="796" on="1"/>
        <pt x="75" y="805" on="0"/>
        <pt x="106" y="845" on="0"/>
        <pt x="120" y="858" on="1"/>
        <pt x="156" y="890" on="0"/>
        <pt x="228" y="890" on="0"/>
        <pt x="329" y="844" on="0"/>
        <pt x="375" y="844" on="0"/>
        <pt x="410" y="865" on="0"/>
        <pt x="418" y="876" on="1"/>
        <pt x="427" y="886" on="1"/>
        <pt x="457" y="856" on="1"/>
        <pt x="442" y="827" on="0"/>
        <pt x="420" y="806" on="1"/>
        <pt x="376" y="766" on="0"/>
        <pt x="304" y="766" on="0"/>
        <pt x="203" y="810" on="0"/>
        <pt x="180" y="810" on="1"/>
        <pt x="141" y="810" on="0"/>
        <pt x="110" y="777" on="1"/>
      </contour>
    </TTGlyph>
    <TTGlyph name="J" xMin="-85" yMin="-150" xMax="381" yMax="700">
      <contour>
        <pt x="89" y="25" on="1"/>
        <pt x="184" y="620" on="1"/>
        <pt x="99" y="640" on="1"/>
        <pt x="108" y="695" on="1"/>
        <pt x="381" y="700" on="1"/>
        <pt x="371" y="640" on="1"/>
        <pt x="284" y="620" on="1"/>
        <pt x="192" y="45" on="1"/>
        <pt x="178" y="-46" on="0"/>
        <pt x="64" y="-150" on="0"/>
        <pt x="-23" y="-150" on="1"/>
        <pt x="-85" y="-145" on="1"/>
        <pt x="-64" y="-70" on="1"/>
        <pt x="-15" y="-70" on="1"/>
        <pt x="73" y="-70" on="0"/>
      </contour>
    </TTGlyph>
    <TTGlyph name="Jcircumflex" xMin="-85" yMin="-150" xMax="433" yMax="910">
      <contour>
        <pt x="89" y="25" on="1"/>
        <pt x="184" y="620" on="1"/>
        <pt x="99" y="640" on="1"/>
        <pt x="108" y="695" on="1"/>
        <pt x="381" y="700" on="1"/>
        <pt x="371" y="640" on="1"/>
        <pt x="284" y="620" on="1"/>
        <pt x="192" y="45" on="1"/>
        <pt x="178" y="-46" on="0"/>
        <pt x="64" y="-150" on="0"/>
        <pt x="-23" y="-150" on="1"/>
        <pt x="-85" y="-145" on="1"/>
        <pt x="-64" y="-70" on="1"/>
        <pt x="-15" y="-70" on="1"/>
        <pt x="73" y="-70" on="0"/>
      </contour>
      <contour>
        <pt x="386" y="750" on="1"/>
        <pt x="276" y="833" on="1"/>
        <pt x="132" y="750" on="1"/>
        <pt x="100" y="795" on="1"/>
        <pt x="256" y="905" on="1"/>
        <pt x="315" y="910" on="1"/>
        <pt x="433" y="795" on="1"/>
      </contour>
    </TTGlyph>
    <TTGlyph name="K" xMin="5" yMin="0" xMax="710" yMax="700">
      <contour>
        <pt x="384" y="0" on="1"/>
        <pt x="394" y="60" on="1"/>
        <pt x="470" y="79" on="1"/>
        <pt x="340" y="320" on="1"/>
        <pt x="241" y="320" on="1"/>
        <pt x="203" y="80" on="1"/>
        <pt x="288" y="60" on="1"/>
        <pt x="278" y="0" on="1"/>
        <pt x="5" y="0" on="1"/>
        <pt x="15" y="60" on="1"/>
        <pt x="103" y="80" on="1"/>
        <pt x="190" y="620" on="1"/>
        <pt x="106" y="640" on="1"/>
        <pt x="115" y="695" on="1"/>
        <pt x="389" y="700" on="1"/>
        <pt x="379" y="640" on="1"/>
        <pt x="290" y="620" on="1"/>
        <pt x="254" y="400" on="1"/>
        <pt x="346" y="400" on="1"/>
        <pt x="562" y="695" on="1"/>
        <pt x="710" y="700" on="1"/>
        <pt x="700" y="640" on="1"/>
        <pt x="615" y="620" on="1"/>
        <pt x="426" y="367" on="1"/>
        <pt x="583" y="80" on="1"/>
        <pt x="654" y="60" on="1"/>
        <pt x="644" y="0" on="1"/>
      </contour>
    </TTGlyph>
    <TTGlyph name="Kcommaaccent" xMin="5" yMin="-270" xMax="710" yMax="700">
      <contour>
        <pt x="384" y="0" on="1"/>
        <pt x="394" y="60" on="1"/>
        <pt x="470" y="79" on="1"/>
        <pt x="340" y="320" on="1"/>
        <pt x="241" y="320" on="1"/>
        <pt x="203" y="80" on="1"/>
        <pt x="288" y="60" on="1"/>
        <pt x="278" y="0" on="1"/>
        <pt x="5" y="0" on="1"/>
        <pt x="15" y="60" on="1"/>
        <pt x="103" y="80" on="1"/>
        <pt x="190" y="620" on="1"/>
        <pt x="106" y="640" on="1"/>
        <pt x="115" y="695" on="1"/>
        <pt x="389" y="700" on="1"/>
        <pt x="379" y="640" on="1"/>
        <pt x="290" y="620" on="1"/>
        <pt x="254" y="400" on="1"/>
        <pt x="346" y="400" on="1"/>
        <pt x="562" y="695" on="1"/>
        <pt x="710" y="700" on="1"/>
        <pt x="700" y="640" on="1"/>
        <pt x="615" y="620" on="1"/>
        <pt x="426" y="367" on="1"/>
        <pt x="583" y="80" on="1"/>
        <pt x="654" y="60" on="1"/>
        <pt x="644" y="0" on="1"/>
      </contour>
      <contour>
        <pt x="276" y="-106" on="1"/>
        <pt x="276" y="-76" on="0"/>
        <pt x="301" y="-37" on="0"/>
        <pt x="327" y="-37" on="1"/>
        <pt x="374" y="-37" on="0"/>
        <pt x="374" y="-85" on="1"/>
        <pt x="374" y="-108" on="0"/>
        <pt x="362" y="-136" on="1"/>
        <pt x="334" y="-201" on="0"/>
        <pt x="276" y="-258" on="1"/>
        <pt x="265" y="-270" on="1"/>
        <pt x="237" y="-245" on="1"/>
        <pt x="261" y="-215" on="0"/>
        <pt x="278" y="-180" on="0"/>
        <pt x="278" y="-150" on="1"/>
      </contour>
    </TTGlyph>
    <TTGlyph name="L" xMin="10" yMin="0" xMax="522" yMax="700">
      <contour>
        <pt x="489" y="0" on="1"/>
        <pt x="10" y="0" on="1"/>
        <pt x="20" y="60" on="1"/>
        <pt x="109" y="80" on="1"/>
        <pt x="195" y="620" on="1"/>
        <pt x="112" y="640" on="1"/>
        <pt x="120" y="695" on="1"/>
        <pt x="399" y="700" on="1"/>
        <pt x="389" y="640" on="1"/>
        <pt x="295" y="620" on="1"/>
        <pt x="209" y="80" on="1"/>
        <pt x="415" y="80" on="1"/>
        <pt x="454" y="195" on="1"/>
        <pt x="522" y="195" on="1"/>
      </contour>
    </TTGlyph>
    <TTGlyph name="Lacute" xMin="10" yMin="0" xMax="522" yMax="920">
      <contour>
        <pt x="489" y="0" on="1"/>
        <pt x="10" y="0" on="1"/>
        <pt x="20" y="60" on="1"/>
        <pt x="109" y="80" on="1"/>
        <pt x="195" y="620" on="1"/>
        <pt x="112" y="640" on="1"/>
        <pt x="120" y="695" on="1"/>
        <pt x="399" y="700" on="1"/>
        <pt x="389" y="640" on="1"/>
        <pt x="295" y="620" on="1"/>
        <pt x="209" y="80" on="1"/>
        <pt x="415" y="80" on="1"/>
        <pt x="454" y="195" on="1"/>
        <pt x="522" y="195" on="1"/>
      </contour>
      <contour>
        <pt x="422" y="841" on="1"/>
        <pt x="194" y="746" on="1"/>
        <pt x="167" y="801" on="1"/>
        <pt x="385" y="920" on="1"/>
      </contour>
    </TTGlyph>
    <TTGlyph name="Lcommaaccent" xMin="10" yMin="-270" xMax="522" yMax="700">
      <contour>
        <pt x="489" y="0" on="1"/>
        <pt x="10" y="0" on="1"/>
        <pt x="20" y="60" on="1"/>
        <pt x="109" y="80" on="1"/>
        <pt x="195" y="620" on="1"/>
        <pt x="112" y="640" on="1"/>
        <pt x="120" y="695" on="1"/>
        <pt x="399" y="700" on="1"/>
        <pt x="389" y="640" on="1"/>
        <pt x="295" y="620" on="1"/>
        <pt x="209" y="80" on="1"/>
        <pt x="415" y="80" on="1"/>
        <pt x="454" y="195" on="1"/>
        <pt x="522" y="195" on="1"/>
      </contour>
      <contour>
        <pt x="226" y="-106" on="1"/>
        <pt x="226" y="-76" on="0"/>
        <pt x="251" y="-37" on="0"/>
        <pt x="277" y="-37" on="1"/>
        <pt x="324" y="-37" on="0"/>
        <pt x="324" y="-85" on="1"/>
        <pt x="324" y="-108" on="0"/>
        <pt x="312" y="-136" on="1"/>
        <pt x="284" y="-201" on="0"/>
        <pt x="226" y="-258" on="1"/>
        <pt x="215" y="-270" on="1"/>
        <pt x="187" y="-245" on="1"/>
        <pt x="211" y="-215" on="0"/>
        <pt x="228" y="-180" on="0"/>
        <pt x="228" y="-150" on="1"/>
      </contour>
    </TTGlyph>
    <TTGlyph name="Ldot" xMin="10" yMin="0" xMax="522" yMax="700">
      <component glyphName="L" x="0" y="0" flags="0x1004"/>
      <component glyphName="dotaccent" x="312" y="-350" flags="0x1004"/>
    </TTGlyph>
    <TTGlyph name="Lslash" xMin="10" yMin="0" xMax="522" yMax="700">
      <contour>
        <pt x="23" y="308" on="1"/>
        <pt x="437" y="472" on="1"/>
        <pt x="446" y="397" on="1"/>
        <pt x="32" y="233" on="1"/>
      </contour>
      <contour>
        <pt x="489" y="0" on="1"/>
        <pt x="10" y="0" on="1"/>
        <pt x="20" y="60" on="1"/>
        <pt x="109" y="80" on="1"/>
        <pt x="195" y="620" on="1"/>
        <pt x="112" y="640" on="1"/>
        <pt x="120" y="695" on="1"/>
        <pt x="399" y="700" on="1"/>
        <pt x="389" y="640" on="1"/>
        <pt x="295" y="620" on="1"/>
        <pt x="209" y="80" on="1"/>
        <pt x="415" y="80" on="1"/>
        <pt x="454" y="195" on="1"/>
        <pt x="522" y="195" on="1"/>
      </contour>
    </TTGlyph>
    <TTGlyph name="M" xMin="5" yMin="0" xMax="905" yMax="700">
      <contour>
        <pt x="805" y="60" on="1"/>
        <pt x="795" y="0" on="1"/>
        <pt x="532" y="0" on="1"/>
        <pt x="542" y="60" on="1"/>
        <pt x="626" y="80" on="1"/>
        <pt x="702" y="556" on="1"/>
        <pt x="468" y="180" on="1"/>
        <pt x="386" y="175" on="1"/>
        <pt x="273" y="560" on="1"/>
        <pt x="196" y="80" on="1"/>
        <pt x="284" y="60" on="1"/>
        <pt x="274" y="0" on="1"/>
        <pt x="5" y="0" on="1"/>
        <pt x="15" y="60" on="1"/>
        <pt x="103" y="80" on="1"/>
        <pt x="190" y="620" on="1"/>
        <pt x="107" y="640" on="1"/>
        <pt x="116" y="695" on="1"/>
        <pt x="333" y="700" on="1"/>
        <pt x="452" y="299" on="1"/>
        <pt x="696" y="695" on="1"/>
        <pt x="905" y="700" on="1"/>
        <pt x="895" y="640" on="1"/>
        <pt x="810" y="620" on="1"/>
        <pt x="725" y="80" on="1"/>
      </contour>
    </TTGlyph>
    <TTGlyph name="N" xMin="5" yMin="0" xMax="821" yMax="700">
      <contour>
        <pt x="117" y="695" on="1"/>
        <pt x="327" y="700" on="1"/>
        <pt x="561" y="141" on="1"/>
        <pt x="637" y="620" on="1"/>
        <pt x="557" y="640" on="1"/>
        <pt x="566" y="695" on="1"/>
        <pt x="821" y="700" on="1"/>
        <pt x="811" y="640" on="1"/>
        <pt x="726" y="620" on="1"/>
        <pt x="628" y="0" on="1"/>
        <pt x="515" y="0" on="1"/>
        <pt x="271" y="563" on="1"/>
        <pt x="194" y="80" on="1"/>
        <pt x="276" y="60" on="1"/>
        <pt x="265" y="0" on="1"/>
        <pt x="5" y="0" on="1"/>
        <pt x="16" y="60" on="1"/>
        <pt x="105" y="80" on="1"/>
        <pt x="191" y="620" on="1"/>
        <pt x="108" y="640" on="1"/>
      </contour>
    </TTGlyph>
    <TTGlyph name="Nacute" xMin="5" yMin="0" xMax="821" yMax="920">
      <contour>
        <pt x="327" y="700" on="1"/>
        <pt x="561" y="141" on="1"/>
        <pt x="637" y="620" on="1"/>
        <pt x="557" y="640" on="1"/>
        <pt x="566" y="695" on="1"/>
        <pt x="821" y="700" on="1"/>
        <pt x="811" y="640" on="1"/>
        <pt x="726" y="620" on="1"/>
        <pt x="628" y="0" on="1"/>
        <pt x="515" y="0" on="1"/>
        <pt x="271" y="563" on="1"/>
        <pt x="194" y="80" on="1"/>
        <pt x="276" y="60" on="1"/>
        <pt x="265" y="0" on="1"/>
        <pt x="5" y="0" on="1"/>
        <pt x="16" y="60" on="1"/>
        <pt x="105" y="80" on="1"/>
        <pt x="191" y="620" on="1"/>
        <pt x="108" y="640" on="1"/>
        <pt x="117" y="695" on="1"/>
      </contour>
      <contour>
        <pt x="656" y="841" on="1"/>
        <pt x="428" y="746" on="1"/>
        <pt x="401" y="801" on="1"/>
        <pt x="619" y="920" on="1"/>
      </contour>
    </TTGlyph>
    <TTGlyph name="Ncaron" xMin="5" yMin="0" xMax="821" yMax="912">
      <contour>
        <pt x="327" y="700" on="1"/>
        <pt x="561" y="141" on="1"/>
        <pt x="637" y="620" on="1"/>
        <pt x="557" y="640" on="1"/>
        <pt x="566" y="695" on="1"/>
        <pt x="821" y="700" on="1"/>
        <pt x="811" y="640" on="1"/>
        <pt x="726" y="620" on="1"/>
        <pt x="628" y="0" on="1"/>
        <pt x="515" y="0" on="1"/>
        <pt x="271" y="563" on="1"/>
        <pt x="194" y="80" on="1"/>
        <pt x="276" y="60" on="1"/>
        <pt x="265" y="0" on="1"/>
        <pt x="5" y="0" on="1"/>
        <pt x="16" y="60" on="1"/>
        <pt x="105" y="80" on="1"/>
        <pt x="191" y="620" on="1"/>
        <pt x="108" y="640" on="1"/>
        <pt x="117" y="695" on="1"/>
      </contour>
      <contour>
        <pt x="445" y="826" on="1"/>
        <pt x="594" y="912" on="1"/>
        <pt x="621" y="867" on="1"/>
        <pt x="462" y="751" on="1"/>
        <pt x="404" y="751" on="1"/>
        <pt x="282" y="867" on="1"/>
        <pt x="330" y="912" on="1"/>
      </contour>
    </TTGlyph>
    <TTGlyph name="Ncommaaccent" xMin="5" yMin="-270" xMax="821" yMax="700">
      <contour>
        <pt x="117" y="695" on="1"/>
        <pt x="327" y="700" on="1"/>
        <pt x="561" y="141" on="1"/>
        <pt x="637" y="620" on="1"/>
        <pt x="557" y="640" on="1"/>
        <pt x="566" y="695" on="1"/>
        <pt x="821" y="700" on="1"/>
        <pt x="811" y="640" on="1"/>
        <pt x="726" y="620" on="1"/>
        <pt x="628" y="0" on="1"/>
        <pt x="515" y="0" on="1"/>
        <pt x="271" y="563" on="1"/>
        <pt x="194" y="80" on="1"/>
        <pt x="276" y="60" on="1"/>
        <pt x="265" y="0" on="1"/>
        <pt x="5" y="0" on="1"/>
        <pt x="16" y="60" on="1"/>
        <pt x="105" y="80" on="1"/>
        <pt x="191" y="620" on="1"/>
        <pt x="108" y="640" on="1"/>
      </contour>
      <contour>
        <pt x="307" y="-150" on="1"/>
        <pt x="305" y="-106" on="1"/>
        <pt x="305" y="-76" on="0"/>
        <pt x="330" y="-37" on="0"/>
        <pt x="356" y="-37" on="1"/>
        <pt x="403" y="-37" on="0"/>
        <pt x="403" y="-85" on="1"/>
        <pt x="403" y="-122" on="0"/>
        <pt x="348" y="-214" on="0"/>
        <pt x="321" y="-242" on="1"/>
        <pt x="294" y="-270" on="1"/>
        <pt x="266" y="-245" on="1"/>
        <pt x="290" y="-215" on="0"/>
        <pt x="307" y="-180" on="0"/>
      </contour>
    </TTGlyph>
    <TTGlyph name="Ntilde" xMin="5" yMin="0" xMax="821" yMax="890">
      <contour>
        <pt x="327" y="700" on="1"/>
        <pt x="561" y="141" on="1"/>
        <pt x="637" y="620" on="1"/>
        <pt x="557" y="640" on="1"/>
        <pt x="566" y="695" on="1"/>
        <pt x="821" y="700" on="1"/>
        <pt x="811" y="640" on="1"/>
        <pt x="726" y="620" on="1"/>
        <pt x="628" y="0" on="1"/>
        <pt x="515" y="0" on="1"/>
        <pt x="271" y="563" on="1"/>
        <pt x="194" y="80" on="1"/>
        <pt x="276" y="60" on="1"/>
        <pt x="265" y="0" on="1"/>
        <pt x="5" y="0" on="1"/>
        <pt x="16" y="60" on="1"/>
        <pt x="105" y="80" on="1"/>
        <pt x="191" y="620" on="1"/>
        <pt x="108" y="640" on="1"/>
        <pt x="117" y="695" on="1"/>
      </contour>
      <contour>
        <pt x="296" y="766" on="1"/>
        <pt x="267" y="796" on="1"/>
        <pt x="272" y="805" on="0"/>
        <pt x="303" y="845" on="0"/>
        <pt x="317" y="858" on="1"/>
        <pt x="353" y="890" on="0"/>
        <pt x="425" y="890" on="0"/>
        <pt x="526" y="844" on="0"/>
        <pt x="572" y="844" on="0"/>
        <pt x="607" y="865" on="0"/>
        <pt x="616" y="876" on="1"/>
        <pt x="624" y="886" on="1"/>
        <pt x="654" y="856" on="1"/>
        <pt x="640" y="827" on="0"/>
        <pt x="617" y="806" on="1"/>
        <pt x="573" y="766" on="0"/>
        <pt x="501" y="766" on="0"/>
        <pt x="400" y="810" on="0"/>
        <pt x="378" y="810" on="1"/>
        <pt x="338" y="810" on="0"/>
        <pt x="306" y="777" on="1"/>
      </contour>
    </TTGlyph>
    <TTGlyph name="O" xMin="60" yMin="-10" xMax="705" yMax="710">
      <contour>
        <pt x="301" y="-10" on="1"/>
        <pt x="189" y="-10" on="0"/>
        <pt x="60" y="121" on="0"/>
        <pt x="60" y="234" on="1"/>
        <pt x="60" y="444" on="0"/>
        <pt x="283" y="710" on="0"/>
        <pt x="452" y="710" on="1"/>
        <pt x="571" y="710" on="0"/>
        <pt x="705" y="575" on="0"/>
        <pt x="705" y="465" on="1"/>
        <pt x="705" y="250" on="0"/>
        <pt x="476" y="-10" on="0"/>
      </contour>
      <contour>
        <pt x="595" y="452" on="1"/>
        <pt x="595" y="540" on="0"/>
        <pt x="510" y="625" on="0"/>
        <pt x="435" y="625" on="1"/>
        <pt x="318" y="625" on="0"/>
        <pt x="170" y="402" on="0"/>
        <pt x="170" y="244" on="1"/>
        <pt x="170" y="161" on="0"/>
        <pt x="251" y="75" on="0"/>
        <pt x="323" y="75" on="1"/>
        <pt x="442" y="75" on="0"/>
        <pt x="595" y="290" on="0"/>
      </contour>
    </TTGlyph>
    <TTGlyph name="OE" xMin="60" yMin="-10" xMax="913" yMax="710">
      <contour>
        <pt x="456" y="0" on="1"/>
        <pt x="296" y="-10" on="1"/>
        <pt x="189" y="-10" on="0"/>
        <pt x="60" y="130" on="0"/>
        <pt x="60" y="244" on="1"/>
        <pt x="60" y="452" on="0"/>
        <pt x="281" y="710" on="0"/>
        <pt x="447" y="710" on="1"/>
        <pt x="476" y="710" on="0"/>
        <pt x="565" y="700" on="0"/>
        <pt x="580" y="700" on="1"/>
        <pt x="913" y="700" on="1"/>
        <pt x="886" y="530" on="1"/>
        <pt x="830" y="530" on="1"/>
        <pt x="820" y="620" on="1"/>
        <pt x="599" y="620" on="1"/>
        <pt x="564" y="405" on="1"/>
        <pt x="792" y="405" on="1"/>
        <pt x="780" y="325" on="1"/>
        <pt x="552" y="325" on="1"/>
        <pt x="513" y="80" on="1"/>
        <pt x="740" y="80" on="1"/>
        <pt x="777" y="182" on="1"/>
        <pt x="843" y="182" on="1"/>
        <pt x="812" y="0" on="1"/>
      </contour>
      <contour>
        <pt x="413" y="80" on="1"/>
        <pt x="499" y="620" on="1"/>
        <pt x="470" y="625" on="0"/>
        <pt x="430" y="625" on="1"/>
        <pt x="313" y="625" on="0"/>
        <pt x="165" y="402" on="0"/>
        <pt x="165" y="244" on="1"/>
        <pt x="165" y="161" on="0"/>
        <pt x="246" y="75" on="0"/>
        <pt x="318" y="75" on="1"/>
      </contour>
    </TTGlyph>
    <TTGlyph name="Oacute" xMin="60" yMin="-10" xMax="705" yMax="920">
      <contour>
        <pt x="301" y="-10" on="1"/>
        <pt x="189" y="-10" on="0"/>
        <pt x="60" y="121" on="0"/>
        <pt x="60" y="234" on="1"/>
        <pt x="60" y="444" on="0"/>
        <pt x="283" y="710" on="0"/>
        <pt x="452" y="710" on="1"/>
        <pt x="571" y="710" on="0"/>
        <pt x="705" y="575" on="0"/>
        <pt x="705" y="465" on="1"/>
        <pt x="705" y="250" on="0"/>
        <pt x="476" y="-10" on="0"/>
      </contour>
      <contour>
        <pt x="595" y="452" on="1"/>
        <pt x="595" y="540" on="0"/>
        <pt x="510" y="625" on="0"/>
        <pt x="435" y="625" on="1"/>
        <pt x="318" y="625" on="0"/>
        <pt x="170" y="402" on="0"/>
        <pt x="170" y="244" on="1"/>
        <pt x="170" y="161" on="0"/>
        <pt x="251" y="75" on="0"/>
        <pt x="323" y="75" on="1"/>
        <pt x="442" y="75" on="0"/>
        <pt x="595" y="290" on="0"/>
      </contour>
      <contour>
        <pt x="601" y="841" on="1"/>
        <pt x="373" y="746" on="1"/>
        <pt x="346" y="801" on="1"/>
        <pt x="564" y="920" on="1"/>
      </contour>
    </TTGlyph>
    <TTGlyph name="Obreve" xMin="60" yMin="-10" xMax="705" yMax="905">
      <contour>
        <pt x="301" y="-10" on="1"/>
        <pt x="189" y="-10" on="0"/>
        <pt x="60" y="121" on="0"/>
        <pt x="60" y="234" on="1"/>
        <pt x="60" y="444" on="0"/>
        <pt x="283" y="710" on="0"/>
        <pt x="452" y="710" on="1"/>
        <pt x="571" y="710" on="0"/>
        <pt x="705" y="575" on="0"/>
        <pt x="705" y="465" on="1"/>
        <pt x="705" y="250" on="0"/>
        <pt x="476" y="-10" on="0"/>
      </contour>
      <contour>
        <pt x="595" y="452" on="1"/>
        <pt x="595" y="540" on="0"/>
        <pt x="510" y="625" on="0"/>
        <pt x="435" y="625" on="1"/>
        <pt x="318" y="625" on="0"/>
        <pt x="170" y="402" on="0"/>
        <pt x="170" y="244" on="1"/>
        <pt x="170" y="161" on="0"/>
        <pt x="251" y="75" on="0"/>
        <pt x="323" y="75" on="1"/>
        <pt x="442" y="75" on="0"/>
        <pt x="595" y="290" on="0"/>
      </contour>
      <contour>
        <pt x="562" y="900" on="1"/>
        <pt x="621" y="905" on="1"/>
        <pt x="611" y="839" on="0"/>
        <pt x="516" y="755" on="0"/>
        <pt x="408" y="755" on="0"/>
        <pt x="345" y="824" on="0"/>
        <pt x="345" y="874" on="1"/>
        <pt x="347" y="900" on="1"/>
        <pt x="406" y="905" on="1"/>
        <pt x="406" y="873" on="0"/>
        <pt x="442" y="830" on="0"/>
        <pt x="505" y="830" on="0"/>
        <pt x="550" y="865" on="0"/>
        <pt x="556" y="882" on="1"/>
      </contour>
    </TTGlyph>
    <TTGlyph name="Ocircumflex" xMin="60" yMin="-10" xMax="705" yMax="910">
      <contour>
        <pt x="301" y="-10" on="1"/>
        <pt x="189" y="-10" on="0"/>
        <pt x="60" y="121" on="0"/>
        <pt x="60" y="234" on="1"/>
        <pt x="60" y="444" on="0"/>
        <pt x="283" y="710" on="0"/>
        <pt x="452" y="710" on="1"/>
        <pt x="571" y="710" on="0"/>
        <pt x="705" y="575" on="0"/>
        <pt x="705" y="465" on="1"/>
        <pt x="705" y="250" on="0"/>
        <pt x="476" y="-10" on="0"/>
      </contour>
      <contour>
        <pt x="595" y="452" on="1"/>
        <pt x="595" y="540" on="0"/>
        <pt x="510" y="625" on="0"/>
        <pt x="435" y="625" on="1"/>
        <pt x="318" y="625" on="0"/>
        <pt x="170" y="402" on="0"/>
        <pt x="170" y="244" on="1"/>
        <pt x="170" y="161" on="0"/>
        <pt x="251" y="75" on="0"/>
        <pt x="323" y="75" on="1"/>
        <pt x="442" y="75" on="0"/>
        <pt x="595" y="290" on="0"/>
      </contour>
      <contour>
        <pt x="567" y="750" on="1"/>
        <pt x="452" y="833" on="1"/>
        <pt x="303" y="750" on="1"/>
        <pt x="271" y="795" on="1"/>
        <pt x="432" y="905" on="1"/>
        <pt x="491" y="910" on="1"/>
        <pt x="614" y="795" on="1"/>
      </contour>
    </TTGlyph>
    <TTGlyph name="Odieresis" xMin="60" yMin="-10" xMax="705" yMax="885">
      <contour>
        <pt x="301" y="-10" on="1"/>
        <pt x="189" y="-10" on="0"/>
        <pt x="60" y="121" on="0"/>
        <pt x="60" y="234" on="1"/>
        <pt x="60" y="444" on="0"/>
        <pt x="283" y="710" on="0"/>
        <pt x="452" y="710" on="1"/>
        <pt x="571" y="710" on="0"/>
        <pt x="705" y="575" on="0"/>
        <pt x="705" y="465" on="1"/>
        <pt x="705" y="250" on="0"/>
        <pt x="476" y="-10" on="0"/>
      </contour>
      <contour>
        <pt x="595" y="452" on="1"/>
        <pt x="595" y="540" on="0"/>
        <pt x="510" y="625" on="0"/>
        <pt x="435" y="625" on="1"/>
        <pt x="318" y="625" on="0"/>
        <pt x="170" y="402" on="0"/>
        <pt x="170" y="244" on="1"/>
        <pt x="170" y="161" on="0"/>
        <pt x="251" y="75" on="0"/>
        <pt x="323" y="75" on="1"/>
        <pt x="442" y="75" on="0"/>
        <pt x="595" y="290" on="0"/>
      </contour>
      <contour>
        <pt x="553" y="765" on="1"/>
        <pt x="508" y="765" on="0"/>
        <pt x="508" y="815" on="1"/>
        <pt x="508" y="841" on="0"/>
        <pt x="544" y="885" on="0"/>
        <pt x="572" y="885" on="1"/>
        <pt x="618" y="885" on="0"/>
        <pt x="618" y="839" on="1"/>
        <pt x="618" y="809" on="0"/>
        <pt x="580" y="765" on="0"/>
      </contour>
      <contour>
        <pt x="352" y="765" on="1"/>
        <pt x="307" y="765" on="0"/>
        <pt x="307" y="815" on="1"/>
        <pt x="307" y="841" on="0"/>
        <pt x="343" y="885" on="0"/>
        <pt x="371" y="885" on="1"/>
        <pt x="417" y="885" on="0"/>
        <pt x="417" y="839" on="1"/>
        <pt x="417" y="809" on="0"/>
        <pt x="379" y="765" on="0"/>
      </contour>
    </TTGlyph>
    <TTGlyph name="Ograve" xMin="60" yMin="-10" xMax="705" yMax="921">
      <contour>
        <pt x="301" y="-10" on="1"/>
        <pt x="189" y="-10" on="0"/>
        <pt x="60" y="121" on="0"/>
        <pt x="60" y="234" on="1"/>
        <pt x="60" y="444" on="0"/>
        <pt x="283" y="710" on="0"/>
        <pt x="452" y="710" on="1"/>
        <pt x="571" y="710" on="0"/>
        <pt x="705" y="575" on="0"/>
        <pt x="705" y="465" on="1"/>
        <pt x="705" y="250" on="0"/>
        <pt x="476" y="-10" on="0"/>
      </contour>
      <contour>
        <pt x="595" y="452" on="1"/>
        <pt x="595" y="540" on="0"/>
        <pt x="510" y="625" on="0"/>
        <pt x="435" y="625" on="1"/>
        <pt x="318" y="625" on="0"/>
        <pt x="170" y="402" on="0"/>
        <pt x="170" y="244" on="1"/>
        <pt x="170" y="161" on="0"/>
        <pt x="251" y="75" on="0"/>
        <pt x="323" y="75" on="1"/>
        <pt x="442" y="75" on="0"/>
        <pt x="595" y="290" on="0"/>
      </contour>
      <contour>
        <pt x="530" y="744" on="1"/>
        <pt x="302" y="842" on="1"/>
        <pt x="339" y="921" on="1"/>
        <pt x="557" y="799" on="1"/>
      </contour>
    </TTGlyph>
    <TTGlyph name="Omacron" xMin="60" yMin="-10" xMax="705" yMax="855">
      <component glyphName="O" x="0" y="0" flags="0x1004"/>
      <component glyphName="macron" x="330" y="120" flags="0x1004"/>
    </TTGlyph>
    <TTGlyph name="Omega" xMin="30" yMin="0" xMax="705" yMax="710">
      <contour>
        <pt x="291" y="65" on="1"/>
        <pt x="280" y="0" on="1"/>
        <pt x="30" y="0" on="1"/>
        <pt x="43" y="80" on="1"/>
        <pt x="173" y="80" on="1"/>
        <pt x="119" y="134" on="0"/>
        <pt x="97" y="223" on="1"/>
        <pt x="88" y="260" on="0"/>
        <pt x="88" y="298" on="1"/>
        <pt x="88" y="404" on="0"/>
        <pt x="171" y="588" on="0"/>
        <pt x="343" y="710" on="0"/>
        <pt x="576" y="710" on="0"/>
        <pt x="705" y="575" on="0"/>
        <pt x="705" y="454" on="1"/>
        <pt x="705" y="388" on="0"/>
        <pt x="668" y="262" on="0"/>
        <pt x="641" y="220" on="1"/>
        <pt x="584" y="131" on="0"/>
        <pt x="542" y="96" on="1"/>
        <pt x="524" y="81" on="1"/>
        <pt x="657" y="85" on="1"/>
        <pt x="643" y="0" on="1"/>
        <pt x="393" y="0" on="1"/>
        <pt x="404" y="65" on="1"/>
        <pt x="429" y="77" on="0"/>
        <pt x="506" y="150" on="0"/>
        <pt x="558" y="230" on="0"/>
        <pt x="600" y="369" on="0"/>
        <pt x="600" y="529" on="0"/>
        <pt x="515" y="625" on="0"/>
        <pt x="376" y="625" on="0"/>
        <pt x="277" y="568" on="0"/>
        <pt x="248" y="519" on="1"/>
        <pt x="190" y="421" on="0"/>
        <pt x="190" y="282" on="1"/>
        <pt x="190" y="162" on="0"/>
        <pt x="256" y="94" on="1"/>
        <pt x="271" y="78" on="0"/>
        <pt x="290" y="65" on="0"/>
      </contour>
    </TTGlyph>
    <TTGlyph name="Oslash" xMin="26" yMin="-105" xMax="723" yMax="785">
      <contour>
        <pt x="302" y="-10" on="1"/>
        <pt x="230" y="-10" on="0"/>
        <pt x="177" y="19" on="1"/>
        <pt x="84" y="-105" on="1"/>
        <pt x="26" y="-70" on="1"/>
        <pt x="124" y="61" on="1"/>
        <pt x="66" y="127" on="0"/>
        <pt x="66" y="234" on="1"/>
        <pt x="66" y="444" on="0"/>
        <pt x="285" y="710" on="0"/>
        <pt x="453" y="710" on="1"/>
        <pt x="530" y="710" on="0"/>
        <pt x="587" y="679" on="1"/>
        <pt x="666" y="785" on="1"/>
        <pt x="723" y="750" on="1"/>
        <pt x="640" y="639" on="1"/>
        <pt x="701" y="576" on="0"/>
        <pt x="701" y="475" on="1"/>
        <pt x="701" y="253" on="0"/>
        <pt x="477" y="-10" on="0"/>
      </contour>
      <contour>
        <pt x="596" y="462" on="1"/>
        <pt x="596" y="516" on="0"/>
        <pt x="577" y="554" on="1"/>
        <pt x="235" y="98" on="1"/>
        <pt x="270" y="75" on="0"/>
        <pt x="324" y="75" on="1"/>
        <pt x="444" y="75" on="0"/>
        <pt x="596" y="293" on="0"/>
      </contour>
      <contour>
        <pt x="171" y="244" on="1"/>
        <pt x="171" y="189" on="0"/>
        <pt x="190" y="149" on="1"/>
        <pt x="530" y="604" on="1"/>
        <pt x="495" y="625" on="0"/>
        <pt x="436" y="625" on="1"/>
        <pt x="319" y="625" on="0"/>
        <pt x="171" y="402" on="0"/>
      </contour>
    </TTGlyph>
    <TTGlyph name="Otilde" xMin="60" yMin="-10" xMax="705" yMax="890">
      <contour>
        <pt x="301" y="-10" on="1"/>
        <pt x="189" y="-10" on="0"/>
        <pt x="60" y="121" on="0"/>
        <pt x="60" y="234" on="1"/>
        <pt x="60" y="444" on="0"/>
        <pt x="283" y="710" on="0"/>
        <pt x="452" y="710" on="1"/>
        <pt x="571" y="710" on="0"/>
        <pt x="705" y="575" on="0"/>
        <pt x="705" y="465" on="1"/>
        <pt x="705" y="250" on="0"/>
        <pt x="476" y="-10" on="0"/>
      </contour>
      <contour>
        <pt x="595" y="452" on="1"/>
        <pt x="595" y="540" on="0"/>
        <pt x="510" y="625" on="0"/>
        <pt x="435" y="625" on="1"/>
        <pt x="318" y="625" on="0"/>
        <pt x="170" y="402" on="0"/>
        <pt x="170" y="244" on="1"/>
        <pt x="170" y="161" on="0"/>
        <pt x="251" y="75" on="0"/>
        <pt x="323" y="75" on="1"/>
        <pt x="442" y="75" on="0"/>
        <pt x="595" y="290" on="0"/>
      </contour>
      <contour>
        <pt x="299" y="766" on="1"/>
        <pt x="270" y="796" on="1"/>
        <pt x="275" y="805" on="0"/>
        <pt x="306" y="845" on="0"/>
        <pt x="320" y="858" on="1"/>
        <pt x="356" y="890" on="0"/>
        <pt x="428" y="890" on="0"/>
        <pt x="529" y="844" on="0"/>
        <pt x="575" y="844" on="0"/>
        <pt x="610" y="865" on="0"/>
        <pt x="618" y="876" on="1"/>
        <pt x="627" y="886" on="1"/>
        <pt x="657" y="856" on="1"/>
        <pt x="642" y="827" on="0"/>
        <pt x="620" y="806" on="1"/>
        <pt x="576" y="766" on="0"/>
        <pt x="504" y="766" on="0"/>
        <pt x="403" y="810" on="0"/>
        <pt x="380" y="810" on="1"/>
        <pt x="341" y="810" on="0"/>
        <pt x="310" y="777" on="1"/>
      </contour>
    </TTGlyph>
    <TTGlyph name="P" xMin="5" yMin="0" xMax="602" yMax="700">
      <contour>
        <pt x="116" y="695" on="1"/>
        <pt x="301" y="700" on="1"/>
        <pt x="406" y="700" on="1"/>
        <pt x="486" y="700" on="0"/>
        <pt x="602" y="625" on="0"/>
        <pt x="602" y="461" on="0"/>
        <pt x="547" y="347" on="0"/>
        <pt x="500" y="317" on="1"/>
        <pt x="411" y="260" on="0"/>
        <pt x="297" y="260" on="1"/>
        <pt x="231" y="260" on="1"/>
        <pt x="202" y="79" on="1"/>
        <pt x="288" y="60" on="1"/>
        <pt x="278" y="0" on="1"/>
        <pt x="5" y="0" on="1"/>
        <pt x="15" y="60" on="1"/>
        <pt x="102" y="80" on="1"/>
        <pt x="188" y="620" on="1"/>
        <pt x="107" y="640" on="1"/>
      </contour>
      <contour>
        <pt x="288" y="620" on="1"/>
        <pt x="243" y="340" on="1"/>
        <pt x="310" y="340" on="1"/>
        <pt x="410" y="340" on="0"/>
        <pt x="497" y="441" on="0"/>
        <pt x="497" y="519" on="1"/>
        <pt x="497" y="579" on="0"/>
        <pt x="457" y="601" on="1"/>
        <pt x="423" y="620" on="0"/>
        <pt x="388" y="620" on="1"/>
      </contour>
    </TTGlyph>
    <TTGlyph name="Q" xMin="55" yMin="-182" xMax="726" yMax="710">
      <contour>
        <pt x="414" y="7" on="1"/>
        <pt x="504" y="-62" on="1"/>
        <pt x="553" y="-100" on="0"/>
        <pt x="598" y="-100" on="1"/>
        <pt x="627" y="-100" on="0"/>
        <pt x="680" y="-74" on="1"/>
        <pt x="697" y="-65" on="1"/>
        <pt x="726" y="-125" on="1"/>
        <pt x="619" y="-182" on="0"/>
        <pt x="522" y="-182" on="0"/>
        <pt x="445" y="-129" on="1"/>
        <pt x="269" y="-9" on="1"/>
        <pt x="169" y="-1" on="0"/>
        <pt x="55" y="128" on="0"/>
        <pt x="55" y="234" on="1"/>
        <pt x="55" y="444" on="0"/>
        <pt x="278" y="710" on="0"/>
        <pt x="447" y="710" on="1"/>
        <pt x="566" y="710" on="0"/>
        <pt x="700" y="580" on="0"/>
        <pt x="700" y="475" on="1"/>
        <pt x="700" y="294" on="0"/>
        <pt x="544" y="48" on="0"/>
      </contour>
      <contour>
        <pt x="438" y="75" on="0"/>
        <pt x="590" y="293" on="0"/>
        <pt x="590" y="625" on="0"/>
        <pt x="430" y="625" on="1"/>
        <pt x="313" y="625" on="0"/>
        <pt x="165" y="402" on="0"/>
        <pt x="165" y="244" on="1"/>
        <pt x="165" y="161" on="0"/>
        <pt x="246" y="75" on="0"/>
        <pt x="318" y="75" on="1"/>
      </contour>
    </TTGlyph>
    <TTGlyph name="R" xMin="5" yMin="0" xMax="605" yMax="700">
      <contour>
        <pt x="451" y="0" on="1"/>
        <pt x="395" y="185" on="1"/>
        <pt x="373" y="258" on="0"/>
        <pt x="320" y="305" on="0"/>
        <pt x="268" y="305" on="1"/>
        <pt x="239" y="305" on="1"/>
        <pt x="204" y="80" on="1"/>
        <pt x="290" y="60" on="1"/>
        <pt x="280" y="0" on="1"/>
        <pt x="5" y="0" on="1"/>
        <pt x="15" y="60" on="1"/>
        <pt x="103" y="80" on="1"/>
        <pt x="189" y="620" on="1"/>
        <pt x="108" y="640" on="1"/>
        <pt x="116" y="695" on="1"/>
        <pt x="302" y="700" on="1"/>
        <pt x="410" y="700" on="1"/>
        <pt x="492" y="700" on="0"/>
        <pt x="605" y="622" on="0"/>
        <pt x="605" y="462" on="0"/>
        <pt x="509" y="347" on="0"/>
        <pt x="430" y="322" on="1"/>
        <pt x="460" y="297" on="0"/>
        <pt x="489" y="210" on="1"/>
        <pt x="533" y="80" on="1"/>
        <pt x="605" y="60" on="1"/>
        <pt x="595" y="0" on="1"/>
      </contour>
      <contour>
        <pt x="392" y="620" on="1"/>
        <pt x="289" y="620" on="1"/>
        <pt x="251" y="380" on="1"/>
        <pt x="325" y="380" on="1"/>
        <pt x="403" y="380" on="0"/>
        <pt x="500" y="459" on="0"/>
        <pt x="500" y="530" on="1"/>
        <pt x="500" y="620" on="0"/>
      </contour>
    </TTGlyph>
    <TTGlyph name="Racute" xMin="5" yMin="0" xMax="605" yMax="920">
      <contour>
        <pt x="451" y="0" on="1"/>
        <pt x="395" y="185" on="1"/>
        <pt x="373" y="258" on="0"/>
        <pt x="320" y="305" on="0"/>
        <pt x="268" y="305" on="1"/>
        <pt x="239" y="305" on="1"/>
        <pt x="204" y="80" on="1"/>
        <pt x="290" y="60" on="1"/>
        <pt x="280" y="0" on="1"/>
        <pt x="5" y="0" on="1"/>
        <pt x="15" y="60" on="1"/>
        <pt x="103" y="80" on="1"/>
        <pt x="189" y="620" on="1"/>
        <pt x="108" y="640" on="1"/>
        <pt x="116" y="695" on="1"/>
        <pt x="302" y="700" on="1"/>
        <pt x="410" y="700" on="1"/>
        <pt x="492" y="700" on="0"/>
        <pt x="605" y="622" on="0"/>
        <pt x="605" y="462" on="0"/>
        <pt x="509" y="347" on="0"/>
        <pt x="430" y="322" on="1"/>
        <pt x="460" y="297" on="0"/>
        <pt x="489" y="210" on="1"/>
        <pt x="533" y="80" on="1"/>
        <pt x="605" y="60" on="1"/>
        <pt x="595" y="0" on="1"/>
      </contour>
      <contour>
        <pt x="392" y="620" on="1"/>
        <pt x="289" y="620" on="1"/>
        <pt x="251" y="380" on="1"/>
        <pt x="325" y="380" on="1"/>
        <pt x="403" y="380" on="0"/>
        <pt x="500" y="459" on="0"/>
        <pt x="500" y="530" on="1"/>
        <pt x="500" y="620" on="0"/>
      </contour>
      <contour>
        <pt x="556" y="841" on="1"/>
        <pt x="328" y="746" on="1"/>
        <pt x="301" y="801" on="1"/>
        <pt x="519" y="920" on="1"/>
      </contour>
    </TTGlyph>
    <TTGlyph name="Rcaron" xMin="5" yMin="0" xMax="605" yMax="912">
      <contour>
        <pt x="451" y="0" on="1"/>
        <pt x="395" y="185" on="1"/>
        <pt x="373" y="258" on="0"/>
        <pt x="320" y="305" on="0"/>
        <pt x="268" y="305" on="1"/>
        <pt x="239" y="305" on="1"/>
        <pt x="204" y="80" on="1"/>
        <pt x="290" y="60" on="1"/>
        <pt x="280" y="0" on="1"/>
        <pt x="5" y="0" on="1"/>
        <pt x="15" y="60" on="1"/>
        <pt x="103" y="80" on="1"/>
        <pt x="189" y="620" on="1"/>
        <pt x="108" y="640" on="1"/>
        <pt x="116" y="695" on="1"/>
        <pt x="302" y="700" on="1"/>
        <pt x="410" y="700" on="1"/>
        <pt x="492" y="700" on="0"/>
        <pt x="605" y="622" on="0"/>
        <pt x="605" y="462" on="0"/>
        <pt x="509" y="347" on="0"/>
        <pt x="430" y="322" on="1"/>
        <pt x="460" y="297" on="0"/>
        <pt x="489" y="210" on="1"/>
        <pt x="533" y="80" on="1"/>
        <pt x="605" y="60" on="1"/>
        <pt x="595" y="0" on="1"/>
      </contour>
      <contour>
        <pt x="392" y="620" on="1"/>
        <pt x="289" y="620" on="1"/>
        <pt x="251" y="380" on="1"/>
        <pt x="325" y="380" on="1"/>
        <pt x="403" y="380" on="0"/>
        <pt x="500" y="459" on="0"/>
        <pt x="500" y="530" on="1"/>
        <pt x="500" y="620" on="0"/>
      </contour>
      <contour>
        <pt x="384" y="826" on="1"/>
        <pt x="533" y="912" on="1"/>
        <pt x="560" y="867" on="1"/>
        <pt x="401" y="751" on="1"/>
        <pt x="343" y="751" on="1"/>
        <pt x="221" y="867" on="1"/>
        <pt x="269" y="912" on="1"/>
      </contour>
    </TTGlyph>
    <TTGlyph name="Rcommaaccent" xMin="5" yMin="-270" xMax="605" yMax="700">
      <contour>
        <pt x="451" y="0" on="1"/>
        <pt x="395" y="185" on="1"/>
        <pt x="373" y="258" on="0"/>
        <pt x="320" y="305" on="0"/>
        <pt x="268" y="305" on="1"/>
        <pt x="239" y="305" on="1"/>
        <pt x="204" y="80" on="1"/>
        <pt x="290" y="60" on="1"/>
        <pt x="280" y="0" on="1"/>
        <pt x="5" y="0" on="1"/>
        <pt x="15" y="60" on="1"/>
        <pt x="103" y="80" on="1"/>
        <pt x="189" y="620" on="1"/>
        <pt x="108" y="640" on="1"/>
        <pt x="116" y="695" on="1"/>
        <pt x="302" y="700" on="1"/>
        <pt x="410" y="700" on="1"/>
        <pt x="492" y="700" on="0"/>
        <pt x="605" y="622" on="0"/>
        <pt x="605" y="462" on="0"/>
        <pt x="509" y="347" on="0"/>
        <pt x="430" y="322" on="1"/>
        <pt x="460" y="297" on="0"/>
        <pt x="489" y="210" on="1"/>
        <pt x="533" y="80" on="1"/>
        <pt x="605" y="60" on="1"/>
        <pt x="595" y="0" on="1"/>
      </contour>
      <contour>
        <pt x="392" y="620" on="1"/>
        <pt x="289" y="620" on="1"/>
        <pt x="251" y="380" on="1"/>
        <pt x="325" y="380" on="1"/>
        <pt x="403" y="380" on="0"/>
        <pt x="500" y="459" on="0"/>
        <pt x="500" y="530" on="1"/>
        <pt x="500" y="620" on="0"/>
      </contour>
      <contour>
        <pt x="318" y="-106" on="1"/>
        <pt x="318" y="-76" on="0"/>
        <pt x="343" y="-37" on="0"/>
        <pt x="369" y="-37" on="1"/>
        <pt x="416" y="-37" on="0"/>
        <pt x="416" y="-85" on="1"/>
        <pt x="416" y="-108" on="0"/>
        <pt x="404" y="-136" on="1"/>
        <pt x="376" y="-201" on="0"/>
        <pt x="318" y="-258" on="1"/>
        <pt x="307" y="-270" on="1"/>
        <pt x="279" y="-245" on="1"/>
        <pt x="303" y="-215" on="0"/>
        <pt x="320" y="-180" on="0"/>
        <pt x="320" y="-150" on="1"/>
      </contour>
    </TTGlyph>
    <TTGlyph name="S" xMin="40" yMin="-10" xMax="562" yMax="710">
      <contour>
        <pt x="134" y="205" on="1"/>
        <pt x="137" y="96" on="1"/>
        <pt x="183" y="75" on="0"/>
        <pt x="302" y="75" on="0"/>
        <pt x="400" y="141" on="0"/>
        <pt x="400" y="196" on="1"/>
        <pt x="400" y="246" on="0"/>
        <pt x="344" y="276" on="1"/>
        <pt x="319" y="290" on="0"/>
        <pt x="259" y="314" on="0"/>
        <pt x="199" y="344" on="0"/>
        <pt x="174" y="363" on="1"/>
        <pt x="118" y="406" on="0"/>
        <pt x="118" y="485" on="1"/>
        <pt x="118" y="595" on="0"/>
        <pt x="272" y="710" on="0"/>
        <pt x="378" y="710" on="1"/>
        <pt x="416" y="710" on="0"/>
        <pt x="508" y="690" on="0"/>
        <pt x="535" y="680" on="1"/>
        <pt x="562" y="670" on="1"/>
        <pt x="530" y="500" on="1"/>
        <pt x="474" y="500" on="1"/>
        <pt x="460" y="607" on="1"/>
        <pt x="409" y="625" on="0"/>
        <pt x="300" y="625" on="0"/>
        <pt x="225" y="564" on="0"/>
        <pt x="225" y="484" on="0"/>
        <pt x="283" y="434" on="0"/>
        <pt x="366" y="401" on="0"/>
        <pt x="449" y="363" on="0"/>
        <pt x="507" y="291" on="0"/>
        <pt x="507" y="239" on="1"/>
        <pt x="507" y="160" on="0"/>
        <pt x="466" y="102" on="1"/>
        <pt x="386" y="-10" on="0"/>
        <pt x="227" y="-10" on="1"/>
        <pt x="183" y="-10" on="0"/>
        <pt x="90" y="10" on="0"/>
        <pt x="65" y="20" on="1"/>
        <pt x="40" y="30" on="1"/>
        <pt x="68" y="205" on="1"/>
      </contour>
    </TTGlyph>
    <TTGlyph name="Sacute" xMin="40" yMin="-10" xMax="562" yMax="920">
      <contour>
        <pt x="137" y="96" on="1"/>
        <pt x="150" y="91" on="1"/>
        <pt x="192" y="75" on="0"/>
        <pt x="242" y="75" on="1"/>
        <pt x="302" y="75" on="0"/>
        <pt x="400" y="141" on="0"/>
        <pt x="400" y="246" on="0"/>
        <pt x="344" y="276" on="1"/>
        <pt x="319" y="290" on="0"/>
        <pt x="216" y="331" on="0"/>
        <pt x="174" y="363" on="1"/>
        <pt x="118" y="406" on="0"/>
        <pt x="118" y="485" on="1"/>
        <pt x="118" y="595" on="0"/>
        <pt x="272" y="710" on="0"/>
        <pt x="464" y="710" on="0"/>
        <pt x="562" y="670" on="1"/>
        <pt x="530" y="500" on="1"/>
        <pt x="474" y="500" on="1"/>
        <pt x="460" y="607" on="1"/>
        <pt x="446" y="612" on="1"/>
        <pt x="404" y="625" on="0"/>
        <pt x="362" y="625" on="1"/>
        <pt x="300" y="625" on="0"/>
        <pt x="225" y="564" on="0"/>
        <pt x="225" y="520" on="1"/>
        <pt x="225" y="457" on="0"/>
        <pt x="324" y="418" on="1"/>
        <pt x="366" y="401" on="0"/>
        <pt x="449" y="363" on="0"/>
        <pt x="507" y="291" on="0"/>
        <pt x="507" y="239" on="1"/>
        <pt x="507" y="160" on="0"/>
        <pt x="424" y="43" on="0"/>
        <pt x="300" y="-10" on="0"/>
        <pt x="128" y="-10" on="0"/>
        <pt x="40" y="30" on="1"/>
        <pt x="68" y="205" on="1"/>
        <pt x="134" y="205" on="1"/>
      </contour>
      <contour>
        <pt x="546" y="841" on="1"/>
        <pt x="318" y="746" on="1"/>
        <pt x="291" y="801" on="1"/>
        <pt x="509" y="920" on="1"/>
      </contour>
    </TTGlyph>
    <TTGlyph name="Scaron" xMin="40" yMin="-10" xMax="596" yMax="912">
      <contour>
        <pt x="137" y="96" on="1"/>
        <pt x="150" y="91" on="1"/>
        <pt x="192" y="75" on="0"/>
        <pt x="242" y="75" on="1"/>
        <pt x="302" y="75" on="0"/>
        <pt x="400" y="141" on="0"/>
        <pt x="400" y="246" on="0"/>
        <pt x="344" y="276" on="1"/>
        <pt x="319" y="290" on="0"/>
        <pt x="216" y="331" on="0"/>
        <pt x="174" y="363" on="1"/>
        <pt x="118" y="406" on="0"/>
        <pt x="118" y="485" on="1"/>
        <pt x="118" y="595" on="0"/>
        <pt x="272" y="710" on="0"/>
        <pt x="464" y="710" on="0"/>
        <pt x="562" y="670" on="1"/>
        <pt x="530" y="500" on="1"/>
        <pt x="474" y="500" on="1"/>
        <pt x="460" y="607" on="1"/>
        <pt x="446" y="612" on="1"/>
        <pt x="404" y="625" on="0"/>
        <pt x="362" y="625" on="1"/>
        <pt x="300" y="625" on="0"/>
        <pt x="225" y="564" on="0"/>
        <pt x="225" y="520" on="1"/>
        <pt x="225" y="457" on="0"/>
        <pt x="324" y="418" on="1"/>
        <pt x="366" y="401" on="0"/>
        <pt x="449" y="363" on="0"/>
        <pt x="507" y="291" on="0"/>
        <pt x="507" y="239" on="1"/>
        <pt x="507" y="160" on="0"/>
        <pt x="424" y="43" on="0"/>
        <pt x="300" y="-10" on="0"/>
        <pt x="128" y="-10" on="0"/>
        <pt x="40" y="30" on="1"/>
        <pt x="68" y="205" on="1"/>
        <pt x="134" y="205" on="1"/>
      </contour>
      <contour>
        <pt x="420" y="826" on="1"/>
        <pt x="569" y="912" on="1"/>
        <pt x="596" y="867" on="1"/>
        <pt x="437" y="751" on="1"/>
        <pt x="379" y="751" on="1"/>
        <pt x="257" y="867" on="1"/>
        <pt x="305" y="912" on="1"/>
      </contour>
    </TTGlyph>
    <TTGlyph name="Scedilla" xMin="40" yMin="-219" xMax="562" yMax="710">
      <component glyphName="S" x="0" y="0" flags="0x1004"/>
      <component glyphName="cedilla" x="6" y="0" flags="0x1004"/>
    </TTGlyph>
    <TTGlyph name="Scircumflex" xMin="40" yMin="-10" xMax="562" yMax="910">
      <contour>
        <pt x="137" y="96" on="1"/>
        <pt x="150" y="91" on="1"/>
        <pt x="192" y="75" on="0"/>
        <pt x="242" y="75" on="1"/>
        <pt x="302" y="75" on="0"/>
        <pt x="400" y="141" on="0"/>
        <pt x="400" y="246" on="0"/>
        <pt x="344" y="276" on="1"/>
        <pt x="319" y="290" on="0"/>
        <pt x="216" y="331" on="0"/>
        <pt x="174" y="363" on="1"/>
        <pt x="118" y="406" on="0"/>
        <pt x="118" y="485" on="1"/>
        <pt x="118" y="595" on="0"/>
        <pt x="272" y="710" on="0"/>
        <pt x="464" y="710" on="0"/>
        <pt x="562" y="670" on="1"/>
        <pt x="530" y="500" on="1"/>
        <pt x="474" y="500" on="1"/>
        <pt x="460" y="607" on="1"/>
        <pt x="446" y="612" on="1"/>
        <pt x="404" y="625" on="0"/>
        <pt x="362" y="625" on="1"/>
        <pt x="300" y="625" on="0"/>
        <pt x="225" y="564" on="0"/>
        <pt x="225" y="520" on="1"/>
        <pt x="225" y="457" on="0"/>
        <pt x="324" y="418" on="1"/>
        <pt x="366" y="401" on="0"/>
        <pt x="449" y="363" on="0"/>
        <pt x="507" y="291" on="0"/>
        <pt x="507" y="239" on="1"/>
        <pt x="507" y="160" on="0"/>
        <pt x="424" y="43" on="0"/>
        <pt x="300" y="-10" on="0"/>
        <pt x="128" y="-10" on="0"/>
        <pt x="40" y="30" on="1"/>
        <pt x="68" y="205" on="1"/>
        <pt x="134" y="205" on="1"/>
      </contour>
      <contour>
        <pt x="501" y="750" on="1"/>
        <pt x="386" y="833" on="1"/>
        <pt x="237" y="750" on="1"/>
        <pt x="205" y="795" on="1"/>
        <pt x="366" y="905" on="1"/>
        <pt x="425" y="910" on="1"/>
        <pt x="548" y="795" on="1"/>
      </contour>
    </TTGlyph>
    <TTGlyph name="Scommaaccent" xMin="40" yMin="-270" xMax="562" yMax="710">
      <contour>
        <pt x="134" y="205" on="1"/>
        <pt x="137" y="96" on="1"/>
        <pt x="183" y="75" on="0"/>
        <pt x="302" y="75" on="0"/>
        <pt x="400" y="141" on="0"/>
        <pt x="400" y="196" on="1"/>
        <pt x="400" y="246" on="0"/>
        <pt x="344" y="276" on="1"/>
        <pt x="319" y="290" on="0"/>
        <pt x="259" y="314" on="0"/>
        <pt x="199" y="344" on="0"/>
        <pt x="174" y="363" on="1"/>
        <pt x="118" y="406" on="0"/>
        <pt x="118" y="485" on="1"/>
        <pt x="118" y="595" on="0"/>
        <pt x="272" y="710" on="0"/>
        <pt x="378" y="710" on="1"/>
        <pt x="416" y="710" on="0"/>
        <pt x="508" y="690" on="0"/>
        <pt x="535" y="680" on="1"/>
        <pt x="562" y="670" on="1"/>
        <pt x="530" y="500" on="1"/>
        <pt x="474" y="500" on="1"/>
        <pt x="460" y="607" on="1"/>
        <pt x="409" y="625" on="0"/>
        <pt x="300" y="625" on="0"/>
        <pt x="225" y="564" on="0"/>
        <pt x="225" y="484" on="0"/>
        <pt x="283" y="434" on="0"/>
        <pt x="366" y="401" on="0"/>
        <pt x="449" y="363" on="0"/>
        <pt x="507" y="291" on="0"/>
        <pt x="507" y="239" on="1"/>
        <pt x="507" y="160" on="0"/>
        <pt x="466" y="102" on="1"/>
        <pt x="386" y="-10" on="0"/>
        <pt x="227" y="-10" on="1"/>
        <pt x="183" y="-10" on="0"/>
        <pt x="90" y="10" on="0"/>
        <pt x="65" y="20" on="1"/>
        <pt x="40" y="30" on="1"/>
        <pt x="68" y="205" on="1"/>
      </contour>
      <contour>
        <pt x="199" y="-150" on="1"/>
        <pt x="197" y="-106" on="1"/>
        <pt x="197" y="-76" on="0"/>
        <pt x="222" y="-37" on="0"/>
        <pt x="248" y="-37" on="1"/>
        <pt x="295" y="-37" on="0"/>
        <pt x="295" y="-85" on="1"/>
        <pt x="295" y="-122" on="0"/>
        <pt x="241" y="-214" on="0"/>
        <pt x="214" y="-242" on="1"/>
        <pt x="186" y="-270" on="1"/>
        <pt x="158" y="-245" on="1"/>
        <pt x="182" y="-215" on="0"/>
        <pt x="199" y="-180" on="0"/>
      </contour>
    </TTGlyph>
    <TTGlyph name="T" xMin="35" yMin="0" xMax="603" yMax="700">
      <contour>
        <pt x="65" y="700" on="1"/>
        <pt x="603" y="700" on="1"/>
        <pt x="574" y="520" on="1"/>
        <pt x="510" y="520" on="1"/>
        <pt x="500" y="620" on="1"/>
        <pt x="371" y="620" on="1"/>
        <pt x="285" y="80" on="1"/>
        <pt x="381" y="60" on="1"/>
        <pt x="371" y="0" on="1"/>
        <pt x="72" y="0" on="1"/>
        <pt x="82" y="60" on="1"/>
        <pt x="185" y="80" on="1"/>
        <pt x="271" y="620" on="1"/>
        <pt x="141" y="620" on="1"/>
        <pt x="100" y="520" on="1"/>
        <pt x="35" y="520" on="1"/>
      </contour>
    </TTGlyph>
    <TTGlyph name="Tcaron" xMin="35" yMin="0" xMax="603" yMax="912">
      <contour>
        <pt x="65" y="700" on="1"/>
        <pt x="603" y="700" on="1"/>
        <pt x="574" y="520" on="1"/>
        <pt x="510" y="520" on="1"/>
        <pt x="500" y="620" on="1"/>
        <pt x="371" y="620" on="1"/>
        <pt x="285" y="80" on="1"/>
        <pt x="381" y="60" on="1"/>
        <pt x="371" y="0" on="1"/>
        <pt x="72" y="0" on="1"/>
        <pt x="82" y="60" on="1"/>
        <pt x="185" y="80" on="1"/>
        <pt x="271" y="620" on="1"/>
        <pt x="141" y="620" on="1"/>
        <pt x="100" y="520" on="1"/>
        <pt x="35" y="520" on="1"/>
      </contour>
      <contour>
        <pt x="303" y="826" on="1"/>
        <pt x="452" y="912" on="1"/>
        <pt x="479" y="867" on="1"/>
        <pt x="320" y="751" on="1"/>
        <pt x="262" y="751" on="1"/>
        <pt x="140" y="867" on="1"/>
        <pt x="188" y="912" on="1"/>
      </contour>
    </TTGlyph>
    <TTGlyph name="Tcommaaccent" xMin="35" yMin="-270" xMax="603" yMax="700">
      <contour>
        <pt x="65" y="700" on="1"/>
        <pt x="603" y="700" on="1"/>
        <pt x="574" y="520" on="1"/>
        <pt x="510" y="520" on="1"/>
        <pt x="500" y="620" on="1"/>
        <pt x="371" y="620" on="1"/>
        <pt x="285" y="80" on="1"/>
        <pt x="381" y="60" on="1"/>
        <pt x="371" y="0" on="1"/>
        <pt x="72" y="0" on="1"/>
        <pt x="82" y="60" on="1"/>
        <pt x="185" y="80" on="1"/>
        <pt x="271" y="620" on="1"/>
        <pt x="141" y="620" on="1"/>
        <pt x="100" y="520" on="1"/>
        <pt x="35" y="520" on="1"/>
      </contour>
      <contour>
        <pt x="124" y="-106" on="1"/>
        <pt x="124" y="-76" on="0"/>
        <pt x="149" y="-37" on="0"/>
        <pt x="175" y="-37" on="1"/>
        <pt x="222" y="-37" on="0"/>
        <pt x="222" y="-85" on="1"/>
        <pt x="222" y="-108" on="0"/>
        <pt x="210" y="-136" on="1"/>
        <pt x="182" y="-201" on="0"/>
        <pt x="124" y="-258" on="1"/>
        <pt x="113" y="-270" on="1"/>
        <pt x="85" y="-245" on="1"/>
        <pt x="109" y="-215" on="0"/>
        <pt x="126" y="-180" on="0"/>
        <pt x="126" y="-150" on="1"/>
      </contour>
    </TTGlyph>
    <TTGlyph name="Thorn" xMin="-12" yMin="0" xMax="563" yMax="700">
      <contour>
        <pt x="273" y="620" on="1"/>
        <pt x="264" y="565" on="1"/>
        <pt x="368" y="565" on="1"/>
        <pt x="461" y="565" on="0"/>
        <pt x="563" y="486" on="0"/>
        <pt x="563" y="415" on="1"/>
        <pt x="563" y="295" on="0"/>
        <pt x="401" y="155" on="0"/>
        <pt x="268" y="155" on="1"/>
        <pt x="198" y="155" on="1"/>
        <pt x="186" y="80" on="1"/>
        <pt x="268" y="60" on="1"/>
        <pt x="258" y="0" on="1"/>
        <pt x="-12" y="0" on="1"/>
        <pt x="-3" y="60" on="1"/>
        <pt x="85" y="80" on="1"/>
        <pt x="171" y="620" on="1"/>
        <pt x="90" y="640" on="1"/>
        <pt x="98" y="695" on="1"/>
        <pt x="370" y="700" on="1"/>
        <pt x="360" y="640" on="1"/>
      </contour>
      <contour>
        <pt x="350" y="485" on="1"/>
        <pt x="251" y="485" on="1"/>
        <pt x="211" y="235" on="1"/>
        <pt x="283" y="235" on="1"/>
        <pt x="368" y="235" on="0"/>
        <pt x="463" y="317" on="0"/>
        <pt x="463" y="391" on="1"/>
        <pt x="463" y="485" on="0"/>
      </contour>
    </TTGlyph>
    <TTGlyph name="U" xMin="75" yMin="-10" xMax="780" yMax="700">
      <contour>
        <pt x="686" y="620" on="1"/>
        <pt x="634" y="295" on="1"/>
        <pt x="611" y="146" on="0"/>
        <pt x="464" y="-10" on="0"/>
        <pt x="317" y="-10" on="1"/>
        <pt x="199" y="-10" on="0"/>
        <pt x="97" y="95" on="0"/>
        <pt x="97" y="190" on="1"/>
        <pt x="97" y="221" on="0"/>
        <pt x="104" y="270" on="1"/>
        <pt x="160" y="620" on="1"/>
        <pt x="75" y="640" on="1"/>
        <pt x="84" y="695" on="1"/>
        <pt x="358" y="700" on="1"/>
        <pt x="348" y="640" on="1"/>
        <pt x="261" y="620" on="1"/>
        <pt x="205" y="270" on="1"/>
        <pt x="199" y="234" on="0"/>
        <pt x="199" y="201" on="1"/>
        <pt x="199" y="140" on="0"/>
        <pt x="260" y="75" on="0"/>
        <pt x="425" y="75" on="0"/>
        <pt x="513" y="171" on="0"/>
        <pt x="531" y="285" on="1"/>
        <pt x="585" y="620" on="1"/>
        <pt x="495" y="640" on="1"/>
        <pt x="504" y="695" on="1"/>
        <pt x="780" y="700" on="1"/>
        <pt x="770" y="640" on="1"/>
      </contour>
    </TTGlyph>
    <TTGlyph name="Uacute" xMin="75" yMin="-10" xMax="780" yMax="920">
      <contour>
        <pt x="686" y="620" on="1"/>
        <pt x="634" y="295" on="1"/>
        <pt x="611" y="146" on="0"/>
        <pt x="464" y="-10" on="0"/>
        <pt x="317" y="-10" on="1"/>
        <pt x="199" y="-10" on="0"/>
        <pt x="97" y="95" on="0"/>
        <pt x="97" y="190" on="1"/>
        <pt x="97" y="221" on="0"/>
        <pt x="104" y="270" on="1"/>
        <pt x="160" y="620" on="1"/>
        <pt x="75" y="640" on="1"/>
        <pt x="84" y="695" on="1"/>
        <pt x="358" y="700" on="1"/>
        <pt x="348" y="640" on="1"/>
        <pt x="261" y="620" on="1"/>
        <pt x="205" y="270" on="1"/>
        <pt x="199" y="234" on="0"/>
        <pt x="199" y="201" on="1"/>
        <pt x="199" y="140" on="0"/>
        <pt x="260" y="75" on="0"/>
        <pt x="425" y="75" on="0"/>
        <pt x="513" y="171" on="0"/>
        <pt x="531" y="285" on="1"/>
        <pt x="585" y="620" on="1"/>
        <pt x="495" y="640" on="1"/>
        <pt x="504" y="695" on="1"/>
        <pt x="780" y="700" on="1"/>
        <pt x="770" y="640" on="1"/>
      </contour>
      <contour>
        <pt x="635" y="841" on="1"/>
        <pt x="407" y="746" on="1"/>
        <pt x="380" y="801" on="1"/>
        <pt x="598" y="920" on="1"/>
      </contour>
    </TTGlyph>
    <TTGlyph name="Ubreve" xMin="75" yMin="-10" xMax="780" yMax="905">
      <component glyphName="U" x="0" y="0" flags="0x1004"/>
      <component glyphName="breve" x="216" y="130" flags="0x1004"/>
    </TTGlyph>
    <TTGlyph name="Ucircumflex" xMin="75" yMin="-10" xMax="780" yMax="910">
      <contour>
        <pt x="686" y="620" on="1"/>
        <pt x="634" y="295" on="1"/>
        <pt x="611" y="146" on="0"/>
        <pt x="464" y="-10" on="0"/>
        <pt x="317" y="-10" on="1"/>
        <pt x="199" y="-10" on="0"/>
        <pt x="97" y="95" on="0"/>
        <pt x="97" y="190" on="1"/>
        <pt x="97" y="221" on="0"/>
        <pt x="104" y="270" on="1"/>
        <pt x="160" y="620" on="1"/>
        <pt x="75" y="640" on="1"/>
        <pt x="84" y="695" on="1"/>
        <pt x="358" y="700" on="1"/>
        <pt x="348" y="640" on="1"/>
        <pt x="261" y="620" on="1"/>
        <pt x="205" y="270" on="1"/>
        <pt x="199" y="234" on="0"/>
        <pt x="199" y="201" on="1"/>
        <pt x="199" y="140" on="0"/>
        <pt x="260" y="75" on="0"/>
        <pt x="425" y="75" on="0"/>
        <pt x="513" y="171" on="0"/>
        <pt x="531" y="285" on="1"/>
        <pt x="585" y="620" on="1"/>
        <pt x="495" y="640" on="1"/>
        <pt x="504" y="695" on="1"/>
        <pt x="780" y="700" on="1"/>
        <pt x="770" y="640" on="1"/>
      </contour>
      <contour>
        <pt x="576" y="750" on="1"/>
        <pt x="461" y="833" on="1"/>
        <pt x="312" y="750" on="1"/>
        <pt x="280" y="795" on="1"/>
        <pt x="441" y="905" on="1"/>
        <pt x="500" y="910" on="1"/>
        <pt x="623" y="795" on="1"/>
      </contour>
    </TTGlyph>
    <TTGlyph name="Udieresis" xMin="75" yMin="-10" xMax="780" yMax="885">
      <component glyphName="U" x="0" y="0" flags="0x1004"/>
      <component glyphName="dieresis" x="195" y="125" flags="0x1004"/>
    </TTGlyph>
    <TTGlyph name="Ugrave" xMin="75" yMin="-10" xMax="780" yMax="921">
      <contour>
        <pt x="686" y="620" on="1"/>
        <pt x="634" y="295" on="1"/>
        <pt x="611" y="146" on="0"/>
        <pt x="464" y="-10" on="0"/>
        <pt x="317" y="-10" on="1"/>
        <pt x="199" y="-10" on="0"/>
        <pt x="97" y="95" on="0"/>
        <pt x="97" y="190" on="1"/>
        <pt x="97" y="221" on="0"/>
        <pt x="104" y="270" on="1"/>
        <pt x="160" y="620" on="1"/>
        <pt x="75" y="640" on="1"/>
        <pt x="84" y="695" on="1"/>
        <pt x="358" y="700" on="1"/>
        <pt x="348" y="640" on="1"/>
        <pt x="261" y="620" on="1"/>
        <pt x="205" y="270" on="1"/>
        <pt x="199" y="234" on="0"/>
        <pt x="199" y="201" on="1"/>
        <pt x="199" y="140" on="0"/>
        <pt x="260" y="75" on="0"/>
        <pt x="425" y="75" on="0"/>
        <pt x="513" y="171" on="0"/>
        <pt x="531" y="285" on="1"/>
        <pt x="585" y="620" on="1"/>
        <pt x="495" y="640" on="1"/>
        <pt x="504" y="695" on="1"/>
        <pt x="780" y="700" on="1"/>
        <pt x="770" y="640" on="1"/>
      </contour>
      <contour>
        <pt x="519" y="744" on="1"/>
        <pt x="291" y="842" on="1"/>
        <pt x="328" y="921" on="1"/>
        <pt x="546" y="799" on="1"/>
      </contour>
    </TTGlyph>
    <TTGlyph name="Umacron" xMin="75" yMin="-10" xMax="780" yMax="855">
      <contour>
        <pt x="686" y="620" on="1"/>
        <pt x="634" y="295" on="1"/>
        <pt x="611" y="146" on="0"/>
        <pt x="464" y="-10" on="0"/>
        <pt x="317" y="-10" on="1"/>
        <pt x="199" y="-10" on="0"/>
        <pt x="97" y="95" on="0"/>
        <pt x="97" y="190" on="1"/>
        <pt x="97" y="221" on="0"/>
        <pt x="104" y="270" on="1"/>
        <pt x="160" y="620" on="1"/>
        <pt x="75" y="640" on="1"/>
        <pt x="84" y="695" on="1"/>
        <pt x="358" y="700" on="1"/>
        <pt x="348" y="640" on="1"/>
        <pt x="261" y="620" on="1"/>
        <pt x="205" y="270" on="1"/>
        <pt x="199" y="234" on="0"/>
        <pt x="199" y="201" on="1"/>
        <pt x="199" y="140" on="0"/>
        <pt x="260" y="75" on="0"/>
        <pt x="425" y="75" on="0"/>
        <pt x="513" y="171" on="0"/>
        <pt x="531" y="285" on="1"/>
        <pt x="585" y="620" on="1"/>
        <pt x="495" y="640" on="1"/>
        <pt x="504" y="695" on="1"/>
        <pt x="780" y="700" on="1"/>
        <pt x="770" y="640" on="1"/>
      </contour>
      <contour>
        <pt x="311" y="780" on="1"/>
        <pt x="322" y="855" on="1"/>
        <pt x="586" y="855" on="1"/>
        <pt x="575" y="780" on="1"/>
      </contour>
    </TTGlyph>
    <TTGlyph name="Uogonek" xMin="75" yMin="-220" xMax="780" yMax="700">
      <component glyphName="U" x="0" y="0" flags="0x1004"/>
      <component glyphName="ogonek" x="148" y="0" flags="0x1004"/>
    </TTGlyph>
    <TTGlyph name="Uring" xMin="75" yMin="-10" xMax="780" yMax="937">
      <component glyphName="U" x="0" y="0" flags="0x1004"/>
      <component glyphName="ring" x="271" y="117" flags="0x1004"/>
    </TTGlyph>
    <TTGlyph name="Utilde" xMin="75" yMin="-10" xMax="780" yMax="890">
      <contour>
        <pt x="686" y="620" on="1"/>
        <pt x="634" y="295" on="1"/>
        <pt x="611" y="146" on="0"/>
        <pt x="464" y="-10" on="0"/>
        <pt x="317" y="-10" on="1"/>
        <pt x="199" y="-10" on="0"/>
        <pt x="97" y="95" on="0"/>
        <pt x="97" y="190" on="1"/>
        <pt x="97" y="221" on="0"/>
        <pt x="104" y="270" on="1"/>
        <pt x="160" y="620" on="1"/>
        <pt x="75" y="640" on="1"/>
        <pt x="84" y="695" on="1"/>
        <pt x="358" y="700" on="1"/>
        <pt x="348" y="640" on="1"/>
        <pt x="261" y="620" on="1"/>
        <pt x="205" y="270" on="1"/>
        <pt x="199" y="234" on="0"/>
        <pt x="199" y="201" on="1"/>
        <pt x="199" y="140" on="0"/>
        <pt x="260" y="75" on="0"/>
        <pt x="425" y="75" on="0"/>
        <pt x="513" y="171" on="0"/>
        <pt x="531" y="285" on="1"/>
        <pt x="585" y="620" on="1"/>
        <pt x="495" y="640" on="1"/>
        <pt x="504" y="695" on="1"/>
        <pt x="780" y="700" on="1"/>
        <pt x="770" y="640" on="1"/>
      </contour>
      <contour>
        <pt x="289" y="766" on="1"/>
        <pt x="260" y="796" on="1"/>
        <pt x="265" y="805" on="0"/>
        <pt x="296" y="845" on="0"/>
        <pt x="310" y="858" on="1"/>
        <pt x="346" y="890" on="0"/>
        <pt x="418" y="890" on="0"/>
        <pt x="519" y="844" on="0"/>
        <pt x="565" y="844" on="0"/>
        <pt x="600" y="865" on="0"/>
        <pt x="608" y="876" on="1"/>
        <pt x="617" y="886" on="1"/>
        <pt x="647" y="856" on="1"/>
        <pt x="632" y="827" on="0"/>
        <pt x="610" y="806" on="1"/>
        <pt x="566" y="766" on="0"/>
        <pt x="494" y="766" on="0"/>
        <pt x="393" y="810" on="0"/>
        <pt x="370" y="810" on="1"/>
        <pt x="331" y="810" on="0"/>
        <pt x="300" y="777" on="1"/>
      </contour>
    </TTGlyph>
    <TTGlyph name="V" xMin="45" yMin="0" xMax="742" yMax="700">
      <contour>
        <pt x="251" y="0" on="1"/>
        <pt x="130" y="620" on="1"/>
        <pt x="45" y="640" on="1"/>
        <pt x="54" y="695" on="1"/>
        <pt x="231" y="700" on="1"/>
        <pt x="327" y="145" on="1"/>
        <pt x="544" y="620" on="1"/>
        <pt x="464" y="640" on="1"/>
        <pt x="474" y="695" on="1"/>
        <pt x="742" y="700" on="1"/>
        <pt x="732" y="640" on="1"/>
        <pt x="650" y="620" on="1"/>
        <pt x="346" y="0" on="1"/>
      </contour>
    </TTGlyph>
    <TTGlyph name="W" xMin="45" yMin="0" xMax="1052" yMax="700">
      <contour>
        <pt x="239" y="0" on="1"/>
        <pt x="129" y="620" on="1"/>
        <pt x="45" y="640" on="1"/>
        <pt x="54" y="695" on="1"/>
        <pt x="231" y="700" on="1"/>
        <pt x="231" y="699" on="1"/>
        <pt x="232" y="700" on="1"/>
        <pt x="307" y="185" on="1"/>
        <pt x="529" y="695" on="1"/>
        <pt x="592" y="700" on="1"/>
        <pt x="672" y="178" on="1"/>
        <pt x="860" y="620" on="1"/>
        <pt x="774" y="640" on="1"/>
        <pt x="784" y="695" on="1"/>
        <pt x="1052" y="700" on="1"/>
        <pt x="1042" y="640" on="1"/>
        <pt x="965" y="621" on="1"/>
        <pt x="678" y="0" on="1"/>
        <pt x="615" y="0" on="1"/>
        <pt x="528" y="485" on="1"/>
        <pt x="486" y="383" on="1"/>
        <pt x="304" y="0" on="1"/>
      </contour>
    </TTGlyph>
    <TTGlyph name="Wacute" xMin="45" yMin="0" xMax="1052" yMax="920">
      <contour>
        <pt x="239" y="0" on="1"/>
        <pt x="129" y="620" on="1"/>
        <pt x="45" y="640" on="1"/>
        <pt x="54" y="695" on="1"/>
        <pt x="231" y="700" on="1"/>
        <pt x="231" y="699" on="1"/>
        <pt x="232" y="700" on="1"/>
        <pt x="307" y="185" on="1"/>
        <pt x="529" y="695" on="1"/>
        <pt x="592" y="700" on="1"/>
        <pt x="672" y="178" on="1"/>
        <pt x="860" y="620" on="1"/>
        <pt x="774" y="640" on="1"/>
        <pt x="784" y="695" on="1"/>
        <pt x="1052" y="700" on="1"/>
        <pt x="1042" y="640" on="1"/>
        <pt x="965" y="621" on="1"/>
        <pt x="678" y="0" on="1"/>
        <pt x="615" y="0" on="1"/>
        <pt x="528" y="485" on="1"/>
        <pt x="486" y="383" on="1"/>
        <pt x="304" y="0" on="1"/>
      </contour>
      <contour>
        <pt x="669" y="841" on="1"/>
        <pt x="441" y="746" on="1"/>
        <pt x="414" y="801" on="1"/>
        <pt x="632" y="920" on="1"/>
      </contour>
    </TTGlyph>
    <TTGlyph name="Wcircumflex" xMin="45" yMin="0" xMax="1052" yMax="910">
      <contour>
        <pt x="239" y="0" on="1"/>
        <pt x="129" y="620" on="1"/>
        <pt x="45" y="640" on="1"/>
        <pt x="54" y="695" on="1"/>
        <pt x="231" y="700" on="1"/>
        <pt x="231" y="699" on="1"/>
        <pt x="232" y="700" on="1"/>
        <pt x="307" y="185" on="1"/>
        <pt x="529" y="695" on="1"/>
        <pt x="592" y="700" on="1"/>
        <pt x="672" y="178" on="1"/>
        <pt x="860" y="620" on="1"/>
        <pt x="774" y="640" on="1"/>
        <pt x="784" y="695" on="1"/>
        <pt x="1052" y="700" on="1"/>
        <pt x="1042" y="640" on="1"/>
        <pt x="965" y="621" on="1"/>
        <pt x="678" y="0" on="1"/>
        <pt x="615" y="0" on="1"/>
        <pt x="528" y="485" on="1"/>
        <pt x="486" y="383" on="1"/>
        <pt x="304" y="0" on="1"/>
      </contour>
      <contour>
        <pt x="684" y="750" on="1"/>
        <pt x="569" y="833" on="1"/>
        <pt x="420" y="750" on="1"/>
        <pt x="388" y="795" on="1"/>
        <pt x="549" y="905" on="1"/>
        <pt x="608" y="910" on="1"/>
        <pt x="731" y="795" on="1"/>
      </contour>
    </TTGlyph>
    <TTGlyph name="Wdieresis" xMin="45" yMin="0" xMax="1052" yMax="885">
      <contour>
        <pt x="239" y="0" on="1"/>
        <pt x="129" y="620" on="1"/>
        <pt x="45" y="640" on="1"/>
        <pt x="54" y="695" on="1"/>
        <pt x="231" y="700" on="1"/>
        <pt x="231" y="699" on="1"/>
        <pt x="232" y="700" on="1"/>
        <pt x="307" y="185" on="1"/>
        <pt x="529" y="695" on="1"/>
        <pt x="592" y="700" on="1"/>
        <pt x="672" y="178" on="1"/>
        <pt x="860" y="620" on="1"/>
        <pt x="774" y="640" on="1"/>
        <pt x="784" y="695" on="1"/>
        <pt x="1052" y="700" on="1"/>
        <pt x="1042" y="640" on="1"/>
        <pt x="965" y="621" on="1"/>
        <pt x="678" y="0" on="1"/>
        <pt x="615" y="0" on="1"/>
        <pt x="528" y="485" on="1"/>
        <pt x="486" y="383" on="1"/>
        <pt x="304" y="0" on="1"/>
      </contour>
      <contour>
        <pt x="656" y="765" on="1"/>
        <pt x="611" y="765" on="0"/>
        <pt x="611" y="815" on="1"/>
        <pt x="611" y="841" on="0"/>
        <pt x="647" y="885" on="0"/>
        <pt x="675" y="885" on="1"/>
        <pt x="721" y="885" on="0"/>
        <pt x="721" y="839" on="1"/>
        <pt x="721" y="809" on="0"/>
        <pt x="683" y="765" on="0"/>
      </contour>
      <contour>
        <pt x="455" y="765" on="1"/>
        <pt x="410" y="765" on="0"/>
        <pt x="410" y="815" on="1"/>
        <pt x="410" y="841" on="0"/>
        <pt x="446" y="885" on="0"/>
        <pt x="474" y="885" on="1"/>
        <pt x="520" y="885" on="0"/>
        <pt x="520" y="839" on="1"/>
        <pt x="520" y="809" on="0"/>
        <pt x="482" y="765" on="0"/>
      </contour>
    </TTGlyph>
    <TTGlyph name="Wgrave" xMin="45" yMin="0" xMax="1052" yMax="921">
      <contour>
        <pt x="239" y="0" on="1"/>
        <pt x="129" y="620" on="1"/>
        <pt x="45" y="640" on="1"/>
        <pt x="54" y="695" on="1"/>
        <pt x="231" y="700" on="1"/>
        <pt x="231" y="699" on="1"/>
        <pt x="232" y="700" on="1"/>
        <pt x="307" y="185" on="1"/>
        <pt x="529" y="695" on="1"/>
        <pt x="592" y="700" on="1"/>
        <pt x="672" y="178" on="1"/>
        <pt x="860" y="620" on="1"/>
        <pt x="774" y="640" on="1"/>
        <pt x="784" y="695" on="1"/>
        <pt x="1052" y="700" on="1"/>
        <pt x="1042" y="640" on="1"/>
        <pt x="965" y="621" on="1"/>
        <pt x="678" y="0" on="1"/>
        <pt x="615" y="0" on="1"/>
        <pt x="528" y="485" on="1"/>
        <pt x="486" y="383" on="1"/>
        <pt x="304" y="0" on="1"/>
      </contour>
      <contour>
        <pt x="602" y="744" on="1"/>
        <pt x="374" y="842" on="1"/>
        <pt x="411" y="921" on="1"/>
        <pt x="629" y="799" on="1"/>
      </contour>
    </TTGlyph>
    <TTGlyph name="X" xMin="-55" yMin="0" xMax="706" yMax="700">
      <contour>
        <pt x="608" y="60" on="1"/>
        <pt x="598" y="0" on="1"/>
        <pt x="331" y="0" on="1"/>
        <pt x="341" y="60" on="1"/>
        <pt x="405" y="73" on="1"/>
        <pt x="311" y="275" on="1"/>
        <pt x="157" y="78" on="1"/>
        <pt x="220" y="60" on="1"/>
        <pt x="210" y="0" on="1"/>
        <pt x="-55" y="0" on="1"/>
        <pt x="-45" y="60" on="1"/>
        <pt x="48" y="79" on="1"/>
        <pt x="261" y="351" on="1"/>
        <pt x="128" y="621" on="1"/>
        <pt x="44" y="640" on="1"/>
        <pt x="54" y="695" on="1"/>
        <pt x="321" y="700" on="1"/>
        <pt x="311" y="640" on="1"/>
        <pt x="248" y="624" on="1"/>
        <pt x="335" y="437" on="1"/>
        <pt x="484" y="626" on="1"/>
        <pt x="431" y="640" on="1"/>
        <pt x="441" y="695" on="1"/>
        <pt x="706" y="700" on="1"/>
        <pt x="696" y="640" on="1"/>
        <pt x="589" y="618" on="1"/>
        <pt x="383" y="362" on="1"/>
        <pt x="521" y="80" on="1"/>
      </contour>
    </TTGlyph>
    <TTGlyph name="Y" xMin="40" yMin="0" xMax="674" yMax="700">
      <contour>
        <pt x="210" y="80" on="1"/>
        <pt x="238" y="262" on="1"/>
        <pt x="134" y="620" on="1"/>
        <pt x="40" y="640" on="1"/>
        <pt x="49" y="695" on="1"/>
        <pt x="214" y="700" on="1"/>
        <pt x="314" y="334" on="1"/>
        <pt x="482" y="621" on="1"/>
        <pt x="407" y="640" on="1"/>
        <pt x="417" y="695" on="1"/>
        <pt x="674" y="700" on="1"/>
        <pt x="664" y="640" on="1"/>
        <pt x="581" y="620" on="1"/>
        <pt x="334" y="231" on="1"/>
        <pt x="310" y="80" on="1"/>
        <pt x="393" y="60" on="1"/>
        <pt x="383" y="0" on="1"/>
        <pt x="110" y="0" on="1"/>
        <pt x="120" y="60" on="1"/>
      </contour>
    </TTGlyph>
    <TTGlyph name="Yacute" xMin="40" yMin="0" xMax="674" yMax="920">
      <contour>
        <pt x="210" y="80" on="1"/>
        <pt x="238" y="262" on="1"/>
        <pt x="134" y="620" on="1"/>
        <pt x="40" y="640" on="1"/>
        <pt x="49" y="695" on="1"/>
        <pt x="214" y="700" on="1"/>
        <pt x="314" y="334" on="1"/>
        <pt x="482" y="621" on="1"/>
        <pt x="407" y="640" on="1"/>
        <pt x="417" y="695" on="1"/>
        <pt x="674" y="700" on="1"/>
        <pt x="664" y="640" on="1"/>
        <pt x="581" y="620" on="1"/>
        <pt x="334" y="231" on="1"/>
        <pt x="310" y="80" on="1"/>
        <pt x="393" y="60" on="1"/>
        <pt x="383" y="0" on="1"/>
        <pt x="110" y="0" on="1"/>
        <pt x="120" y="60" on="1"/>
      </contour>
      <contour>
        <pt x="580" y="841" on="1"/>
        <pt x="352" y="746" on="1"/>
        <pt x="325" y="801" on="1"/>
        <pt x="543" y="920" on="1"/>
      </contour>
    </TTGlyph>
    <TTGlyph name="Ycircumflex" xMin="40" yMin="0" xMax="674" yMax="910">
      <contour>
        <pt x="210" y="80" on="1"/>
        <pt x="238" y="262" on="1"/>
        <pt x="134" y="620" on="1"/>
        <pt x="40" y="640" on="1"/>
        <pt x="49" y="695" on="1"/>
        <pt x="214" y="700" on="1"/>
        <pt x="314" y="334" on="1"/>
        <pt x="482" y="621" on="1"/>
        <pt x="407" y="640" on="1"/>
        <pt x="417" y="695" on="1"/>
        <pt x="674" y="700" on="1"/>
        <pt x="664" y="640" on="1"/>
        <pt x="581" y="620" on="1"/>
        <pt x="334" y="231" on="1"/>
        <pt x="310" y="80" on="1"/>
        <pt x="393" y="60" on="1"/>
        <pt x="383" y="0" on="1"/>
        <pt x="110" y="0" on="1"/>
        <pt x="120" y="60" on="1"/>
      </contour>
      <contour>
        <pt x="461" y="750" on="1"/>
        <pt x="346" y="833" on="1"/>
        <pt x="197" y="750" on="1"/>
        <pt x="165" y="795" on="1"/>
        <pt x="326" y="905" on="1"/>
        <pt x="385" y="910" on="1"/>
        <pt x="508" y="795" on="1"/>
      </contour>
    </TTGlyph>
    <TTGlyph name="Ydieresis" xMin="40" yMin="0" xMax="674" yMax="885">
      <contour>
        <pt x="210" y="80" on="1"/>
        <pt x="238" y="262" on="1"/>
        <pt x="134" y="620" on="1"/>
        <pt x="40" y="640" on="1"/>
        <pt x="49" y="695" on="1"/>
        <pt x="214" y="700" on="1"/>
        <pt x="314" y="334" on="1"/>
        <pt x="482" y="621" on="1"/>
        <pt x="407" y="640" on="1"/>
        <pt x="417" y="695" on="1"/>
        <pt x="674" y="700" on="1"/>
        <pt x="664" y="640" on="1"/>
        <pt x="581" y="620" on="1"/>
        <pt x="334" y="231" on="1"/>
        <pt x="310" y="80" on="1"/>
        <pt x="393" y="60" on="1"/>
        <pt x="383" y="0" on="1"/>
        <pt x="110" y="0" on="1"/>
        <pt x="120" y="60" on="1"/>
      </contour>
      <contour>
        <pt x="456" y="765" on="1"/>
        <pt x="411" y="765" on="0"/>
        <pt x="411" y="815" on="1"/>
        <pt x="411" y="841" on="0"/>
        <pt x="447" y="885" on="0"/>
        <pt x="475" y="885" on="1"/>
        <pt x="521" y="885" on="0"/>
        <pt x="521" y="839" on="1"/>
        <pt x="521" y="809" on="0"/>
        <pt x="483" y="765" on="0"/>
      </contour>
      <contour>
        <pt x="255" y="765" on="1"/>
        <pt x="210" y="765" on="0"/>
        <pt x="210" y="815" on="1"/>
        <pt x="210" y="841" on="0"/>
        <pt x="246" y="885" on="0"/>
        <pt x="274" y="885" on="1"/>
        <pt x="320" y="885" on="0"/>
        <pt x="320" y="839" on="1"/>
        <pt x="320" y="809" on="0"/>
        <pt x="282" y="765" on="0"/>
      </contour>
    </TTGlyph>
    <TTGlyph name="Ygrave" xMin="65" yMin="0" xMax="699" yMax="921">
      <contour>
        <pt x="235" y="80" on="1"/>
        <pt x="263" y="262" on="1"/>
        <pt x="159" y="620" on="1"/>
        <pt x="65" y="640" on="1"/>
        <pt x="74" y="695" on="1"/>
        <pt x="239" y="700" on="1"/>
        <pt x="339" y="334" on="1"/>
        <pt x="507" y="621" on="1"/>
        <pt x="432" y="640" on="1"/>
        <pt x="442" y="695" on="1"/>
        <pt x="699" y="700" on="1"/>
        <pt x="689" y="640" on="1"/>
        <pt x="606" y="620" on="1"/>
        <pt x="359" y="231" on="1"/>
        <pt x="335" y="80" on="1"/>
        <pt x="418" y="60" on="1"/>
        <pt x="408" y="0" on="1"/>
        <pt x="135" y="0" on="1"/>
        <pt x="145" y="60" on="1"/>
      </contour>
      <contour>
        <pt x="392" y="744" on="1"/>
        <pt x="164" y="842" on="1"/>
        <pt x="201" y="921" on="1"/>
        <pt x="419" y="799" on="1"/>
      </contour>
    </TTGlyph>
    <TTGlyph name="Ytilde" xMin="40" yMin="0" xMax="674" yMax="890">
      <contour>
        <pt x="210" y="80" on="1"/>
        <pt x="238" y="262" on="1"/>
        <pt x="134" y="620" on="1"/>
        <pt x="40" y="640" on="1"/>
        <pt x="49" y="695" on="1"/>
        <pt x="214" y="700" on="1"/>
        <pt x="314" y="334" on="1"/>
        <pt x="482" y="621" on="1"/>
        <pt x="407" y="640" on="1"/>
        <pt x="417" y="695" on="1"/>
        <pt x="674" y="700" on="1"/>
        <pt x="664" y="640" on="1"/>
        <pt x="581" y="620" on="1"/>
        <pt x="334" y="231" on="1"/>
        <pt x="310" y="80" on="1"/>
        <pt x="393" y="60" on="1"/>
        <pt x="383" y="0" on="1"/>
        <pt x="110" y="0" on="1"/>
        <pt x="120" y="60" on="1"/>
      </contour>
      <contour>
        <pt x="196" y="766" on="1"/>
        <pt x="167" y="796" on="1"/>
        <pt x="172" y="805" on="0"/>
        <pt x="203" y="845" on="0"/>
        <pt x="217" y="858" on="1"/>
        <pt x="253" y="890" on="0"/>
        <pt x="325" y="890" on="0"/>
        <pt x="426" y="844" on="0"/>
        <pt x="472" y="844" on="0"/>
        <pt x="507" y="865" on="0"/>
        <pt x="516" y="876" on="1"/>
        <pt x="524" y="886" on="1"/>
        <pt x="554" y="856" on="1"/>
        <pt x="540" y="827" on="0"/>
        <pt x="517" y="806" on="1"/>
        <pt x="473" y="766" on="0"/>
        <pt x="401" y="766" on="0"/>
        <pt x="300" y="810" on="0"/>
        <pt x="278" y="810" on="1"/>
        <pt x="238" y="810" on="0"/>
        <pt x="206" y="777" on="1"/>
      </contour>
    </TTGlyph>
    <TTGlyph name="Z" xMin="45" yMin="0" xMax="599" yMax="700">
      <contour>
        <pt x="130" y="700" on="1"/>
        <pt x="599" y="700" on="1"/>
        <pt x="594" y="634" on="1"/>
        <pt x="175" y="80" on="1"/>
        <pt x="443" y="80" on="1"/>
        <pt x="479" y="182" on="1"/>
        <pt x="545" y="182" on="1"/>
        <pt x="516" y="0" on="1"/>
        <pt x="45" y="0" on="1"/>
        <pt x="50" y="70" on="1"/>
        <pt x="466" y="619" on="1"/>
        <pt x="202" y="619" on="1"/>
        <pt x="162" y="530" on="1"/>
        <pt x="106" y="530" on="1"/>
      </contour>
    </TTGlyph>
    <TTGlyph name="Zacute" xMin="45" yMin="0" xMax="599" yMax="920">
      <contour>
        <pt x="130" y="700" on="1"/>
        <pt x="599" y="700" on="1"/>
        <pt x="594" y="634" on="1"/>
        <pt x="175" y="80" on="1"/>
        <pt x="443" y="80" on="1"/>
        <pt x="479" y="182" on="1"/>
        <pt x="545" y="182" on="1"/>
        <pt x="516" y="0" on="1"/>
        <pt x="45" y="0" on="1"/>
        <pt x="50" y="70" on="1"/>
        <pt x="466" y="619" on="1"/>
        <pt x="202" y="619" on="1"/>
        <pt x="162" y="530" on="1"/>
        <pt x="106" y="530" on="1"/>
      </contour>
      <contour>
        <pt x="512" y="841" on="1"/>
        <pt x="284" y="746" on="1"/>
        <pt x="257" y="801" on="1"/>
        <pt x="475" y="920" on="1"/>
      </contour>
    </TTGlyph>
    <TTGlyph name="Zcaron" xMin="45" yMin="0" xMax="599" yMax="912">
      <contour>
        <pt x="130" y="700" on="1"/>
        <pt x="599" y="700" on="1"/>
        <pt x="594" y="634" on="1"/>
        <pt x="175" y="80" on="1"/>
        <pt x="443" y="80" on="1"/>
        <pt x="479" y="182" on="1"/>
        <pt x="545" y="182" on="1"/>
        <pt x="516" y="0" on="1"/>
        <pt x="45" y="0" on="1"/>
        <pt x="50" y="70" on="1"/>
        <pt x="466" y="619" on="1"/>
        <pt x="202" y="619" on="1"/>
        <pt x="162" y="530" on="1"/>
        <pt x="106" y="530" on="1"/>
      </contour>
      <contour>
        <pt x="363" y="826" on="1"/>
        <pt x="512" y="912" on="1"/>
        <pt x="539" y="867" on="1"/>
        <pt x="380" y="751" on="1"/>
        <pt x="322" y="751" on="1"/>
        <pt x="200" y="867" on="1"/>
        <pt x="248" y="912" on="1"/>
      </contour>
    </TTGlyph>
    <TTGlyph name="Zdotaccent" xMin="45" yMin="0" xMax="599" yMax="905">
      <component glyphName="Z" x="0" y="0" flags="0x1004"/>
      <component glyphName="dotaccent" x="305" y="140" flags="0x1004"/>
    </TTGlyph>
    <TTGlyph name="a" xMin="45" yMin="-10" xMax="555" yMax="540">
      <contour>
        <pt x="468" y="80" on="1"/>
        <pt x="555" y="65" on="1"/>
        <pt x="546" y="10" on="1"/>
        <pt x="360" y="0" on="1"/>
        <pt x="400" y="184" on="1"/>
        <pt x="360" y="104" on="0"/>
        <pt x="310" y="54" on="1"/>
        <pt x="286" y="30" on="0"/>
        <pt x="213" y="-10" on="0"/>
        <pt x="176" y="-10" on="1"/>
        <pt x="120" y="-10" on="0"/>
        <pt x="45" y="90" on="0"/>
        <pt x="45" y="165" on="1"/>
        <pt x="45" y="339" on="0"/>
        <pt x="222" y="540" on="0"/>
        <pt x="343" y="540" on="1"/>
        <pt x="372" y="540" on="0"/>
        <pt x="428" y="525" on="0"/>
        <pt x="442" y="518" on="1"/>
        <pt x="455" y="510" on="1"/>
        <pt x="485" y="530" on="1"/>
        <pt x="540" y="530" on="1"/>
      </contour>
      <contour>
        <pt x="413" y="345" on="1"/>
        <pt x="433" y="450" on="1"/>
        <pt x="395" y="465" on="0"/>
        <pt x="343" y="465" on="1"/>
        <pt x="263" y="465" on="0"/>
        <pt x="145" y="320" on="0"/>
        <pt x="145" y="180" on="1"/>
        <pt x="145" y="129" on="0"/>
        <pt x="179" y="75" on="0"/>
        <pt x="240" y="75" on="0"/>
        <pt x="307" y="131" on="0"/>
        <pt x="331" y="170" on="1"/>
        <pt x="383" y="255" on="0"/>
        <pt x="404" y="317" on="1"/>
      </contour>
    </TTGlyph>
    <TTGlyph name="aacute" xMin="45" yMin="-10" xMax="555" yMax="803">
      <component glyphName="a" x="0" y="0" flags="0x1004"/>
      <component glyphName="acute" x="250" y="0" flags="0x1004"/>
    </TTGlyph>
    <TTGlyph name="abreve" xMin="45" yMin="-10" xMax="555" yMax="776">
      <component glyphName="a" x="0" y="0" flags="0x1004"/>
      <component glyphName="breve" x="161" y="1" flags="0x1004"/>
    </TTGlyph>
    <TTGlyph name="acircumflex" xMin="45" yMin="-10" xMax="555" yMax="797">
      <component glyphName="a" x="0" y="0" flags="0x1004"/>
      <component glyphName="circumflex" x="174" y="0" flags="0x1004"/>
    </TTGlyph>
    <TTGlyph name="acute" xMin="7" yMin="603" xMax="256" yMax="803">
      <contour>
        <pt x="256" y="728" on="1"/>
        <pt x="38" y="603" on="1"/>
        <pt x="7" y="656" on="1"/>
        <pt x="213" y="803" on="1"/>
      </contour>
    </TTGlyph>
    <TTGlyph name="acute.Cup" xMin="1" yMin="746" xMax="256" yMax="920">
      <contour>
        <pt x="256" y="841" on="1"/>
        <pt x="28" y="746" on="1"/>
        <pt x="1" y="801" on="1"/>
        <pt x="219" y="920" on="1"/>
      </contour>
    </TTGlyph>
    <TTGlyph name="adieresis" xMin="45" yMin="-10" xMax="555" yMax="760">
      <component glyphName="a" x="0" y="0" flags="0x1004"/>
      <component glyphName="dieresis" x="98" y="0" flags="0x1004"/>
    </TTGlyph>
    <TTGlyph name="ae" xMin="30" yMin="-10" xMax="779" yMax="540">
      <contour>
        <pt x="779" y="410" on="1"/>
        <pt x="779" y="322" on="0"/>
        <pt x="590" y="223" on="0"/>
        <pt x="432" y="223" on="1"/>
        <pt x="429" y="199" on="0"/>
        <pt x="429" y="178" on="1"/>
        <pt x="429" y="123" on="0"/>
        <pt x="483" y="70" on="0"/>
        <pt x="539" y="70" on="1"/>
        <pt x="571" y="70" on="0"/>
        <pt x="651" y="92" on="0"/>
        <pt x="675" y="104" on="1"/>
        <pt x="699" y="115" on="1"/>
        <pt x="729" y="64" on="1"/>
        <pt x="718" y="56" on="0"/>
        <pt x="677" y="31" on="0"/>
        <pt x="561" y="-10" on="0"/>
        <pt x="509" y="-10" on="1"/>
        <pt x="384" y="-10" on="0"/>
        <pt x="350" y="96" on="1"/>
        <pt x="312" y="49" on="0"/>
        <pt x="206" y="-10" on="0"/>
        <pt x="98" y="-10" on="0"/>
        <pt x="30" y="54" on="0"/>
        <pt x="30" y="110" on="1"/>
        <pt x="30" y="201" on="0"/>
        <pt x="161" y="292" on="0"/>
        <pt x="275" y="292" on="1"/>
        <pt x="351" y="292" on="1"/>
        <pt x="364" y="375" on="1"/>
        <pt x="366" y="389" on="0"/>
        <pt x="366" y="395" on="1"/>
        <pt x="366" y="465" on="0"/>
        <pt x="287" y="465" on="1"/>
        <pt x="228" y="465" on="0"/>
        <pt x="196" y="454" on="1"/>
        <pt x="185" y="450" on="1"/>
        <pt x="157" y="375" on="1"/>
        <pt x="100" y="375" on="1"/>
        <pt x="116" y="500" on="1"/>
        <pt x="220" y="540" on="0"/>
        <pt x="371" y="540" on="0"/>
        <pt x="436" y="503" on="0"/>
        <pt x="444" y="462" on="1"/>
        <pt x="516" y="540" on="0"/>
        <pt x="614" y="540" on="1"/>
        <pt x="690" y="540" on="0"/>
        <pt x="779" y="469" on="0"/>
      </contour>
      <contour>
        <pt x="441" y="293" on="1"/>
        <pt x="551" y="293" on="0"/>
        <pt x="684" y="348" on="0"/>
        <pt x="684" y="400" on="1"/>
        <pt x="684" y="465" on="0"/>
        <pt x="609" y="465" on="1"/>
        <pt x="555" y="465" on="0"/>
        <pt x="461" y="368" on="0"/>
      </contour>
      <contour>
        <pt x="341" y="227" on="1"/>
        <pt x="274" y="227" on="1"/>
        <pt x="125" y="227" on="0"/>
        <pt x="125" y="130" on="1"/>
        <pt x="125" y="104" on="0"/>
        <pt x="163" y="70" on="0"/>
        <pt x="190" y="70" on="1"/>
        <pt x="244" y="70" on="0"/>
        <pt x="333" y="170" on="0"/>
      </contour>
    </TTGlyph>
    <TTGlyph name="agrave" xMin="45" yMin="-10" xMax="555" yMax="803">
      <component glyphName="a" x="0" y="0" flags="0x1004"/>
      <component glyphName="grave" x="185" y="0" flags="0x1004"/>
    </TTGlyph>
    <TTGlyph name="amacron" xMin="45" yMin="-10" xMax="555" yMax="735">
      <component glyphName="a" x="0" y="0" flags="0x1004"/>
      <component glyphName="macron" x="217" y="0" flags="0x1004"/>
    </TTGlyph>
    <TTGlyph name="ampersand" xMin="47" yMin="-10" xMax="633" yMax="710">
      <contour>
        <pt x="542" y="330" on="1"/>
        <pt x="522" y="210" on="1"/>
        <pt x="505" y="106" on="0"/>
        <pt x="359" y="-10" on="0"/>
        <pt x="145" y="-10" on="0"/>
        <pt x="47" y="78" on="0"/>
        <pt x="47" y="231" on="0"/>
        <pt x="139" y="344" on="0"/>
        <pt x="212" y="380" on="1"/>
        <pt x="202" y="383" on="0"/>
        <pt x="163" y="406" on="0"/>
        <pt x="138" y="430" on="0"/>
        <pt x="118" y="474" on="0"/>
        <pt x="118" y="499" on="1"/>
        <pt x="118" y="600" on="0"/>
        <pt x="258" y="710" on="0"/>
        <pt x="375" y="710" on="1"/>
        <pt x="415" y="710" on="0"/>
        <pt x="505" y="690" on="0"/>
        <pt x="530" y="680" on="1"/>
        <pt x="555" y="671" on="1"/>
        <pt x="530" y="530" on="1"/>
        <pt x="467" y="530" on="1"/>
        <pt x="460" y="610" on="1"/>
        <pt x="422" y="625" on="0"/>
        <pt x="292" y="625" on="0"/>
        <pt x="219" y="560" on="0"/>
        <pt x="219" y="463" on="0"/>
        <pt x="283" y="410" on="0"/>
        <pt x="335" y="410" on="1"/>
        <pt x="633" y="410" on="1"/>
        <pt x="623" y="350" on="1"/>
      </contour>
      <contour>
        <pt x="423" y="205" on="1"/>
        <pt x="443" y="330" on="1"/>
        <pt x="312" y="330" on="1"/>
        <pt x="246" y="330" on="0"/>
        <pt x="152" y="240" on="0"/>
        <pt x="152" y="170" on="1"/>
        <pt x="152" y="124" on="0"/>
        <pt x="213" y="75" on="0"/>
        <pt x="330" y="75" on="0"/>
        <pt x="413" y="142" on="0"/>
      </contour>
    </TTGlyph>
    <TTGlyph name="aogonek" xMin="50" yMin="-220" xMax="560" yMax="540">
      <contour>
        <pt x="365" y="0" on="1"/>
        <pt x="550" y="10" on="1"/>
        <pt x="530" y="4" on="1"/>
        <pt x="325" y="-53" on="0"/>
        <pt x="325" y="-124" on="1"/>
        <pt x="325" y="-141" on="0"/>
        <pt x="347" y="-160" on="0"/>
        <pt x="369" y="-160" on="0"/>
        <pt x="382" y="-159" on="0"/>
        <pt x="388" y="-158" on="1"/>
        <pt x="398" y="-155" on="0"/>
        <pt x="410" y="-153" on="1"/>
        <pt x="410" y="-200" on="1"/>
        <pt x="368" y="-220" on="0"/>
        <pt x="293" y="-220" on="0"/>
        <pt x="245" y="-177" on="0"/>
        <pt x="245" y="-94" on="0"/>
        <pt x="313" y="-28" on="0"/>
      </contour>
      <contour>
        <pt x="473" y="80" on="1"/>
        <pt x="560" y="65" on="1"/>
        <pt x="551" y="10" on="1"/>
        <pt x="365" y="0" on="1"/>
        <pt x="405" y="184" on="1"/>
        <pt x="365" y="104" on="0"/>
        <pt x="314" y="54" on="1"/>
        <pt x="291" y="30" on="0"/>
        <pt x="218" y="-10" on="0"/>
        <pt x="181" y="-10" on="1"/>
        <pt x="125" y="-10" on="0"/>
        <pt x="50" y="90" on="0"/>
        <pt x="50" y="165" on="1"/>
        <pt x="50" y="339" on="0"/>
        <pt x="227" y="540" on="0"/>
        <pt x="348" y="540" on="1"/>
        <pt x="377" y="540" on="0"/>
        <pt x="433" y="525" on="0"/>
        <pt x="446" y="518" on="1"/>
        <pt x="460" y="510" on="1"/>
        <pt x="490" y="530" on="1"/>
        <pt x="545" y="530" on="1"/>
      </contour>
      <contour>
        <pt x="418" y="345" on="1"/>
        <pt x="438" y="450" on="1"/>
        <pt x="400" y="465" on="0"/>
        <pt x="348" y="465" on="1"/>
        <pt x="268" y="465" on="0"/>
        <pt x="150" y="320" on="0"/>
        <pt x="150" y="180" on="1"/>
        <pt x="150" y="129" on="0"/>
        <pt x="184" y="75" on="0"/>
        <pt x="245" y="75" on="0"/>
        <pt x="312" y="131" on="0"/>
        <pt x="336" y="170" on="1"/>
        <pt x="388" y="255" on="0"/>
        <pt x="408" y="317" on="1"/>
      </contour>
    </TTGlyph>
    <TTGlyph name="approxequal" xMin="47" yMin="100" xMax="579" yMax="410">
      <contour>
        <pt x="579" y="369" on="1"/>
        <pt x="501" y="265" on="0"/>
        <pt x="420" y="265" on="1"/>
        <pt x="373" y="265" on="0"/>
        <pt x="247" y="335" on="0"/>
        <pt x="186" y="335" on="0"/>
        <pt x="138" y="307" on="0"/>
        <pt x="126" y="293" on="1"/>
        <pt x="113" y="279" on="1"/>
        <pt x="73" y="310" on="1"/>
        <pt x="79" y="321" on="0"/>
        <pt x="117" y="362" on="0"/>
        <pt x="135" y="375" on="1"/>
        <pt x="183" y="410" on="0"/>
        <pt x="284" y="410" on="0"/>
        <pt x="399" y="340" on="0"/>
        <pt x="461" y="340" on="0"/>
        <pt x="511" y="370" on="0"/>
        <pt x="524" y="385" on="1"/>
        <pt x="538" y="400" on="1"/>
      </contour>
      <contour>
        <pt x="552" y="204" on="1"/>
        <pt x="474" y="100" on="0"/>
        <pt x="394" y="100" on="1"/>
        <pt x="347" y="100" on="0"/>
        <pt x="221" y="170" on="0"/>
        <pt x="160" y="170" on="0"/>
        <pt x="111" y="142" on="0"/>
        <pt x="99" y="128" on="1"/>
        <pt x="87" y="114" on="1"/>
        <pt x="47" y="145" on="1"/>
        <pt x="53" y="156" on="0"/>
        <pt x="91" y="197" on="0"/>
        <pt x="109" y="210" on="1"/>
        <pt x="157" y="245" on="0"/>
        <pt x="258" y="245" on="0"/>
        <pt x="373" y="175" on="0"/>
        <pt x="435" y="175" on="0"/>
        <pt x="485" y="205" on="0"/>
        <pt x="498" y="220" on="1"/>
        <pt x="512" y="235" on="1"/>
      </contour>
    </TTGlyph>
    <TTGlyph name="aring" xMin="45" yMin="-10" xMax="555" yMax="820">
      <component glyphName="a" x="0" y="0" flags="0x1004"/>
      <component glyphName="ring" x="210" y="0" flags="0x1004"/>
    </TTGlyph>
    <TTGlyph name="asciicircum" xMin="33" yMin="320" xMax="474" yMax="700">
      <contour>
        <pt x="298" y="600" on="1"/>
        <pt x="119" y="320" on="1"/>
        <pt x="33" y="320" on="1"/>
        <pt x="281" y="700" on="1"/>
        <pt x="349" y="700" on="1"/>
        <pt x="474" y="320" on="1"/>
        <pt x="391" y="320" on="1"/>
      </contour>
    </TTGlyph>
    <TTGlyph name="asciitilde" xMin="60" yMin="195" xMax="565" yMax="345">
      <contour>
        <pt x="565" y="299" on="1"/>
        <pt x="487" y="195" on="0"/>
        <pt x="407" y="195" on="1"/>
        <pt x="360" y="195" on="0"/>
        <pt x="234" y="265" on="0"/>
        <pt x="173" y="265" on="0"/>
        <pt x="124" y="237" on="0"/>
        <pt x="112" y="223" on="1"/>
        <pt x="100" y="209" on="1"/>
        <pt x="60" y="244" on="1"/>
        <pt x="65" y="255" on="0"/>
        <pt x="104" y="297" on="0"/>
        <pt x="122" y="310" on="1"/>
        <pt x="170" y="345" on="0"/>
        <pt x="271" y="345" on="0"/>
        <pt x="386" y="275" on="0"/>
        <pt x="448" y="275" on="0"/>
        <pt x="498" y="304" on="0"/>
        <pt x="511" y="319" on="1"/>
        <pt x="524" y="334" on="1"/>
      </contour>
    </TTGlyph>
    <TTGlyph name="asterisk" xMin="80" yMin="415" xMax="412" yMax="735">
      <contour>
        <pt x="248" y="586" on="1"/>
        <pt x="226" y="609" on="1"/>
        <pt x="234" y="733" on="1"/>
        <pt x="305" y="735" on="1"/>
        <pt x="278" y="608" on="1"/>
        <pt x="398" y="657" on="1"/>
        <pt x="412" y="587" on="1"/>
        <pt x="285" y="558" on="1"/>
        <pt x="351" y="459" on="1"/>
        <pt x="288" y="415" on="1"/>
        <pt x="238" y="528" on="1"/>
        <pt x="252" y="562" on="1"/>
        <pt x="285" y="558" on="1"/>
        <pt x="260" y="577" on="1"/>
        <pt x="278" y="608" on="1"/>
      </contour>
      <contour>
        <pt x="226" y="609" on="1"/>
        <pt x="234" y="577" on="1"/>
        <pt x="202" y="560" on="1"/>
        <pt x="236" y="562" on="1"/>
        <pt x="238" y="528" on="1"/>
        <pt x="156" y="415" on="1"/>
        <pt x="104" y="457" on="1"/>
        <pt x="202" y="560" on="1"/>
        <pt x="80" y="585" on="1"/>
        <pt x="115" y="655" on="1"/>
      </contour>
    </TTGlyph>
    <TTGlyph name="at" xMin="60" yMin="-10" xMax="760" yMax="710">
      <contour>
        <pt x="486" y="277" on="1"/>
        <pt x="457" y="204" on="0"/>
        <pt x="396" y="172" on="1"/>
        <pt x="371" y="159" on="0"/>
        <pt x="343" y="159" on="1"/>
        <pt x="296" y="159" on="0"/>
        <pt x="242" y="229" on="0"/>
        <pt x="242" y="280" on="1"/>
        <pt x="242" y="404" on="0"/>
        <pt x="364" y="544" on="0"/>
        <pt x="447" y="544" on="1"/>
        <pt x="488" y="544" on="0"/>
        <pt x="518" y="526" on="1"/>
        <pt x="528" y="521" on="1"/>
        <pt x="546" y="536" on="1"/>
        <pt x="589" y="536" on="1"/>
        <pt x="553" y="309" on="1"/>
        <pt x="549" y="277" on="0"/>
        <pt x="549" y="270" on="1"/>
        <pt x="549" y="224" on="0"/>
        <pt x="583" y="224" on="1"/>
        <pt x="630" y="224" on="0"/>
        <pt x="680" y="349" on="0"/>
        <pt x="680" y="418" on="1"/>
        <pt x="680" y="521" on="0"/>
        <pt x="562" y="635" on="0"/>
        <pt x="357" y="635" on="0"/>
        <pt x="216" y="536" on="0"/>
        <pt x="144" y="373" on="0"/>
        <pt x="144" y="172" on="0"/>
        <pt x="250" y="65" on="0"/>
        <pt x="349" y="65" on="1"/>
        <pt x="402" y="65" on="0"/>
        <pt x="454" y="84" on="1"/>
        <pt x="471" y="90" on="1"/>
        <pt x="501" y="30" on="1"/>
        <pt x="431" y="-10" on="0"/>
        <pt x="332" y="-10" on="1"/>
        <pt x="200" y="-10" on="0"/>
        <pt x="60" y="128" on="0"/>
        <pt x="60" y="382" on="0"/>
        <pt x="151" y="585" on="0"/>
        <pt x="339" y="710" on="0"/>
        <pt x="608" y="710" on="0"/>
        <pt x="760" y="565" on="0"/>
        <pt x="760" y="435" on="1"/>
        <pt x="760" y="325" on="0"/>
        <pt x="659" y="159" on="0"/>
        <pt x="568" y="159" on="1"/>
        <pt x="515" y="159" on="0"/>
        <pt x="498" y="197" on="1"/>
        <pt x="485" y="228" on="0"/>
        <pt x="485" y="258" on="1"/>
      </contour>
      <contour>
        <pt x="492" y="403" on="1"/>
        <pt x="507" y="472" on="1"/>
        <pt x="482" y="483" on="0"/>
        <pt x="446" y="483" on="1"/>
        <pt x="398" y="483" on="0"/>
        <pt x="320" y="384" on="0"/>
        <pt x="320" y="226" on="0"/>
        <pt x="360" y="226" on="1"/>
        <pt x="382" y="226" on="0"/>
        <pt x="426" y="262" on="0"/>
        <pt x="441" y="288" on="1"/>
        <pt x="471" y="340" on="0"/>
        <pt x="486" y="385" on="1"/>
      </contour>
    </TTGlyph>
    <TTGlyph name="atilde" xMin="45" yMin="-10" xMax="555" yMax="764">
      <component glyphName="a" x="0" y="0" flags="0x1004"/>
      <component glyphName="tilde" x="164" y="0" flags="0x1004"/>
    </TTGlyph>
    <TTGlyph name="b" xMin="55" yMin="-10" xMax="545" yMax="770">
      <contour>
        <pt x="271" y="770" on="1"/>
        <pt x="232" y="530" on="1"/>
        <pt x="192" y="346" on="1"/>
        <pt x="202" y="373" on="0"/>
        <pt x="251" y="450" on="0"/>
        <pt x="299" y="501" on="0"/>
        <pt x="372" y="540" on="0"/>
        <pt x="411" y="540" on="1"/>
        <pt x="475" y="540" on="0"/>
        <pt x="545" y="436" on="0"/>
        <pt x="545" y="360" on="1"/>
        <pt x="545" y="195" on="0"/>
        <pt x="361" y="-10" on="0"/>
        <pt x="236" y="-10" on="1"/>
        <pt x="151" y="-10" on="0"/>
        <pt x="79" y="12" on="1"/>
        <pt x="55" y="20" on="1"/>
        <pt x="162" y="690" on="1"/>
        <pt x="79" y="710" on="1"/>
        <pt x="88" y="765" on="1"/>
      </contour>
      <contour>
        <pt x="183" y="185" on="1"/>
        <pt x="162" y="80" on="1"/>
        <pt x="201" y="65" on="0"/>
        <pt x="246" y="65" on="1"/>
        <pt x="320" y="65" on="0"/>
        <pt x="445" y="213" on="0"/>
        <pt x="445" y="345" on="1"/>
        <pt x="445" y="392" on="0"/>
        <pt x="411" y="455" on="0"/>
        <pt x="342" y="455" on="0"/>
        <pt x="277" y="399" on="0"/>
        <pt x="255" y="360" on="1"/>
        <pt x="210" y="278" on="0"/>
        <pt x="191" y="213" on="1"/>
      </contour>
    </TTGlyph>
    <TTGlyph name="backslash" xMin="89" yMin="0" xMax="392" yMax="700">
      <contour>
        <pt x="178" y="700" on="1"/>
        <pt x="392" y="0" on="1"/>
        <pt x="303" y="0" on="1"/>
        <pt x="89" y="700" on="1"/>
      </contour>
    </TTGlyph>
    <TTGlyph name="bar" xMin="15" yMin="-230" xMax="250" yMax="755">
      <contour>
        <pt x="93" y="-230" on="1"/>
        <pt x="15" y="-230" on="1"/>
        <pt x="172" y="755" on="1"/>
        <pt x="250" y="755" on="1"/>
      </contour>
    </TTGlyph>
    <TTGlyph name="braceleft" xMin="33" yMin="-225" xMax="416" yMax="775">
      <contour>
        <pt x="241" y="434" on="1"/>
        <pt x="224" y="328" on="0"/>
        <pt x="131" y="295" on="1"/>
        <pt x="199" y="268" on="0"/>
        <pt x="199" y="190" on="1"/>
        <pt x="199" y="174" on="0"/>
        <pt x="196" y="156" on="1"/>
        <pt x="162" y="-55" on="1"/>
        <pt x="159" y="-74" on="0"/>
        <pt x="159" y="-89" on="1"/>
        <pt x="159" y="-128" on="0"/>
        <pt x="208" y="-160" on="0"/>
        <pt x="267" y="-160" on="1"/>
        <pt x="256" y="-225" on="1"/>
        <pt x="219" y="-225" on="1"/>
        <pt x="139" y="-225" on="0"/>
        <pt x="67" y="-171" on="0"/>
        <pt x="67" y="-108" on="1"/>
        <pt x="67" y="-88" on="0"/>
        <pt x="72" y="-55" on="1"/>
        <pt x="106" y="156" on="1"/>
        <pt x="109" y="174" on="0"/>
        <pt x="109" y="225" on="0"/>
        <pt x="75" y="260" on="0"/>
        <pt x="33" y="260" on="1"/>
        <pt x="45" y="330" on="1"/>
        <pt x="96" y="330" on="0"/>
        <pt x="143" y="384" on="0"/>
        <pt x="151" y="434" on="1"/>
        <pt x="179" y="605" on="1"/>
        <pt x="194" y="698" on="0"/>
        <pt x="286" y="775" on="0"/>
        <pt x="380" y="775" on="1"/>
        <pt x="416" y="775" on="1"/>
        <pt x="407" y="710" on="1"/>
        <pt x="336" y="710" on="0"/>
        <pt x="281" y="666" on="0"/>
        <pt x="270" y="605" on="1"/>
      </contour>
    </TTGlyph>
    <TTGlyph name="braceright" xMin="-38" yMin="-225" xMax="354" yMax="775">
      <contour>
        <pt x="354" y="330" on="1"/>
        <pt x="343" y="260" on="1"/>
        <pt x="291" y="260" on="0"/>
        <pt x="241" y="206" on="0"/>
        <pt x="234" y="156" on="1"/>
        <pt x="201" y="-55" on="1"/>
        <pt x="186" y="-147" on="0"/>
        <pt x="93" y="-225" on="0"/>
        <pt x="3" y="-225" on="1"/>
        <pt x="-38" y="-225" on="1"/>
        <pt x="-27" y="-160" on="1"/>
        <pt x="42" y="-160" on="0"/>
        <pt x="102" y="-115" on="0"/>
        <pt x="111" y="-55" on="1"/>
        <pt x="144" y="156" on="1"/>
        <pt x="160" y="261" on="0"/>
        <pt x="256" y="295" on="1"/>
        <pt x="184" y="324" on="0"/>
        <pt x="184" y="402" on="1"/>
        <pt x="184" y="418" on="0"/>
        <pt x="187" y="434" on="1"/>
        <pt x="216" y="605" on="1"/>
        <pt x="219" y="623" on="0"/>
        <pt x="219" y="638" on="1"/>
        <pt x="219" y="678" on="0"/>
        <pt x="171" y="710" on="0"/>
        <pt x="111" y="710" on="1"/>
        <pt x="122" y="775" on="1"/>
        <pt x="164" y="775" on="1"/>
        <pt x="240" y="775" on="0"/>
        <pt x="311" y="721" on="0"/>
        <pt x="311" y="658" on="1"/>
        <pt x="311" y="638" on="0"/>
        <pt x="306" y="605" on="1"/>
        <pt x="277" y="434" on="1"/>
        <pt x="274" y="416" on="0"/>
        <pt x="274" y="401" on="1"/>
        <pt x="274" y="330" on="0"/>
      </contour>
    </TTGlyph>
    <TTGlyph name="bracketleft" xMin="22" yMin="-230" xMax="391" yMax="770">
      <contour>
        <pt x="246" y="-160" on="1"/>
        <pt x="236" y="-225" on="1"/>
        <pt x="22" y="-230" on="1"/>
        <pt x="181" y="770" on="1"/>
        <pt x="391" y="765" on="1"/>
        <pt x="381" y="700" on="1"/>
        <pt x="261" y="689" on="1"/>
        <pt x="128" y="-149" on="1"/>
      </contour>
    </TTGlyph>
    <TTGlyph name="bracketright" xMin="-36" yMin="-230" xMax="333" yMax="770">
      <contour>
        <pt x="109" y="700" on="1"/>
        <pt x="120" y="765" on="1"/>
        <pt x="333" y="770" on="1"/>
        <pt x="174" y="-230" on="1"/>
        <pt x="-36" y="-225" on="1"/>
        <pt x="-27" y="-160" on="1"/>
        <pt x="94" y="-149" on="1"/>
        <pt x="227" y="689" on="1"/>
      </contour>
    </TTGlyph>
    <TTGlyph name="breve" xMin="92" yMin="625" xMax="368" yMax="775">
      <contour>
        <pt x="309" y="770" on="1"/>
        <pt x="368" y="775" on="1"/>
        <pt x="358" y="709" on="0"/>
        <pt x="263" y="625" on="0"/>
        <pt x="155" y="625" on="0"/>
        <pt x="92" y="694" on="0"/>
        <pt x="92" y="744" on="1"/>
        <pt x="94" y="770" on="1"/>
        <pt x="153" y="775" on="1"/>
        <pt x="153" y="743" on="0"/>
        <pt x="189" y="700" on="0"/>
        <pt x="252" y="700" on="0"/>
        <pt x="297" y="735" on="0"/>
        <pt x="303" y="752" on="1"/>
      </contour>
    </TTGlyph>
    <TTGlyph name="breve.i" xMin="97" yMin="625" xMax="363" yMax="775">
      <contour>
        <pt x="304" y="770" on="1"/>
        <pt x="363" y="775" on="1"/>
        <pt x="353" y="709" on="0"/>
        <pt x="262" y="625" on="0"/>
        <pt x="159" y="625" on="0"/>
        <pt x="97" y="695" on="0"/>
        <pt x="97" y="744" on="1"/>
        <pt x="99" y="770" on="1"/>
        <pt x="158" y="775" on="1"/>
        <pt x="158" y="742" on="0"/>
        <pt x="192" y="700" on="0"/>
        <pt x="251" y="700" on="0"/>
        <pt x="293" y="735" on="0"/>
        <pt x="298" y="752" on="1"/>
      </contour>
    </TTGlyph>
    <TTGlyph name="brokenbar" xMin="15" yMin="-265" xMax="257" yMax="765">
      <contour>
        <pt x="193" y="365" on="1"/>
        <pt x="115" y="365" on="1"/>
        <pt x="179" y="765" on="1"/>
        <pt x="257" y="765" on="1"/>
      </contour>
      <contour>
        <pt x="93" y="-265" on="1"/>
        <pt x="15" y="-265" on="1"/>
        <pt x="80" y="145" on="1"/>
        <pt x="158" y="145" on="1"/>
      </contour>
    </TTGlyph>
    <TTGlyph name="bullet" xMin="75" yMin="140" xMax="415" yMax="490">
      <contour>
        <pt x="170" y="140" on="0"/>
        <pt x="75" y="225" on="0"/>
        <pt x="75" y="392" on="0"/>
        <pt x="181" y="490" on="0"/>
        <pt x="319" y="490" on="0"/>
        <pt x="415" y="402" on="0"/>
        <pt x="415" y="235" on="0"/>
        <pt x="310" y="140" on="0"/>
      </contour>
    </TTGlyph>
    <TTGlyph name="c" xMin="35" yMin="-10" xMax="470" yMax="540">
      <contour>
        <pt x="383" y="365" on="1"/>
        <pt x="380" y="450" on="1"/>
        <pt x="356" y="460" on="0"/>
        <pt x="315" y="460" on="1"/>
        <pt x="233" y="460" on="0"/>
        <pt x="135" y="295" on="0"/>
        <pt x="135" y="70" on="0"/>
        <pt x="230" y="70" on="1"/>
        <pt x="261" y="70" on="0"/>
        <pt x="336" y="92" on="0"/>
        <pt x="358" y="104" on="1"/>
        <pt x="380" y="115" on="1"/>
        <pt x="410" y="65" on="1"/>
        <pt x="399" y="57" on="0"/>
        <pt x="360" y="32" on="0"/>
        <pt x="254" y="-10" on="0"/>
        <pt x="210" y="-10" on="1"/>
        <pt x="132" y="-10" on="0"/>
        <pt x="35" y="88" on="0"/>
        <pt x="35" y="175" on="1"/>
        <pt x="35" y="338" on="0"/>
        <pt x="201" y="540" on="0"/>
        <pt x="330" y="540" on="1"/>
        <pt x="366" y="540" on="0"/>
        <pt x="436" y="520" on="0"/>
        <pt x="453" y="510" on="1"/>
        <pt x="470" y="500" on="1"/>
        <pt x="448" y="365" on="1"/>
      </contour>
    </TTGlyph>
    <TTGlyph name="cacute" xMin="35" yMin="-10" xMax="477" yMax="803">
      <contour>
        <pt x="315" y="460" on="1"/>
        <pt x="233" y="460" on="0"/>
        <pt x="135" y="295" on="0"/>
        <pt x="135" y="70" on="0"/>
        <pt x="230" y="70" on="1"/>
        <pt x="300" y="70" on="0"/>
        <pt x="380" y="115" on="1"/>
        <pt x="410" y="65" on="1"/>
        <pt x="382" y="46" on="1"/>
        <pt x="354" y="27" on="0"/>
        <pt x="254" y="-10" on="0"/>
        <pt x="210" y="-10" on="1"/>
        <pt x="132" y="-10" on="0"/>
        <pt x="35" y="88" on="0"/>
        <pt x="35" y="175" on="1"/>
        <pt x="35" y="338" on="0"/>
        <pt x="201" y="540" on="0"/>
        <pt x="330" y="540" on="1"/>
        <pt x="410" y="540" on="0"/>
        <pt x="470" y="500" on="1"/>
        <pt x="448" y="365" on="1"/>
        <pt x="383" y="365" on="1"/>
        <pt x="380" y="450" on="1"/>
        <pt x="352" y="460" on="0"/>
      </contour>
      <contour>
        <pt x="477" y="728" on="1"/>
        <pt x="259" y="603" on="1"/>
        <pt x="228" y="656" on="1"/>
        <pt x="434" y="803" on="1"/>
      </contour>
    </TTGlyph>
    <TTGlyph name="caron" xMin="0" yMin="616" xMax="339" yMax="796">
      <contour>
        <pt x="163" y="691" on="1"/>
        <pt x="312" y="796" on="1"/>
        <pt x="339" y="751" on="1"/>
        <pt x="180" y="616" on="1"/>
        <pt x="122" y="616" on="1"/>
        <pt x="0" y="751" on="1"/>
        <pt x="48" y="796" on="1"/>
      </contour>
    </TTGlyph>
    <TTGlyph name="caron.Cup" xMin="0" yMin="751" xMax="339" yMax="912">
      <contour>
        <pt x="163" y="826" on="1"/>
        <pt x="312" y="912" on="1"/>
        <pt x="339" y="867" on="1"/>
        <pt x="180" y="751" on="1"/>
        <pt x="122" y="751" on="1"/>
        <pt x="0" y="867" on="1"/>
        <pt x="48" y="912" on="1"/>
      </contour>
    </TTGlyph>
    <TTGlyph name="ccaron" xMin="35" yMin="-10" xMax="522" yMax="796">
      <contour>
        <pt x="315" y="460" on="1"/>
        <pt x="233" y="460" on="0"/>
        <pt x="135" y="295" on="0"/>
        <pt x="135" y="70" on="0"/>
        <pt x="230" y="70" on="1"/>
        <pt x="300" y="70" on="0"/>
        <pt x="380" y="115" on="1"/>
        <pt x="410" y="65" on="1"/>
        <pt x="382" y="46" on="1"/>
        <pt x="354" y="27" on="0"/>
        <pt x="254" y="-10" on="0"/>
        <pt x="210" y="-10" on="1"/>
        <pt x="132" y="-10" on="0"/>
        <pt x="35" y="88" on="0"/>
        <pt x="35" y="175" on="1"/>
        <pt x="35" y="338" on="0"/>
        <pt x="201" y="540" on="0"/>
        <pt x="330" y="540" on="1"/>
        <pt x="410" y="540" on="0"/>
        <pt x="470" y="500" on="1"/>
        <pt x="448" y="365" on="1"/>
        <pt x="383" y="365" on="1"/>
        <pt x="380" y="450" on="1"/>
        <pt x="352" y="460" on="0"/>
      </contour>
      <contour>
        <pt x="346" y="691" on="1"/>
        <pt x="495" y="796" on="1"/>
        <pt x="522" y="751" on="1"/>
        <pt x="363" y="616" on="1"/>
        <pt x="305" y="616" on="1"/>
        <pt x="183" y="751" on="1"/>
        <pt x="231" y="796" on="1"/>
      </contour>
    </TTGlyph>
    <TTGlyph name="ccedilla" xMin="35" yMin="-219" xMax="470" yMax="540">
      <component glyphName="c" x="0" y="0" flags="0x1004"/>
      <component glyphName="cedilla" x="-8" y="0" flags="0x1004"/>
    </TTGlyph>
    <TTGlyph name="ccircumflex" xMin="35" yMin="-10" xMax="503" yMax="797">
      <contour>
        <pt x="315" y="460" on="1"/>
        <pt x="233" y="460" on="0"/>
        <pt x="135" y="295" on="0"/>
        <pt x="135" y="70" on="0"/>
        <pt x="230" y="70" on="1"/>
        <pt x="300" y="70" on="0"/>
        <pt x="380" y="115" on="1"/>
        <pt x="410" y="65" on="1"/>
        <pt x="382" y="46" on="1"/>
        <pt x="354" y="27" on="0"/>
        <pt x="254" y="-10" on="0"/>
        <pt x="210" y="-10" on="1"/>
        <pt x="132" y="-10" on="0"/>
        <pt x="35" y="88" on="0"/>
        <pt x="35" y="175" on="1"/>
        <pt x="35" y="338" on="0"/>
        <pt x="201" y="540" on="0"/>
        <pt x="330" y="540" on="1"/>
        <pt x="410" y="540" on="0"/>
        <pt x="470" y="500" on="1"/>
        <pt x="448" y="365" on="1"/>
        <pt x="383" y="365" on="1"/>
        <pt x="380" y="450" on="1"/>
        <pt x="352" y="460" on="0"/>
      </contour>
      <contour>
        <pt x="457" y="617" on="1"/>
        <pt x="342" y="715" on="1"/>
        <pt x="193" y="617" on="1"/>
        <pt x="160" y="662" on="1"/>
        <pt x="322" y="792" on="1"/>
        <pt x="381" y="797" on="1"/>
        <pt x="503" y="662" on="1"/>
      </contour>
    </TTGlyph>
    <TTGlyph name="cdotaccent" xMin="35" yMin="-10" xMax="470" yMax="765">
      <component glyphName="c" x="0" y="0" flags="0x1004"/>
      <component glyphName="dotaccent" x="251" y="0" flags="0x1004"/>
    </TTGlyph>
    <TTGlyph name="cedilla" xMin="108" yMin="-219" xMax="326" yMax="0">
      <contour>
        <pt x="138" y="-155" on="1"/>
        <pt x="169" y="-171" on="0"/>
        <pt x="227" y="-171" on="0"/>
        <pt x="262" y="-144" on="0"/>
        <pt x="262" y="-122" on="1"/>
        <pt x="262" y="-79" on="0"/>
        <pt x="189" y="-79" on="1"/>
        <pt x="202" y="0" on="1"/>
        <pt x="261" y="0" on="1"/>
        <pt x="254" y="-43" on="1"/>
        <pt x="326" y="-56" on="0"/>
        <pt x="326" y="-115" on="1"/>
        <pt x="326" y="-159" on="0"/>
        <pt x="258" y="-219" on="0"/>
        <pt x="220" y="-219" on="1"/>
        <pt x="150" y="-219" on="0"/>
        <pt x="119" y="-202" on="1"/>
        <pt x="108" y="-196" on="1"/>
      </contour>
    </TTGlyph>
    <TTGlyph name="cent" xMin="45" yMin="0" xMax="480" yMax="699">
      <contour>
        <pt x="390" y="436" on="1"/>
        <pt x="390" y="521" on="1"/>
        <pt x="366" y="531" on="0"/>
        <pt x="325" y="531" on="1"/>
        <pt x="242" y="531" on="0"/>
        <pt x="145" y="404" on="0"/>
        <pt x="145" y="307" on="1"/>
        <pt x="145" y="256" on="0"/>
        <pt x="207" y="191" on="0"/>
        <pt x="255" y="191" on="1"/>
        <pt x="322" y="191" on="0"/>
        <pt x="385" y="227" on="1"/>
        <pt x="399" y="235" on="0"/>
        <pt x="400" y="236" on="1"/>
        <pt x="430" y="186" on="1"/>
        <pt x="350" y="129" on="0"/>
        <pt x="264" y="114" on="1"/>
        <pt x="246" y="0" on="1"/>
        <pt x="173" y="0" on="1"/>
        <pt x="191" y="114" on="1"/>
        <pt x="128" y="125" on="0"/>
        <pt x="45" y="224" on="0"/>
        <pt x="45" y="290" on="1"/>
        <pt x="45" y="421" on="0"/>
        <pt x="168" y="584" on="0"/>
        <pt x="272" y="604" on="1"/>
        <pt x="287" y="694" on="1"/>
        <pt x="361" y="699" on="1"/>
        <pt x="346" y="611" on="1"/>
        <pt x="380" y="610" on="0"/>
        <pt x="447" y="590" on="0"/>
        <pt x="464" y="580" on="1"/>
        <pt x="480" y="571" on="1"/>
        <pt x="455" y="436" on="1"/>
      </contour>
    </TTGlyph>
    <TTGlyph name="circumflex" xMin="0" yMin="617" xMax="343" yMax="797">
      <contour>
        <pt x="297" y="617" on="1"/>
        <pt x="182" y="715" on="1"/>
        <pt x="33" y="617" on="1"/>
        <pt x="0" y="662" on="1"/>
        <pt x="162" y="792" on="1"/>
        <pt x="221" y="797" on="1"/>
        <pt x="343" y="662" on="1"/>
      </contour>
    </TTGlyph>
    <TTGlyph name="circumflex.Cup" xMin="0" yMin="750" xMax="343" yMax="910">
      <contour>
        <pt x="296" y="750" on="1"/>
        <pt x="181" y="833" on="1"/>
        <pt x="32" y="750" on="1"/>
        <pt x="0" y="795" on="1"/>
        <pt x="161" y="905" on="1"/>
        <pt x="220" y="910" on="1"/>
        <pt x="343" y="795" on="1"/>
      </contour>
    </TTGlyph>
    <TTGlyph name="circumflex.Cup.I" xMin="0" yMin="750" xMax="333" yMax="910">
      <contour>
        <pt x="286" y="750" on="1"/>
        <pt x="176" y="833" on="1"/>
        <pt x="32" y="750" on="1"/>
        <pt x="0" y="795" on="1"/>
        <pt x="156" y="905" on="1"/>
        <pt x="215" y="910" on="1"/>
        <pt x="333" y="795" on="1"/>
      </contour>
    </TTGlyph>
    <TTGlyph name="circumflex.i" xMin="5" yMin="617" xMax="338" yMax="797">
      <contour>
        <pt x="289" y="617" on="1"/>
        <pt x="182" y="715" on="1"/>
        <pt x="40" y="617" on="1"/>
        <pt x="5" y="662" on="1"/>
        <pt x="162" y="792" on="1"/>
        <pt x="221" y="797" on="1"/>
        <pt x="338" y="662" on="1"/>
      </contour>
    </TTGlyph>
    <TTGlyph name="circumflex.x" xMin="76" yMin="635" xMax="428" yMax="820">
      <contour>
        <pt x="382" y="635" on="1"/>
        <pt x="264" y="743" on="1"/>
        <pt x="108" y="635" on="1"/>
        <pt x="76" y="680" on="1"/>
        <pt x="244" y="815" on="1"/>
        <pt x="303" y="820" on="1"/>
        <pt x="428" y="680" on="1"/>
      </contour>
    </TTGlyph>
    <TTGlyph name="colon" xMin="40" yMin="-10" xMax="223" yMax="455">
      <contour>
        <pt x="40" y="45" on="1"/>
        <pt x="40" y="80" on="0"/>
        <pt x="81" y="130" on="0"/>
        <pt x="117" y="130" on="1"/>
        <pt x="172" y="130" on="0"/>
        <pt x="172" y="75" on="1"/>
        <pt x="172" y="41" on="0"/>
        <pt x="131" y="-10" on="0"/>
        <pt x="94" y="-10" on="1"/>
        <pt x="40" y="-10" on="0"/>
      </contour>
      <contour>
        <pt x="91" y="370" on="1"/>
        <pt x="91" y="405" on="0"/>
        <pt x="132" y="455" on="0"/>
        <pt x="168" y="455" on="1"/>
        <pt x="223" y="455" on="0"/>
        <pt x="223" y="400" on="1"/>
        <pt x="223" y="366" on="0"/>
        <pt x="182" y="315" on="0"/>
        <pt x="145" y="315" on="1"/>
        <pt x="91" y="315" on="0"/>
      </contour>
    </TTGlyph>
    <TTGlyph name="comma" xMin="-15" yMin="-154" xMax="170" yMax="130">
      <contour>
        <pt x="41" y="51" on="1"/>
        <pt x="41" y="82" on="0"/>
        <pt x="83" y="130" on="0"/>
        <pt x="116" y="130" on="1"/>
        <pt x="170" y="130" on="0"/>
        <pt x="170" y="75" on="1"/>
        <pt x="170" y="22" on="0"/>
        <pt x="118" y="-47" on="1"/>
        <pt x="75" y="-104" on="0"/>
        <pt x="38" y="-140" on="1"/>
        <pt x="23" y="-154" on="1"/>
        <pt x="-15" y="-116" on="1"/>
        <pt x="55" y="-36" on="0"/>
        <pt x="55" y="-7" on="1"/>
        <pt x="55" y="2" on="0"/>
        <pt x="41" y="38" on="0"/>
      </contour>
    </TTGlyph>
    <TTGlyph name="commaaccent" xMin="57" yMin="-270" xMax="194" yMax="-37">
      <contour>
        <pt x="98" y="-150" on="1"/>
        <pt x="96" y="-106" on="1"/>
        <pt x="96" y="-76" on="0"/>
        <pt x="121" y="-37" on="0"/>
        <pt x="147" y="-37" on="1"/>
        <pt x="194" y="-37" on="0"/>
        <pt x="194" y="-85" on="1"/>
        <pt x="194" y="-122" on="0"/>
        <pt x="140" y="-214" on="0"/>
        <pt x="112" y="-242" on="1"/>
        <pt x="85" y="-270" on="1"/>
        <pt x="57" y="-245" on="1"/>
        <pt x="81" y="-215" on="0"/>
        <pt x="98" y="-180" on="0"/>
      </contour>
    </TTGlyph>
    <TTGlyph name="copyright" xMin="45" yMin="-10" xMax="775" yMax="710">
      <contour>
        <pt x="45" y="188" on="0"/>
        <pt x="45" y="502" on="0"/>
        <pt x="252" y="710" on="0"/>
        <pt x="569" y="710" on="0"/>
        <pt x="775" y="511" on="0"/>
        <pt x="775" y="198" on="0"/>
        <pt x="559" y="-10" on="0"/>
        <pt x="242" y="-10" on="0"/>
      </contour>
      <contour>
        <pt x="125" y="478" on="0"/>
        <pt x="125" y="222" on="0"/>
        <pt x="278" y="62" on="0"/>
        <pt x="533" y="62" on="0"/>
        <pt x="695" y="223" on="0"/>
        <pt x="695" y="477" on="0"/>
        <pt x="533" y="638" on="0"/>
        <pt x="278" y="638" on="0"/>
      </contour>
      <contour>
        <pt x="410" y="155" on="1"/>
        <pt x="326" y="155" on="0"/>
        <pt x="230" y="251" on="0"/>
        <pt x="230" y="438" on="0"/>
        <pt x="330" y="551" on="0"/>
        <pt x="417" y="551" on="1"/>
        <pt x="445" y="551" on="0"/>
        <pt x="509" y="536" on="0"/>
        <pt x="526" y="528" on="1"/>
        <pt x="544" y="520" on="1"/>
        <pt x="542" y="414" on="1"/>
        <pt x="486" y="414" on="1"/>
        <pt x="472" y="482" on="1"/>
        <pt x="445" y="490" on="0"/>
        <pt x="410" y="490" on="1"/>
        <pt x="315" y="490" on="0"/>
        <pt x="315" y="348" on="1"/>
        <pt x="315" y="220" on="0"/>
        <pt x="415" y="220" on="1"/>
        <pt x="439" y="220" on="0"/>
        <pt x="492" y="242" on="0"/>
        <pt x="507" y="253" on="1"/>
        <pt x="522" y="264" on="1"/>
        <pt x="549" y="218" on="1"/>
        <pt x="542" y="211" on="0"/>
        <pt x="518" y="190" on="0"/>
        <pt x="446" y="155" on="0"/>
      </contour>
    </TTGlyph>
    <TTGlyph name="currency" xMin="25" yMin="58" xMax="552" yMax="538">
      <contour>
        <pt x="25" y="110" on="1"/>
        <pt x="111" y="187" on="1"/>
        <pt x="101" y="211" on="0"/>
        <pt x="101" y="246" on="1"/>
        <pt x="101" y="335" on="0"/>
        <pt x="152" y="402" on="1"/>
        <pt x="84" y="486" on="1"/>
        <pt x="141" y="538" on="1"/>
        <pt x="209" y="455" on="1"/>
        <pt x="265" y="490" on="0"/>
        <pt x="388" y="490" on="0"/>
        <pt x="426" y="463" on="1"/>
        <pt x="513" y="538" on="1"/>
        <pt x="552" y="486" on="1"/>
        <pt x="469" y="412" on="1"/>
        <pt x="481" y="385" on="0"/>
        <pt x="481" y="350" on="1"/>
        <pt x="481" y="258" on="0"/>
        <pt x="428" y="189" on="1"/>
        <pt x="493" y="110" on="1"/>
        <pt x="436" y="58" on="1"/>
        <pt x="371" y="136" on="1"/>
        <pt x="320" y="105" on="0"/>
        <pt x="193" y="105" on="0"/>
        <pt x="152" y="134" on="1"/>
        <pt x="64" y="58" on="1"/>
      </contour>
      <contour>
        <pt x="314" y="421" on="1"/>
        <pt x="258" y="421" on="0"/>
        <pt x="188" y="333" on="0"/>
        <pt x="188" y="259" on="1"/>
        <pt x="188" y="218" on="0"/>
        <pt x="235" y="174" on="0"/>
        <pt x="327" y="174" on="0"/>
        <pt x="394" y="261" on="0"/>
        <pt x="394" y="331" on="1"/>
        <pt x="394" y="421" on="0"/>
      </contour>
    </TTGlyph>
    <TTGlyph name="d" xMin="55" yMin="-10" xMax="584" yMax="770">
      <contour>
        <pt x="472" y="80" on="1"/>
        <pt x="558" y="65" on="1"/>
        <pt x="549" y="10" on="1"/>
        <pt x="366" y="0" on="1"/>
        <pt x="410" y="184" on="1"/>
        <pt x="379" y="114" on="0"/>
        <pt x="322" y="54" on="1"/>
        <pt x="297" y="29" on="0"/>
        <pt x="224" y="-10" on="0"/>
        <pt x="187" y="-10" on="1"/>
        <pt x="129" y="-10" on="0"/>
        <pt x="55" y="89" on="0"/>
        <pt x="55" y="165" on="1"/>
        <pt x="55" y="338" on="0"/>
        <pt x="230" y="540" on="0"/>
        <pt x="351" y="540" on="1"/>
        <pt x="405" y="540" on="0"/>
        <pt x="447" y="518" on="1"/>
        <pt x="475" y="690" on="1"/>
        <pt x="390" y="710" on="1"/>
        <pt x="399" y="765" on="1"/>
        <pt x="584" y="770" on="1"/>
      </contour>
      <contour>
        <pt x="420" y="345" on="1"/>
        <pt x="436" y="450" on="1"/>
        <pt x="401" y="465" on="0"/>
        <pt x="351" y="465" on="1"/>
        <pt x="265" y="465" on="0"/>
        <pt x="155" y="306" on="0"/>
        <pt x="155" y="185" on="1"/>
        <pt x="155" y="132" on="0"/>
        <pt x="188" y="75" on="0"/>
        <pt x="251" y="75" on="0"/>
        <pt x="317" y="131" on="0"/>
        <pt x="340" y="170" on="1"/>
        <pt x="388" y="250" on="0"/>
        <pt x="410" y="317" on="1"/>
      </contour>
    </TTGlyph>
    <TTGlyph name="dagger" xMin="70" yMin="0" xMax="488" yMax="755">
      <contour>
        <pt x="70" y="530" on="1"/>
        <pt x="81" y="600" on="1"/>
        <pt x="247" y="600" on="1"/>
        <pt x="266" y="750" on="1"/>
        <pt x="350" y="755" on="1"/>
        <pt x="321" y="600" on="1"/>
        <pt x="488" y="600" on="1"/>
        <pt x="477" y="530" on="1"/>
        <pt x="266" y="505" on="1"/>
      </contour>
      <contour>
        <pt x="209" y="455" on="1"/>
        <pt x="258" y="445" on="1"/>
        <pt x="312" y="455" on="1"/>
        <pt x="235" y="40" on="1"/>
        <pt x="187" y="0" on="1"/>
        <pt x="152" y="40" on="1"/>
      </contour>
    </TTGlyph>
    <TTGlyph name="daggerdbl" xMin="70" yMin="0" xMax="488" yMax="755">
      <contour>
        <pt x="188" y="303" on="1"/>
        <pt x="233" y="293" on="1"/>
        <pt x="283" y="303" on="1"/>
        <pt x="235" y="40" on="1"/>
        <pt x="187" y="0" on="1"/>
        <pt x="152" y="40" on="1"/>
      </contour>
      <contour>
        <pt x="83" y="396" on="1"/>
        <pt x="95" y="469" on="1"/>
        <pt x="257" y="445" on="1"/>
        <pt x="421" y="469" on="1"/>
        <pt x="409" y="396" on="1"/>
        <pt x="242" y="354" on="1"/>
      </contour>
      <contour>
        <pt x="70" y="530" on="1"/>
        <pt x="81" y="600" on="1"/>
        <pt x="247" y="600" on="1"/>
        <pt x="266" y="750" on="1"/>
        <pt x="350" y="755" on="1"/>
        <pt x="321" y="600" on="1"/>
        <pt x="488" y="600" on="1"/>
        <pt x="477" y="530" on="1"/>
        <pt x="267" y="505" on="1"/>
      </contour>
    </TTGlyph>
    <TTGlyph name="degree" xMin="56" yMin="435" xMax="353" yMax="735">
      <contour>
        <pt x="133" y="435" on="0"/>
        <pt x="56" y="507" on="0"/>
        <pt x="56" y="639" on="0"/>
        <pt x="148" y="735" on="0"/>
        <pt x="277" y="735" on="0"/>
        <pt x="353" y="667" on="0"/>
        <pt x="353" y="536" on="0"/>
        <pt x="260" y="435" on="0"/>
      </contour>
      <contour>
        <pt x="281" y="631" on="0"/>
        <pt x="243" y="670" on="0"/>
        <pt x="175" y="670" on="0"/>
        <pt x="128" y="618" on="0"/>
        <pt x="128" y="540" on="0"/>
        <pt x="166" y="500" on="0"/>
        <pt x="234" y="500" on="0"/>
        <pt x="281" y="553" on="0"/>
      </contour>
    </TTGlyph>
    <TTGlyph name="dieresis" xMin="102" yMin="640" xMax="413" yMax="760">
      <contour>
        <pt x="348" y="640" on="1"/>
        <pt x="303" y="640" on="0"/>
        <pt x="303" y="690" on="1"/>
        <pt x="303" y="716" on="0"/>
        <pt x="339" y="760" on="0"/>
        <pt x="367" y="760" on="1"/>
        <pt x="413" y="760" on="0"/>
        <pt x="413" y="714" on="1"/>
        <pt x="413" y="684" on="0"/>
        <pt x="375" y="640" on="0"/>
      </contour>
      <contour>
        <pt x="147" y="640" on="1"/>
        <pt x="102" y="640" on="0"/>
        <pt x="102" y="690" on="1"/>
        <pt x="102" y="716" on="0"/>
        <pt x="138" y="760" on="0"/>
        <pt x="166" y="760" on="1"/>
        <pt x="212" y="760" on="0"/>
        <pt x="212" y="714" on="1"/>
        <pt x="212" y="684" on="0"/>
        <pt x="174" y="640" on="0"/>
      </contour>
    </TTGlyph>
    <TTGlyph name="dieresis.i" xMin="0" yMin="640" xMax="291" yMax="760">
      <contour>
        <pt x="45" y="640" on="1"/>
        <pt x="0" y="640" on="0"/>
        <pt x="0" y="690" on="1"/>
        <pt x="0" y="716" on="0"/>
        <pt x="36" y="760" on="0"/>
        <pt x="64" y="760" on="1"/>
        <pt x="110" y="760" on="0"/>
        <pt x="110" y="714" on="1"/>
        <pt x="110" y="684" on="0"/>
        <pt x="72" y="640" on="0"/>
      </contour>
      <contour>
        <pt x="226" y="640" on="1"/>
        <pt x="181" y="640" on="0"/>
        <pt x="181" y="690" on="1"/>
        <pt x="181" y="716" on="0"/>
        <pt x="217" y="760" on="0"/>
        <pt x="245" y="760" on="1"/>
        <pt x="291" y="760" on="0"/>
        <pt x="291" y="714" on="1"/>
        <pt x="291" y="684" on="0"/>
        <pt x="253" y="640" on="0"/>
      </contour>
    </TTGlyph>
    <TTGlyph name="divide" xMin="50" yMin="-10" xMax="572" yMax="540">
      <contour>
        <pt x="50" y="225" on="1"/>
        <pt x="63" y="305" on="1"/>
        <pt x="572" y="305" on="1"/>
        <pt x="560" y="225" on="1"/>
      </contour>
      <contour>
        <pt x="212" y="45" on="1"/>
        <pt x="212" y="80" on="0"/>
        <pt x="253" y="130" on="0"/>
        <pt x="289" y="130" on="1"/>
        <pt x="344" y="130" on="0"/>
        <pt x="344" y="75" on="1"/>
        <pt x="344" y="41" on="0"/>
        <pt x="303" y="-10" on="0"/>
        <pt x="266" y="-10" on="1"/>
        <pt x="212" y="-10" on="0"/>
      </contour>
      <contour>
        <pt x="277" y="455" on="1"/>
        <pt x="277" y="490" on="0"/>
        <pt x="318" y="540" on="0"/>
        <pt x="354" y="540" on="1"/>
        <pt x="409" y="540" on="0"/>
        <pt x="409" y="485" on="1"/>
        <pt x="409" y="451" on="0"/>
        <pt x="368" y="400" on="0"/>
        <pt x="331" y="400" on="1"/>
        <pt x="277" y="400" on="0"/>
      </contour>
    </TTGlyph>
    <TTGlyph name="dollar" xMin="40" yMin="-140" xMax="532" yMax="750">
      <contour>
        <pt x="129" y="195" on="1"/>
        <pt x="132" y="93" on="1"/>
        <pt x="175" y="73" on="0"/>
        <pt x="286" y="73" on="0"/>
        <pt x="379" y="132" on="0"/>
        <pt x="379" y="180" on="1"/>
        <pt x="379" y="237" on="0"/>
        <pt x="285" y="272" on="1"/>
        <pt x="246" y="286" on="0"/>
        <pt x="169" y="321" on="0"/>
        <pt x="114" y="388" on="0"/>
        <pt x="114" y="438" on="1"/>
        <pt x="114" y="522" on="0"/>
        <pt x="224" y="622" on="0"/>
        <pt x="307" y="634" on="1"/>
        <pt x="324" y="745" on="1"/>
        <pt x="398" y="750" on="1"/>
        <pt x="380" y="637" on="1"/>
        <pt x="450" y="631" on="0"/>
        <pt x="510" y="608" on="1"/>
        <pt x="532" y="600" on="1"/>
        <pt x="502" y="442" on="1"/>
        <pt x="448" y="442" on="1"/>
        <pt x="435" y="543" on="1"/>
        <pt x="388" y="560" on="0"/>
        <pt x="285" y="560" on="0"/>
        <pt x="215" y="505" on="0"/>
        <pt x="215" y="433" on="0"/>
        <pt x="270" y="388" on="0"/>
        <pt x="348" y="359" on="0"/>
        <pt x="425" y="324" on="0"/>
        <pt x="480" y="260" on="0"/>
        <pt x="480" y="214" on="1"/>
        <pt x="480" y="125" on="0"/>
        <pt x="366" y="12" on="0"/>
        <pt x="279" y="-4" on="1"/>
        <pt x="257" y="-140" on="1"/>
        <pt x="184" y="-140" on="1"/>
        <pt x="205" y="-10" on="1"/>
        <pt x="166" y="-9" on="0"/>
        <pt x="83" y="10" on="0"/>
        <pt x="62" y="19" on="1"/>
        <pt x="40" y="28" on="1"/>
        <pt x="67" y="195" on="1"/>
      </contour>
    </TTGlyph>
    <TTGlyph name="dotaccent" xMin="0" yMin="625" xMax="125" yMax="765">
      <contour>
        <pt x="125" y="677" on="0"/>
        <pt x="88" y="625" on="0"/>
        <pt x="30" y="625" on="0"/>
        <pt x="0" y="652" on="0"/>
        <pt x="0" y="713" on="0"/>
        <pt x="37" y="765" on="0"/>
        <pt x="95" y="765" on="0"/>
        <pt x="125" y="738" on="0"/>
      </contour>
    </TTGlyph>
    <TTGlyph name="dotlessi" xMin="55" yMin="0" xMax="261" yMax="530">
      <contour>
        <pt x="68" y="0" on="1"/>
        <pt x="140" y="450" on="1"/>
        <pt x="55" y="470" on="1"/>
        <pt x="65" y="525" on="1"/>
        <pt x="248" y="530" on="1"/>
        <pt x="176" y="80" on="1"/>
        <pt x="261" y="65" on="1"/>
        <pt x="252" y="10" on="1"/>
      </contour>
    </TTGlyph>
    <TTGlyph name="dotlessj" xMin="-140" yMin="-240" xMax="239" yMax="530">
      <contour>
        <pt x="48" y="-35" on="1"/>
        <pt x="129" y="450" on="1"/>
        <pt x="43" y="470" on="1"/>
        <pt x="53" y="525" on="1"/>
        <pt x="239" y="530" on="1"/>
        <pt x="143" y="-45" on="1"/>
        <pt x="128" y="-138" on="0"/>
        <pt x="26" y="-240" on="0"/>
        <pt x="-60" y="-240" on="1"/>
        <pt x="-93" y="-240" on="0"/>
        <pt x="-129" y="-228" on="1"/>
        <pt x="-140" y="-225" on="1"/>
        <pt x="-120" y="-160" on="1"/>
        <pt x="-95" y="-165" on="0"/>
        <pt x="-11" y="-165" on="0"/>
        <pt x="36" y="-105" on="0"/>
      </contour>
    </TTGlyph>
    <TTGlyph name="e" xMin="30" yMin="-10" xMax="484" yMax="540">
      <contour>
        <pt x="484" y="410" on="1"/>
        <pt x="484" y="324" on="0"/>
        <pt x="289" y="217" on="0"/>
        <pt x="133" y="217" on="1"/>
        <pt x="130" y="195" on="0"/>
        <pt x="130" y="174" on="1"/>
        <pt x="130" y="70" on="0"/>
        <pt x="240" y="70" on="1"/>
        <pt x="272" y="70" on="0"/>
        <pt x="354" y="92" on="0"/>
        <pt x="379" y="104" on="1"/>
        <pt x="404" y="115" on="1"/>
        <pt x="434" y="64" on="1"/>
        <pt x="422" y="56" on="0"/>
        <pt x="380" y="31" on="0"/>
        <pt x="262" y="-10" on="0"/>
        <pt x="210" y="-10" on="1"/>
        <pt x="128" y="-10" on="0"/>
        <pt x="30" y="86" on="0"/>
        <pt x="30" y="165" on="1"/>
        <pt x="30" y="323" on="0"/>
        <pt x="199" y="540" on="0"/>
        <pt x="319" y="540" on="1"/>
        <pt x="395" y="540" on="0"/>
        <pt x="484" y="469" on="0"/>
      </contour>
      <contour>
        <pt x="142" y="287" on="1"/>
        <pt x="249" y="287" on="0"/>
        <pt x="389" y="351" on="0"/>
        <pt x="389" y="400" on="1"/>
        <pt x="389" y="465" on="0"/>
        <pt x="314" y="465" on="1"/>
        <pt x="259" y="465" on="0"/>
        <pt x="161" y="365" on="0"/>
      </contour>
    </TTGlyph>
    <TTGlyph name="e.tilde" xMin="30" yMin="-10" xMax="523" yMax="764">
      <contour>
        <pt x="484" y="410" on="1"/>
        <pt x="484" y="324" on="0"/>
        <pt x="289" y="217" on="0"/>
        <pt x="133" y="217" on="1"/>
        <pt x="130" y="195" on="0"/>
        <pt x="130" y="174" on="1"/>
        <pt x="130" y="70" on="0"/>
        <pt x="240" y="70" on="1"/>
        <pt x="272" y="70" on="0"/>
        <pt x="354" y="92" on="0"/>
        <pt x="379" y="104" on="1"/>
        <pt x="404" y="115" on="1"/>
        <pt x="434" y="64" on="1"/>
        <pt x="422" y="56" on="0"/>
        <pt x="380" y="31" on="0"/>
        <pt x="262" y="-10" on="0"/>
        <pt x="210" y="-10" on="1"/>
        <pt x="128" y="-10" on="0"/>
        <pt x="30" y="86" on="0"/>
        <pt x="30" y="165" on="1"/>
        <pt x="30" y="323" on="0"/>
        <pt x="199" y="540" on="0"/>
        <pt x="319" y="540" on="1"/>
        <pt x="395" y="540" on="0"/>
        <pt x="484" y="469" on="0"/>
      </contour>
      <contour>
        <pt x="142" y="287" on="1"/>
        <pt x="249" y="287" on="0"/>
        <pt x="389" y="351" on="0"/>
        <pt x="389" y="400" on="1"/>
        <pt x="389" y="465" on="0"/>
        <pt x="314" y="465" on="1"/>
        <pt x="259" y="465" on="0"/>
        <pt x="161" y="365" on="0"/>
      </contour>
      <contour>
        <pt x="170" y="635" on="1"/>
        <pt x="142" y="670" on="1"/>
        <pt x="147" y="679" on="0"/>
        <pt x="178" y="719" on="0"/>
        <pt x="192" y="732" on="1"/>
        <pt x="228" y="764" on="0"/>
        <pt x="300" y="764" on="0"/>
        <pt x="395" y="718" on="0"/>
        <pt x="440" y="718" on="0"/>
        <pt x="476" y="739" on="0"/>
        <pt x="485" y="750" on="1"/>
        <pt x="494" y="760" on="1"/>
        <pt x="523" y="725" on="1"/>
        <pt x="508" y="696" on="0"/>
        <pt x="486" y="675" on="1"/>
        <pt x="442" y="635" on="0"/>
        <pt x="370" y="635" on="0"/>
        <pt x="274" y="679" on="0"/>
        <pt x="228" y="679" on="0"/>
        <pt x="190" y="657" on="0"/>
        <pt x="180" y="646" on="1"/>
      </contour>
    </TTGlyph>
    <TTGlyph name="eacute" xMin="30" yMin="-10" xMax="487" yMax="803">
      <contour>
        <pt x="484" y="410" on="1"/>
        <pt x="484" y="324" on="0"/>
        <pt x="289" y="217" on="0"/>
        <pt x="133" y="217" on="1"/>
        <pt x="130" y="195" on="0"/>
        <pt x="130" y="174" on="1"/>
        <pt x="130" y="70" on="0"/>
        <pt x="240" y="70" on="1"/>
        <pt x="272" y="70" on="0"/>
        <pt x="354" y="92" on="0"/>
        <pt x="379" y="104" on="1"/>
        <pt x="404" y="115" on="1"/>
        <pt x="434" y="64" on="1"/>
        <pt x="422" y="56" on="0"/>
        <pt x="380" y="31" on="0"/>
        <pt x="262" y="-10" on="0"/>
        <pt x="210" y="-10" on="1"/>
        <pt x="128" y="-10" on="0"/>
        <pt x="30" y="86" on="0"/>
        <pt x="30" y="165" on="1"/>
        <pt x="30" y="323" on="0"/>
        <pt x="199" y="540" on="0"/>
        <pt x="319" y="540" on="1"/>
        <pt x="395" y="540" on="0"/>
        <pt x="484" y="469" on="0"/>
      </contour>
      <contour>
        <pt x="142" y="287" on="1"/>
        <pt x="249" y="287" on="0"/>
        <pt x="389" y="351" on="0"/>
        <pt x="389" y="400" on="1"/>
        <pt x="389" y="465" on="0"/>
        <pt x="314" y="465" on="1"/>
        <pt x="259" y="465" on="0"/>
        <pt x="161" y="365" on="0"/>
      </contour>
      <contour>
        <pt x="487" y="728" on="1"/>
        <pt x="269" y="603" on="1"/>
        <pt x="238" y="656" on="1"/>
        <pt x="444" y="803" on="1"/>
      </contour>
    </TTGlyph>
</ttFont>
